<svg width="660" height="217" viewBox="0 0 660 217" fill="none" xmlns="http://www.w3.org/2000/svg">
<rect width="660" height="216.5" />
<rect x="20.75" y="77.25" width="618.5" height="118.5"  stroke="#1E1D1D" stroke-width="1.5"/>
<path d="M28.488 168.6C29.552 168.6 30.376 168.856 30.96 169.368C31.552 169.872 31.848 170.584 31.848 171.504C31.848 172.472 31.552 173.228 30.96 173.772C30.376 174.308 29.552 174.576 28.488 174.576H25.992L26.82 173.748V177H24.924V168.6H28.488ZM28.392 173.04C28.92 173.04 29.328 172.92 29.616 172.68C29.904 172.432 30.048 172.06 30.048 171.564C30.048 171.084 29.904 170.724 29.616 170.484C29.328 170.244 28.92 170.124 28.392 170.124H25.992L26.82 169.296V173.88L25.992 173.04H28.392ZM37.6888 173.472C37.6888 173.048 37.5728 172.716 37.3408 172.476C37.1168 172.236 36.8088 172.116 36.4168 172.116C35.9528 172.124 35.5888 172.288 35.3248 172.608C35.0608 172.928 34.9288 173.332 34.9288 173.82H34.4728C34.4728 173.068 34.5808 172.448 34.7968 171.96C35.0128 171.464 35.3208 171.096 35.7208 170.856C36.1288 170.608 36.6088 170.484 37.1608 170.484C37.6488 170.484 38.0688 170.588 38.4208 170.796C38.7808 170.996 39.0568 171.28 39.2488 171.648C39.4408 172.016 39.5368 172.452 39.5368 172.956V177H37.6888V173.472ZM33.0808 168.096H34.9288V177H33.0808V168.096ZM43.3985 174.204C43.0465 174.204 42.7825 174.264 42.6065 174.384C42.4305 174.504 42.3425 174.696 42.3425 174.96C42.3425 175.216 42.4305 175.42 42.6065 175.572C42.7905 175.716 43.0385 175.788 43.3505 175.788C43.6225 175.788 43.8625 175.744 44.0705 175.656C44.2865 175.56 44.4625 175.436 44.5985 175.284C44.7425 175.124 44.8305 174.94 44.8625 174.732L45.1385 175.764C44.9545 176.196 44.6665 176.524 44.2745 176.748C43.8825 176.972 43.4025 177.084 42.8345 177.084C42.3785 177.084 41.9825 176.996 41.6465 176.82C41.3185 176.644 41.0625 176.404 40.8785 176.1C40.7025 175.796 40.6145 175.452 40.6145 175.068C40.6145 174.468 40.8265 173.996 41.2505 173.652C41.6745 173.308 42.2825 173.132 43.0745 173.124H45.0425V174.204H43.3985ZM44.8505 173.004C44.8505 172.652 44.7345 172.376 44.5025 172.176C44.2785 171.976 43.9465 171.876 43.5065 171.876C43.2185 171.876 42.9105 171.928 42.5825 172.032C42.2545 172.128 41.9225 172.268 41.5865 172.452L41.0105 171.252C41.3305 171.084 41.6425 170.944 41.9465 170.832C42.2505 170.72 42.5625 170.636 42.8825 170.58C43.2025 170.516 43.5505 170.484 43.9265 170.484C44.7985 170.484 45.4705 170.688 45.9425 171.096C46.4145 171.504 46.6545 172.068 46.6625 172.788L46.6745 177H44.8625L44.8505 173.004ZM52.3349 172.404C51.9829 172.212 51.6349 172.064 51.2909 171.96C50.9469 171.848 50.6389 171.792 50.3669 171.792C50.1509 171.792 49.9709 171.832 49.8269 171.912C49.6909 171.992 49.6229 172.12 49.6229 172.296C49.6229 172.464 49.7029 172.6 49.8629 172.704C50.0309 172.8 50.2429 172.884 50.4989 172.956C50.7629 173.028 51.0389 173.112 51.3269 173.208C51.6149 173.296 51.8869 173.412 52.1429 173.556C52.4069 173.7 52.6189 173.896 52.7789 174.144C52.9389 174.384 53.0189 174.696 53.0189 175.08C53.0189 175.512 52.9029 175.88 52.6709 176.184C52.4389 176.48 52.1229 176.704 51.7229 176.856C51.3229 177 50.8789 177.072 50.3909 177.072C49.8709 177.072 49.3669 176.996 48.8789 176.844C48.3909 176.692 47.9629 176.468 47.5949 176.172L48.1949 174.972C48.5309 175.228 48.8989 175.428 49.2989 175.572C49.7069 175.708 50.0869 175.776 50.4389 175.776C50.5989 175.776 50.7389 175.756 50.8589 175.716C50.9789 175.676 51.0749 175.616 51.1469 175.536C51.2189 175.456 51.2549 175.356 51.2549 175.236C51.2549 175.06 51.1749 174.92 51.0149 174.816C50.8549 174.704 50.6469 174.612 50.3909 174.54C50.1349 174.46 49.8629 174.38 49.5749 174.3C49.2869 174.212 49.0149 174.096 48.7589 173.952C48.5109 173.808 48.3069 173.62 48.1469 173.388C47.9869 173.148 47.9069 172.84 47.9069 172.464C47.9069 172.016 48.0229 171.648 48.2549 171.36C48.4869 171.064 48.7949 170.844 49.1789 170.7C49.5629 170.556 49.9869 170.484 50.4509 170.484C50.8989 170.484 51.3389 170.544 51.7709 170.664C52.2109 170.784 52.6109 170.956 52.9709 171.18L52.3349 172.404ZM58.4672 173.256C58.4592 172.96 58.3952 172.708 58.2752 172.5C58.1632 172.284 57.9992 172.116 57.7832 171.996C57.5672 171.876 57.3192 171.816 57.0392 171.816C56.7272 171.816 56.4552 171.896 56.2232 172.056C55.9912 172.216 55.8112 172.436 55.6832 172.716C55.5552 172.996 55.4912 173.32 55.4912 173.688C55.4912 174.104 55.5632 174.46 55.7072 174.756C55.8512 175.052 56.0552 175.28 56.3192 175.44C56.5832 175.6 56.8872 175.68 57.2312 175.68C57.8552 175.68 58.3992 175.448 58.8632 174.984L59.8352 175.944C59.5152 176.304 59.1192 176.58 58.6472 176.772C58.1832 176.964 57.6592 177.06 57.0752 177.06C56.3872 177.06 55.7912 176.924 55.2872 176.652C54.7832 176.38 54.3912 176 54.1112 175.512C53.8392 175.016 53.7032 174.444 53.7032 173.796C53.7032 173.132 53.8432 172.556 54.1232 172.068C54.4032 171.572 54.7912 171.188 55.2872 170.916C55.7912 170.644 56.3712 170.504 57.0272 170.496C57.7872 170.496 58.4072 170.656 58.8872 170.976C59.3752 171.288 59.7272 171.732 59.9432 172.308C60.1672 172.876 60.2512 173.552 60.1952 174.336H55.2272V173.256H58.4672ZM68.0577 172.08C68.7777 172.16 69.3577 172.4 69.7977 172.8C70.2457 173.192 70.4697 173.716 70.4697 174.372C70.4697 174.9 70.3297 175.372 70.0497 175.788C69.7777 176.196 69.3897 176.516 68.8857 176.748C68.3817 176.972 67.7857 177.084 67.0977 177.084C66.4977 177.084 65.9097 176.996 65.3337 176.82C64.7657 176.636 64.2817 176.396 63.8817 176.1L64.6137 174.744C64.9577 175.032 65.3297 175.252 65.7297 175.404C66.1297 175.556 66.5377 175.632 66.9537 175.632C67.3057 175.632 67.6057 175.584 67.8537 175.488C68.1017 175.384 68.2897 175.24 68.4177 175.056C68.5457 174.864 68.6097 174.644 68.6097 174.396C68.6097 174.004 68.4617 173.708 68.1657 173.508C67.8777 173.308 67.4697 173.208 66.9417 173.208H65.5857V172.152L68.3337 169.476L68.5857 170.076H64.3137L64.3017 168.588H70.0497V169.692L67.0017 172.584L66.7857 171.9L68.0577 172.08ZM72.3376 171.684C72.6096 171.684 72.8296 171.772 72.9976 171.948C73.1736 172.116 73.2616 172.336 73.2616 172.608C73.2616 172.88 73.1736 173.104 72.9976 173.28C72.8296 173.456 72.6096 173.544 72.3376 173.544C72.0736 173.544 71.8536 173.456 71.6776 173.28C71.5016 173.104 71.4136 172.88 71.4136 172.608C71.4136 172.336 71.5016 172.116 71.6776 171.948C71.8536 171.772 72.0736 171.684 72.3376 171.684ZM72.3376 175.248C72.6096 175.248 72.8296 175.336 72.9976 175.512C73.1736 175.68 73.2616 175.9 73.2616 176.172C73.2616 176.444 73.1736 176.668 72.9976 176.844C72.8296 177.02 72.6096 177.108 72.3376 177.108C72.0736 177.108 71.8536 177.02 71.6776 176.844C71.5016 176.668 71.4136 176.444 71.4136 176.172C71.4136 175.9 71.5016 175.68 71.6776 175.512C71.8536 175.336 72.0736 175.248 72.3376 175.248ZM24.132 183.6H30.576V184.44H27.828V192H26.868V184.44H24.132V183.6ZM33.5088 185.664C34.1328 185.664 34.6848 185.8 35.1648 186.072C35.6528 186.336 36.0328 186.708 36.3048 187.188C36.5768 187.668 36.7128 188.22 36.7128 188.844C36.7128 189.468 36.5768 190.02 36.3048 190.5C36.0328 190.98 35.6528 191.356 35.1648 191.628C34.6848 191.892 34.1328 192.024 33.5088 192.024C32.8848 192.024 32.3288 191.892 31.8408 191.628C31.3608 191.356 30.9848 190.98 30.7128 190.5C30.4408 190.02 30.3048 189.468 30.3048 188.844C30.3048 188.22 30.4408 187.668 30.7128 187.188C30.9848 186.708 31.3608 186.336 31.8408 186.072C32.3288 185.8 32.8848 185.664 33.5088 185.664ZM33.5088 186.444C33.0688 186.444 32.6768 186.548 32.3328 186.756C31.9888 186.956 31.7208 187.236 31.5288 187.596C31.3368 187.956 31.2408 188.372 31.2408 188.844C31.2408 189.324 31.3368 189.748 31.5288 190.116C31.7208 190.476 31.9888 190.76 32.3328 190.968C32.6768 191.168 33.0688 191.268 33.5088 191.268C33.9568 191.268 34.3488 191.168 34.6848 190.968C35.0288 190.76 35.2968 190.476 35.4888 190.116C35.6808 189.748 35.7768 189.324 35.7768 188.844C35.7768 188.372 35.6808 187.956 35.4888 187.596C35.2968 187.236 35.0288 186.956 34.6848 186.756C34.3488 186.548 33.9568 186.444 33.5088 186.444ZM38.4188 183.096H39.3548V192H38.4188V183.096ZM42.6068 185.688H43.7108L39.2588 190.284V189.132L42.6068 185.688ZM41.2268 187.968L43.9628 192H42.8468L40.5308 188.532L41.2268 187.968ZM49.5644 188.472C49.5484 188.048 49.4484 187.684 49.2644 187.38C49.0884 187.068 48.8444 186.828 48.5324 186.66C48.2284 186.492 47.8684 186.408 47.4524 186.408C47.0124 186.408 46.6244 186.508 46.2884 186.708C45.9604 186.908 45.7004 187.188 45.5084 187.548C45.3164 187.908 45.2204 188.328 45.2204 188.808C45.2204 189.304 45.3164 189.74 45.5084 190.116C45.7084 190.484 45.9844 190.772 46.3364 190.98C46.6884 191.188 47.0884 191.292 47.5364 191.292C48.3364 191.292 48.9884 191.02 49.4924 190.476L50.0084 190.992C49.7044 191.32 49.3364 191.576 48.9044 191.76C48.4724 191.936 47.9964 192.024 47.4764 192.024C46.8524 192.024 46.3004 191.892 45.8204 191.628C45.3484 191.356 44.9804 190.98 44.7164 190.5C44.4524 190.02 44.3204 189.468 44.3204 188.844C44.3204 188.22 44.4524 187.672 44.7164 187.2C44.9804 186.72 45.3484 186.348 45.8204 186.084C46.3004 185.812 46.8444 185.672 47.4524 185.664C48.1324 185.664 48.6964 185.812 49.1444 186.108C49.5924 186.396 49.9204 186.804 50.1284 187.332C50.3444 187.852 50.4324 188.464 50.3924 189.168H45.0524V188.472H49.5644ZM56.8591 188.34C56.8591 187.764 56.6991 187.316 56.3791 186.996C56.0671 186.668 55.6311 186.504 55.0711 186.504C54.3991 186.512 53.8751 186.74 53.4991 187.188C53.1231 187.628 52.9351 188.2 52.9351 188.904H52.6111C52.6111 188.168 52.7231 187.564 52.9471 187.092C53.1711 186.612 53.4911 186.256 53.9071 186.024C54.3311 185.784 54.8271 185.664 55.3951 185.664C55.8991 185.664 56.3311 185.764 56.6911 185.964C57.0511 186.164 57.3231 186.448 57.5071 186.816C57.6991 187.176 57.7951 187.612 57.7951 188.124V192H56.8591V188.34ZM52.0111 185.688H52.9471V192H52.0111V185.688ZM67.4121 188.472C67.3961 188.048 67.2961 187.684 67.1121 187.38C66.9361 187.068 66.6921 186.828 66.3801 186.66C66.0761 186.492 65.7161 186.408 65.3001 186.408C64.8601 186.408 64.4721 186.508 64.1361 186.708C63.8081 186.908 63.5481 187.188 63.3561 187.548C63.1641 187.908 63.0681 188.328 63.0681 188.808C63.0681 189.304 63.1641 189.74 63.3561 190.116C63.5561 190.484 63.8321 190.772 64.1841 190.98C64.5361 191.188 64.9361 191.292 65.3841 191.292C66.1841 191.292 66.8361 191.02 67.3401 190.476L67.8561 190.992C67.5521 191.32 67.1841 191.576 66.7521 191.76C66.3201 191.936 65.8441 192.024 65.3241 192.024C64.7001 192.024 64.1481 191.892 63.6681 191.628C63.1961 191.356 62.8281 190.98 62.5641 190.5C62.3001 190.02 62.1681 189.468 62.1681 188.844C62.1681 188.22 62.3001 187.672 62.5641 187.2C62.8281 186.72 63.1961 186.348 63.6681 186.084C64.1481 185.812 64.6921 185.672 65.3001 185.664C65.9801 185.664 66.5441 185.812 66.9921 186.108C67.4401 186.396 67.7681 186.804 67.9761 187.332C68.1921 187.852 68.2801 188.464 68.2401 189.168H62.9001V188.472H67.4121ZM68.7635 185.688H69.8435L71.5235 188.148L73.2275 185.688H74.2595L72.1355 188.76L74.4155 192H73.3235L71.5235 189.372L69.6635 192H68.6075L70.9115 188.76L68.7635 185.688ZM79.9698 187.2C79.7378 186.968 79.4618 186.788 79.1418 186.66C78.8298 186.524 78.4818 186.456 78.0978 186.456C77.6658 186.456 77.2778 186.556 76.9338 186.756C76.5978 186.956 76.3338 187.236 76.1418 187.596C75.9498 187.956 75.8538 188.372 75.8538 188.844C75.8538 189.316 75.9498 189.736 76.1418 190.104C76.3338 190.464 76.5978 190.748 76.9338 190.956C77.2778 191.156 77.6658 191.256 78.0978 191.256C78.5058 191.256 78.8778 191.188 79.2138 191.052C79.5498 190.908 79.8338 190.7 80.0658 190.428L80.5938 190.956C80.3138 191.292 79.9578 191.556 79.5258 191.748C79.0938 191.932 78.6058 192.024 78.0618 192.024C77.4538 192.024 76.9138 191.892 76.4418 191.628C75.9698 191.356 75.5978 190.98 75.3258 190.5C75.0618 190.02 74.9298 189.468 74.9298 188.844C74.9298 188.22 75.0618 187.672 75.3258 187.2C75.5978 186.72 75.9698 186.344 76.4418 186.072C76.9138 185.8 77.4538 185.664 78.0618 185.664C78.5738 185.664 79.0338 185.748 79.4418 185.916C79.8578 186.076 80.2098 186.3 80.4978 186.588L79.9698 187.2ZM87.2123 188.34C87.2123 187.764 87.0523 187.316 86.7323 186.996C86.4203 186.668 85.9843 186.504 85.4243 186.504C84.7523 186.512 84.2283 186.74 83.8523 187.188C83.4763 187.628 83.2883 188.2 83.2883 188.904H82.9643C82.9643 188.168 83.0763 187.564 83.3003 187.092C83.5243 186.612 83.8443 186.256 84.2603 186.024C84.6843 185.784 85.1803 185.664 85.7483 185.664C86.2523 185.664 86.6843 185.764 87.0443 185.964C87.4043 186.164 87.6763 186.448 87.8603 186.816C88.0523 187.176 88.1483 187.612 88.1483 188.124V192H87.2123V188.34ZM82.3523 183.096H83.2883V192H82.3523V183.096ZM92.1817 189.036C91.6537 189.036 91.2537 189.124 90.9817 189.3C90.7097 189.476 90.5737 189.744 90.5737 190.104C90.5737 190.464 90.7017 190.756 90.9577 190.98C91.2217 191.196 91.5777 191.304 92.0257 191.304C92.3937 191.304 92.7257 191.244 93.0217 191.124C93.3177 191.004 93.5617 190.832 93.7537 190.608C93.9537 190.384 94.0897 190.112 94.1617 189.792L94.4017 190.548C94.1777 191.052 93.8457 191.428 93.4057 191.676C92.9657 191.916 92.4457 192.036 91.8457 192.036C91.4137 192.036 91.0337 191.952 90.7057 191.784C90.3857 191.616 90.1377 191.388 89.9617 191.1C89.7857 190.812 89.6977 190.488 89.6977 190.128C89.6977 189.584 89.9057 189.152 90.3217 188.832C90.7377 188.512 91.3177 188.348 92.0617 188.34H94.3057V189.036H92.1817ZM94.1377 187.92C94.1377 187.44 93.9937 187.068 93.7057 186.804C93.4257 186.54 93.0057 186.408 92.4457 186.408C92.0937 186.408 91.7537 186.472 91.4257 186.6C91.0977 186.728 90.7697 186.908 90.4417 187.14L90.0457 186.528C90.3177 186.344 90.5817 186.188 90.8377 186.06C91.0937 185.932 91.3657 185.836 91.6537 185.772C91.9417 185.7 92.2657 185.664 92.6257 185.664C93.4097 185.664 94.0097 185.86 94.4257 186.252C94.8417 186.636 95.0537 187.164 95.0617 187.836L95.0737 192H94.1617L94.1377 187.92ZM102.011 188.34C102.011 187.764 101.851 187.316 101.531 186.996C101.219 186.668 100.783 186.504 100.223 186.504C99.5514 186.512 99.0274 186.74 98.6514 187.188C98.2754 187.628 98.0874 188.2 98.0874 188.904H97.7634C97.7634 188.168 97.8754 187.564 98.0994 187.092C98.3234 186.612 98.6434 186.256 99.0594 186.024C99.4834 185.784 99.9794 185.664 100.547 185.664C101.051 185.664 101.483 185.764 101.843 185.964C102.203 186.164 102.475 186.448 102.659 186.816C102.851 187.176 102.947 187.612 102.947 188.124V192H102.011V188.34ZM97.1634 185.688H98.0994V192H97.1634V185.688ZM110.546 191.34C110.546 191.956 110.414 192.488 110.15 192.936C109.886 193.384 109.518 193.732 109.046 193.98C108.574 194.228 108.014 194.352 107.366 194.352C106.87 194.352 106.41 194.268 105.986 194.1C105.562 193.94 105.158 193.712 104.774 193.416L105.206 192.768C105.518 193.032 105.846 193.236 106.19 193.38C106.534 193.524 106.914 193.596 107.33 193.596C107.794 193.596 108.194 193.504 108.53 193.32C108.874 193.136 109.138 192.876 109.322 192.54C109.514 192.212 109.61 191.82 109.61 191.364V185.688H110.546V191.34ZM107.258 185.664C107.818 185.656 108.302 185.78 108.71 186.036C109.118 186.284 109.434 186.636 109.658 187.092C109.89 187.54 110.002 188.072 109.994 188.688C110.002 189.304 109.894 189.84 109.67 190.296C109.446 190.752 109.13 191.104 108.722 191.352C108.314 191.6 107.834 191.724 107.282 191.724C106.714 191.724 106.214 191.596 105.782 191.34C105.35 191.084 105.01 190.728 104.762 190.272C104.522 189.808 104.402 189.28 104.402 188.688C104.402 188.096 104.522 187.576 104.762 187.128C105.002 186.672 105.338 186.316 105.77 186.06C106.202 185.796 106.698 185.664 107.258 185.664ZM107.45 186.396C107.034 186.396 106.662 186.496 106.334 186.696C106.006 186.896 105.75 187.172 105.566 187.524C105.382 187.868 105.286 188.264 105.278 188.712C105.286 189.152 105.382 189.548 105.566 189.9C105.75 190.244 106.002 190.516 106.322 190.716C106.65 190.908 107.026 191.004 107.45 191.004C107.874 191.004 108.246 190.908 108.566 190.716C108.894 190.516 109.15 190.244 109.334 189.9C109.518 189.548 109.61 189.152 109.61 188.712C109.61 188.256 109.518 187.856 109.334 187.512C109.15 187.168 108.894 186.896 108.566 186.696C108.246 186.496 107.874 186.396 107.45 186.396ZM117.275 188.472C117.259 188.048 117.159 187.684 116.975 187.38C116.799 187.068 116.555 186.828 116.243 186.66C115.939 186.492 115.579 186.408 115.163 186.408C114.723 186.408 114.335 186.508 113.999 186.708C113.671 186.908 113.411 187.188 113.219 187.548C113.027 187.908 112.931 188.328 112.931 188.808C112.931 189.304 113.027 189.74 113.219 190.116C113.419 190.484 113.695 190.772 114.047 190.98C114.399 191.188 114.799 191.292 115.247 191.292C116.047 191.292 116.699 191.02 117.203 190.476L117.719 190.992C117.415 191.32 117.047 191.576 116.615 191.76C116.183 191.936 115.707 192.024 115.187 192.024C114.563 192.024 114.011 191.892 113.531 191.628C113.059 191.356 112.691 190.98 112.427 190.5C112.163 190.02 112.031 189.468 112.031 188.844C112.031 188.22 112.163 187.672 112.427 187.2C112.691 186.72 113.059 186.348 113.531 186.084C114.011 185.812 114.555 185.672 115.163 185.664C115.843 185.664 116.407 185.812 116.855 186.108C117.303 186.396 117.631 186.804 117.839 187.332C118.055 187.852 118.143 188.464 118.103 189.168H112.763V188.472H117.275Z" fill="#1E1D1D"/>
<g clip-path="url(#clip0_184_2720)">
<line x1="148.5" y1="581" x2="148.5" y2="66" stroke="#1E1D1D" stroke-linejoin="bevel" stroke-dasharray="8 8"/>
<line x1="298.5" y1="581" x2="298.5" y2="66" stroke="#1E1D1D" stroke-linejoin="bevel" stroke-dasharray="8 8"/>
<line x1="448.5" y1="581" x2="448.5" y2="66" stroke="#1E1D1D" stroke-linejoin="bevel" stroke-dasharray="8 8"/>
<line x1="598.5" y1="581" x2="598.5" y2="66" stroke="#1E1D1D" stroke-linejoin="bevel" stroke-dasharray="8 8"/>
</g>
<rect x="116.5" y="20.5" width="66" height="49" />
<rect x="116.5" y="20.5" width="66" height="49" stroke="#1E1D1D"/>
<path d="M138.588 45.544C138.588 46.16 138.76 46.648 139.104 47.008C139.448 47.36 139.9 47.536 140.46 47.536C141.004 47.536 141.44 47.36 141.768 47.008C142.104 46.648 142.272 46.16 142.272 45.544V40.6H144.168V45.544C144.168 46.272 144.016 46.908 143.712 47.452C143.416 47.988 142.988 48.404 142.428 48.7C141.876 48.988 141.216 49.132 140.448 49.132C139.68 49.132 139.012 48.988 138.444 48.7C137.884 48.404 137.452 47.988 137.148 47.452C136.844 46.908 136.692 46.272 136.692 45.544V40.6H138.588V45.544ZM149.903 44.404C149.551 44.212 149.203 44.064 148.859 43.96C148.515 43.848 148.207 43.792 147.935 43.792C147.719 43.792 147.539 43.832 147.395 43.912C147.259 43.992 147.191 44.12 147.191 44.296C147.191 44.464 147.271 44.6 147.431 44.704C147.599 44.8 147.811 44.884 148.067 44.956C148.331 45.028 148.607 45.112 148.895 45.208C149.183 45.296 149.455 45.412 149.711 45.556C149.975 45.7 150.187 45.896 150.347 46.144C150.507 46.384 150.587 46.696 150.587 47.08C150.587 47.512 150.471 47.88 150.239 48.184C150.007 48.48 149.691 48.704 149.291 48.856C148.891 49 148.447 49.072 147.959 49.072C147.439 49.072 146.935 48.996 146.447 48.844C145.959 48.692 145.531 48.468 145.163 48.172L145.763 46.972C146.099 47.228 146.467 47.428 146.867 47.572C147.275 47.708 147.655 47.776 148.007 47.776C148.167 47.776 148.307 47.756 148.427 47.716C148.547 47.676 148.643 47.616 148.715 47.536C148.787 47.456 148.823 47.356 148.823 47.236C148.823 47.06 148.743 46.92 148.583 46.816C148.423 46.704 148.215 46.612 147.959 46.54C147.703 46.46 147.431 46.38 147.143 46.3C146.855 46.212 146.583 46.096 146.327 45.952C146.079 45.808 145.875 45.62 145.715 45.388C145.555 45.148 145.475 44.84 145.475 44.464C145.475 44.016 145.591 43.648 145.823 43.36C146.055 43.064 146.363 42.844 146.747 42.7C147.131 42.556 147.555 42.484 148.019 42.484C148.467 42.484 148.907 42.544 149.339 42.664C149.779 42.784 150.179 42.956 150.539 43.18L149.903 44.404ZM156.036 45.256C156.028 44.96 155.964 44.708 155.844 44.5C155.732 44.284 155.568 44.116 155.352 43.996C155.136 43.876 154.888 43.816 154.608 43.816C154.296 43.816 154.024 43.896 153.792 44.056C153.56 44.216 153.38 44.436 153.252 44.716C153.124 44.996 153.06 45.32 153.06 45.688C153.06 46.104 153.132 46.46 153.276 46.756C153.42 47.052 153.624 47.28 153.888 47.44C154.152 47.6 154.456 47.68 154.8 47.68C155.424 47.68 155.968 47.448 156.432 46.984L157.404 47.944C157.084 48.304 156.688 48.58 156.216 48.772C155.752 48.964 155.228 49.06 154.644 49.06C153.956 49.06 153.36 48.924 152.856 48.652C152.352 48.38 151.96 48 151.68 47.512C151.408 47.016 151.272 46.444 151.272 45.796C151.272 45.132 151.412 44.556 151.692 44.068C151.972 43.572 152.36 43.188 152.856 42.916C153.36 42.644 153.94 42.504 154.596 42.496C155.356 42.496 155.976 42.656 156.456 42.976C156.944 43.288 157.296 43.732 157.512 44.308C157.736 44.876 157.82 45.552 157.764 46.336H152.796V45.256H156.036ZM162.968 44.152C162.536 44.112 162.156 44.164 161.828 44.308C161.508 44.452 161.26 44.66 161.084 44.932C160.916 45.204 160.832 45.528 160.832 45.904L160.364 45.82C160.364 45.116 160.468 44.516 160.676 44.02C160.892 43.524 161.196 43.144 161.588 42.88C161.98 42.616 162.44 42.484 162.968 42.484V44.152ZM158.984 42.556H160.832V49H158.984V42.556Z" fill="#1E1D1D"/>
<rect x="228.5" y="20.5" width="140" height="49" />
<rect x="228.5" y="20.5" width="140" height="49" stroke="#1E1D1D"/>
<path d="M248.437 33.6H250.345L252.493 37.428L254.593 33.6H256.501L252.613 40.764H252.361L248.437 33.6ZM251.545 38.364H253.441V42H251.545V38.364ZM259.554 35.496C260.242 35.496 260.846 35.632 261.366 35.904C261.886 36.176 262.29 36.56 262.578 37.056C262.866 37.544 263.01 38.116 263.01 38.772C263.01 39.428 262.866 40.004 262.578 40.5C262.29 40.996 261.886 41.38 261.366 41.652C260.846 41.924 260.242 42.06 259.554 42.06C258.866 42.06 258.258 41.924 257.73 41.652C257.21 41.38 256.806 40.996 256.518 40.5C256.23 40.004 256.086 39.428 256.086 38.772C256.086 38.116 256.23 37.544 256.518 37.056C256.806 36.56 257.21 36.176 257.73 35.904C258.258 35.632 258.866 35.496 259.554 35.496ZM259.554 36.972C259.234 36.972 258.95 37.048 258.702 37.2C258.462 37.352 258.274 37.568 258.138 37.848C258.002 38.12 257.934 38.436 257.934 38.796C257.934 39.156 258.002 39.476 258.138 39.756C258.274 40.028 258.462 40.244 258.702 40.404C258.95 40.556 259.234 40.632 259.554 40.632C259.874 40.632 260.154 40.556 260.394 40.404C260.634 40.244 260.822 40.028 260.958 39.756C261.094 39.476 261.162 39.156 261.162 38.796C261.162 38.436 261.094 38.12 260.958 37.848C260.822 37.568 260.634 37.352 260.394 37.2C260.154 37.048 259.874 36.972 259.554 36.972ZM265.888 39.096C265.888 39.512 265.996 39.84 266.212 40.08C266.428 40.32 266.724 40.44 267.1 40.44C267.548 40.432 267.896 40.268 268.144 39.948C268.4 39.628 268.528 39.224 268.528 38.736H268.972C268.972 39.488 268.864 40.112 268.648 40.608C268.44 41.096 268.14 41.46 267.748 41.7C267.364 41.94 266.904 42.064 266.368 42.072C265.888 42.072 265.476 41.972 265.132 41.772C264.788 41.564 264.52 41.276 264.328 40.908C264.136 40.54 264.04 40.104 264.04 39.6V35.556H265.888V39.096ZM268.528 35.556H270.364V42H268.528V35.556ZM276.138 37.152C275.706 37.112 275.326 37.164 274.998 37.308C274.678 37.452 274.43 37.66 274.254 37.932C274.086 38.204 274.002 38.528 274.002 38.904L273.534 38.82C273.534 38.116 273.638 37.516 273.846 37.02C274.062 36.524 274.366 36.144 274.758 35.88C275.15 35.616 275.61 35.484 276.138 35.484V37.152ZM272.154 35.556H274.002V42H272.154V35.556ZM282.66 39.204C282.308 39.204 282.044 39.264 281.868 39.384C281.692 39.504 281.604 39.696 281.604 39.96C281.604 40.216 281.692 40.42 281.868 40.572C282.052 40.716 282.3 40.788 282.612 40.788C282.884 40.788 283.124 40.744 283.332 40.656C283.548 40.56 283.724 40.436 283.86 40.284C284.004 40.124 284.092 39.94 284.124 39.732L284.4 40.764C284.216 41.196 283.928 41.524 283.536 41.748C283.144 41.972 282.664 42.084 282.096 42.084C281.64 42.084 281.244 41.996 280.908 41.82C280.58 41.644 280.324 41.404 280.14 41.1C279.964 40.796 279.876 40.452 279.876 40.068C279.876 39.468 280.088 38.996 280.512 38.652C280.936 38.308 281.544 38.132 282.336 38.124H284.304V39.204H282.66ZM284.112 38.004C284.112 37.652 283.996 37.376 283.764 37.176C283.54 36.976 283.208 36.876 282.768 36.876C282.48 36.876 282.172 36.928 281.844 37.032C281.516 37.128 281.184 37.268 280.848 37.452L280.272 36.252C280.592 36.084 280.904 35.944 281.208 35.832C281.512 35.72 281.824 35.636 282.144 35.58C282.464 35.516 282.812 35.484 283.188 35.484C284.06 35.484 284.732 35.688 285.204 36.096C285.676 36.504 285.916 37.068 285.924 37.788L285.936 42H284.124L284.112 38.004ZM291.477 35.496C292.085 35.496 292.613 35.636 293.061 35.916C293.517 36.188 293.873 36.572 294.129 37.068C294.385 37.564 294.513 38.144 294.513 38.808C294.513 39.456 294.389 40.024 294.141 40.512C293.893 41 293.545 41.38 293.097 41.652C292.649 41.924 292.121 42.06 291.513 42.06C290.953 42.06 290.473 41.932 290.073 41.676C289.673 41.412 289.365 41.036 289.149 40.548C288.933 40.052 288.825 39.472 288.825 38.808C288.825 38.12 288.929 37.528 289.137 37.032C289.353 36.536 289.657 36.156 290.049 35.892C290.449 35.628 290.925 35.496 291.477 35.496ZM291.045 36.936C290.733 36.936 290.453 37.016 290.205 37.176C289.965 37.328 289.777 37.54 289.641 37.812C289.505 38.084 289.437 38.4 289.437 38.76C289.437 39.12 289.505 39.44 289.641 39.72C289.777 39.992 289.965 40.204 290.205 40.356C290.453 40.508 290.733 40.584 291.045 40.584C291.365 40.584 291.645 40.508 291.885 40.356C292.125 40.204 292.309 39.992 292.437 39.72C292.573 39.44 292.641 39.12 292.641 38.76C292.641 38.408 292.573 38.096 292.437 37.824C292.309 37.544 292.125 37.328 291.885 37.176C291.645 37.016 291.365 36.936 291.045 36.936ZM287.589 35.556H289.437V44.328H287.589V35.556ZM299.68 35.496C300.288 35.496 300.816 35.636 301.264 35.916C301.72 36.188 302.076 36.572 302.332 37.068C302.588 37.564 302.716 38.144 302.716 38.808C302.716 39.456 302.592 40.024 302.344 40.512C302.096 41 301.748 41.38 301.3 41.652C300.852 41.924 300.324 42.06 299.716 42.06C299.156 42.06 298.676 41.932 298.276 41.676C297.876 41.412 297.568 41.036 297.352 40.548C297.136 40.052 297.028 39.472 297.028 38.808C297.028 38.12 297.132 37.528 297.34 37.032C297.556 36.536 297.86 36.156 298.252 35.892C298.652 35.628 299.128 35.496 299.68 35.496ZM299.248 36.936C298.936 36.936 298.656 37.016 298.408 37.176C298.168 37.328 297.98 37.54 297.844 37.812C297.708 38.084 297.64 38.4 297.64 38.76C297.64 39.12 297.708 39.44 297.844 39.72C297.98 39.992 298.168 40.204 298.408 40.356C298.656 40.508 298.936 40.584 299.248 40.584C299.568 40.584 299.848 40.508 300.088 40.356C300.328 40.204 300.512 39.992 300.64 39.72C300.776 39.44 300.844 39.12 300.844 38.76C300.844 38.408 300.776 38.096 300.64 37.824C300.512 37.544 300.328 37.328 300.088 37.176C299.848 37.016 299.568 36.936 299.248 36.936ZM295.792 35.556H297.64V44.328H295.792V35.556ZM303.995 33.096H305.843V42H303.995V33.096ZM307.697 35.556H309.545V42H307.697V35.556ZM308.621 32.712C308.917 32.712 309.157 32.808 309.341 33C309.533 33.192 309.629 33.432 309.629 33.72C309.629 34.008 309.533 34.248 309.341 34.44C309.157 34.632 308.917 34.728 308.621 34.728C308.341 34.728 308.105 34.632 307.913 34.44C307.721 34.248 307.625 34.008 307.625 33.72C307.625 33.432 307.721 33.192 307.913 33C308.105 32.808 308.341 32.712 308.621 32.712ZM315.626 37.692C315.458 37.476 315.25 37.308 315.002 37.188C314.754 37.068 314.47 37.008 314.15 37.008C313.854 37.008 313.59 37.084 313.358 37.236C313.126 37.38 312.942 37.588 312.806 37.86C312.678 38.124 312.614 38.436 312.614 38.796C312.614 39.148 312.678 39.46 312.806 39.732C312.942 40.004 313.126 40.216 313.358 40.368C313.59 40.512 313.854 40.584 314.15 40.584C314.478 40.584 314.77 40.524 315.026 40.404C315.282 40.276 315.49 40.088 315.65 39.84L316.922 40.68C316.65 41.12 316.266 41.46 315.77 41.7C315.282 41.94 314.714 42.06 314.066 42.06C313.41 42.06 312.834 41.924 312.338 41.652C311.842 41.38 311.454 41 311.174 40.512C310.902 40.016 310.766 39.444 310.766 38.796C310.766 38.14 310.902 37.564 311.174 37.068C311.454 36.572 311.842 36.188 312.338 35.916C312.842 35.636 313.418 35.496 314.066 35.496C314.69 35.496 315.242 35.612 315.722 35.844C316.202 36.068 316.586 36.388 316.874 36.804L315.626 37.692ZM320.184 39.204C319.832 39.204 319.568 39.264 319.392 39.384C319.216 39.504 319.128 39.696 319.128 39.96C319.128 40.216 319.216 40.42 319.392 40.572C319.576 40.716 319.824 40.788 320.136 40.788C320.408 40.788 320.648 40.744 320.856 40.656C321.072 40.56 321.248 40.436 321.384 40.284C321.528 40.124 321.616 39.94 321.648 39.732L321.924 40.764C321.74 41.196 321.452 41.524 321.06 41.748C320.668 41.972 320.188 42.084 319.62 42.084C319.164 42.084 318.768 41.996 318.432 41.82C318.104 41.644 317.848 41.404 317.664 41.1C317.488 40.796 317.4 40.452 317.4 40.068C317.4 39.468 317.612 38.996 318.036 38.652C318.46 38.308 319.068 38.132 319.86 38.124H321.828V39.204H320.184ZM321.636 38.004C321.636 37.652 321.52 37.376 321.288 37.176C321.064 36.976 320.732 36.876 320.292 36.876C320.004 36.876 319.696 36.928 319.368 37.032C319.04 37.128 318.708 37.268 318.372 37.452L317.796 36.252C318.116 36.084 318.428 35.944 318.732 35.832C319.036 35.72 319.348 35.636 319.668 35.58C319.988 35.516 320.336 35.484 320.712 35.484C321.584 35.484 322.256 35.688 322.728 36.096C323.2 36.504 323.44 37.068 323.448 37.788L323.46 42H321.648L321.636 38.004ZM327.176 39.804C327.176 40.092 327.232 40.296 327.344 40.416C327.456 40.528 327.608 40.58 327.8 40.572C327.92 40.572 328.052 40.552 328.196 40.512C328.34 40.472 328.496 40.412 328.664 40.332L329.048 41.628C328.808 41.772 328.544 41.884 328.256 41.964C327.968 42.044 327.672 42.084 327.368 42.084C326.984 42.084 326.636 42.012 326.324 41.868C326.02 41.724 325.78 41.504 325.604 41.208C325.428 40.912 325.34 40.544 325.34 40.104V34.056H327.176V39.804ZM324.44 35.832H328.928V37.068H324.44V35.832ZM330.161 35.556H332.009V42H330.161V35.556ZM331.085 32.712C331.381 32.712 331.621 32.808 331.805 33C331.997 33.192 332.093 33.432 332.093 33.72C332.093 34.008 331.997 34.248 331.805 34.44C331.621 34.632 331.381 34.728 331.085 34.728C330.805 34.728 330.569 34.632 330.377 34.44C330.185 34.248 330.089 34.008 330.089 33.72C330.089 33.432 330.185 33.192 330.377 33C330.569 32.808 330.805 32.712 331.085 32.712ZM336.699 35.496C337.387 35.496 337.991 35.632 338.511 35.904C339.031 36.176 339.435 36.56 339.723 37.056C340.011 37.544 340.155 38.116 340.155 38.772C340.155 39.428 340.011 40.004 339.723 40.5C339.435 40.996 339.031 41.38 338.511 41.652C337.991 41.924 337.387 42.06 336.699 42.06C336.011 42.06 335.403 41.924 334.875 41.652C334.355 41.38 333.951 40.996 333.663 40.5C333.375 40.004 333.231 39.428 333.231 38.772C333.231 38.116 333.375 37.544 333.663 37.056C333.951 36.56 334.355 36.176 334.875 35.904C335.403 35.632 336.011 35.496 336.699 35.496ZM336.699 36.972C336.379 36.972 336.095 37.048 335.847 37.2C335.607 37.352 335.419 37.568 335.283 37.848C335.147 38.12 335.079 38.436 335.079 38.796C335.079 39.156 335.147 39.476 335.283 39.756C335.419 40.028 335.607 40.244 335.847 40.404C336.095 40.556 336.379 40.632 336.699 40.632C337.019 40.632 337.299 40.556 337.539 40.404C337.779 40.244 337.967 40.028 338.103 39.756C338.239 39.476 338.307 39.156 338.307 38.796C338.307 38.436 338.239 38.12 338.103 37.848C337.967 37.568 337.779 37.352 337.539 37.2C337.299 37.048 337.019 36.972 336.699 36.972ZM345.972 38.472C345.972 38.048 345.856 37.716 345.624 37.476C345.4 37.236 345.092 37.116 344.7 37.116C344.244 37.124 343.884 37.288 343.62 37.608C343.356 37.928 343.224 38.332 343.224 38.82H342.756C342.756 38.068 342.864 37.448 343.08 36.96C343.304 36.464 343.616 36.096 344.016 35.856C344.424 35.608 344.904 35.484 345.456 35.484C345.936 35.484 346.352 35.588 346.704 35.796C347.064 35.996 347.34 36.28 347.532 36.648C347.724 37.016 347.82 37.452 347.82 37.956V42H345.972V38.472ZM341.376 35.556H343.224V42H341.376V35.556ZM280.31 48.096C279.87 48.792 279.518 49.588 279.254 50.484C278.998 51.372 278.87 52.308 278.87 53.292C278.87 54.276 278.998 55.216 279.254 56.112C279.518 57 279.87 57.792 280.31 58.488H278.654C278.166 57.792 277.79 57 277.526 56.112C277.27 55.216 277.142 54.276 277.142 53.292C277.142 52.308 277.27 51.372 277.526 50.484C277.79 49.588 278.166 48.792 278.654 48.096H280.31ZM287.602 51.168C287.322 50.824 286.986 50.556 286.594 50.364C286.202 50.164 285.81 50.064 285.418 50.064C285.058 50.064 284.722 50.132 284.41 50.268C284.106 50.404 283.834 50.596 283.594 50.844C283.362 51.084 283.182 51.368 283.054 51.696C282.926 52.024 282.862 52.38 282.862 52.764C282.862 53.14 282.926 53.492 283.054 53.82C283.182 54.148 283.362 54.436 283.594 54.684C283.834 54.924 284.106 55.116 284.41 55.26C284.722 55.396 285.058 55.464 285.418 55.464C285.802 55.464 286.186 55.376 286.57 55.2C286.954 55.016 287.298 54.772 287.602 54.468L288.718 55.632C288.422 55.936 288.086 56.2 287.71 56.424C287.342 56.648 286.954 56.824 286.546 56.952C286.138 57.072 285.73 57.132 285.322 57.132C284.69 57.132 284.106 57.024 283.57 56.808C283.042 56.584 282.578 56.276 282.178 55.884C281.786 55.484 281.478 55.02 281.254 54.492C281.03 53.964 280.918 53.392 280.918 52.776C280.918 52.168 281.03 51.604 281.254 51.084C281.478 50.564 281.794 50.108 282.202 49.716C282.61 49.324 283.082 49.02 283.618 48.804C284.162 48.588 284.754 48.48 285.394 48.48C285.802 48.48 286.206 48.536 286.606 48.648C287.014 48.76 287.394 48.92 287.746 49.128C288.106 49.328 288.426 49.576 288.706 49.872L287.602 51.168ZM289.874 48.096H291.722V57H289.874V48.096ZM293.576 50.556H295.424V57H293.576V50.556ZM294.5 47.712C294.796 47.712 295.036 47.808 295.22 48C295.412 48.192 295.508 48.432 295.508 48.72C295.508 49.008 295.412 49.248 295.22 49.44C295.036 49.632 294.796 49.728 294.5 49.728C294.22 49.728 293.984 49.632 293.792 49.44C293.6 49.248 293.504 49.008 293.504 48.72C293.504 48.432 293.6 48.192 293.792 48C293.984 47.808 294.22 47.712 294.5 47.712ZM301.409 53.256C301.401 52.96 301.337 52.708 301.217 52.5C301.105 52.284 300.941 52.116 300.725 51.996C300.509 51.876 300.261 51.816 299.981 51.816C299.669 51.816 299.397 51.896 299.165 52.056C298.933 52.216 298.753 52.436 298.625 52.716C298.497 52.996 298.433 53.32 298.433 53.688C298.433 54.104 298.505 54.46 298.649 54.756C298.793 55.052 298.997 55.28 299.261 55.44C299.525 55.6 299.829 55.68 300.173 55.68C300.797 55.68 301.341 55.448 301.805 54.984L302.777 55.944C302.457 56.304 302.061 56.58 301.589 56.772C301.125 56.964 300.601 57.06 300.017 57.06C299.329 57.06 298.733 56.924 298.229 56.652C297.725 56.38 297.333 56 297.053 55.512C296.781 55.016 296.645 54.444 296.645 53.796C296.645 53.132 296.785 52.556 297.065 52.068C297.345 51.572 297.733 51.188 298.229 50.916C298.733 50.644 299.313 50.504 299.969 50.496C300.729 50.496 301.349 50.656 301.829 50.976C302.317 51.288 302.669 51.732 302.885 52.308C303.109 52.876 303.193 53.552 303.137 54.336H298.169V53.256H301.409ZM308.953 53.472C308.953 53.048 308.837 52.716 308.605 52.476C308.381 52.236 308.073 52.116 307.681 52.116C307.225 52.124 306.865 52.288 306.601 52.608C306.337 52.928 306.205 53.332 306.205 53.82H305.737C305.737 53.068 305.845 52.448 306.061 51.96C306.285 51.464 306.597 51.096 306.997 50.856C307.405 50.608 307.885 50.484 308.437 50.484C308.917 50.484 309.333 50.588 309.685 50.796C310.045 50.996 310.321 51.28 310.513 51.648C310.705 52.016 310.801 52.452 310.801 52.956V57H308.953V53.472ZM304.357 50.556H306.205V57H304.357V50.556ZM314.52 54.804C314.52 55.092 314.576 55.296 314.688 55.416C314.8 55.528 314.952 55.58 315.144 55.572C315.264 55.572 315.396 55.552 315.54 55.512C315.684 55.472 315.84 55.412 316.008 55.332L316.392 56.628C316.152 56.772 315.888 56.884 315.6 56.964C315.312 57.044 315.016 57.084 314.712 57.084C314.328 57.084 313.98 57.012 313.668 56.868C313.364 56.724 313.124 56.504 312.948 56.208C312.772 55.912 312.684 55.544 312.684 55.104V49.056H314.52V54.804ZM311.784 50.832H316.272V52.068H311.784V50.832ZM316.689 48.096H318.357C318.845 48.792 319.217 49.588 319.473 50.484C319.737 51.372 319.869 52.308 319.869 53.292C319.869 54.276 319.737 55.216 319.473 56.112C319.217 57 318.845 57.792 318.357 58.488H316.689C317.129 57.792 317.477 57 317.733 56.112C317.997 55.216 318.129 54.276 318.129 53.292C318.129 52.308 317.997 51.372 317.733 50.484C317.477 49.588 317.129 48.792 316.689 48.096Z" fill="#1E1D1D"/>
<rect x="404.5" y="20.5" width="89" height="49" />
<rect x="404.5" y="20.5" width="89" height="49" stroke="#1E1D1D"/>
<path d="M445.144 35.88C444.848 35.696 444.54 35.544 444.22 35.424C443.908 35.296 443.604 35.2 443.308 35.136C443.02 35.064 442.76 35.028 442.528 35.028C442.208 35.028 441.948 35.092 441.748 35.22C441.556 35.34 441.46 35.524 441.46 35.772C441.46 36.004 441.54 36.196 441.7 36.348C441.868 36.492 442.084 36.612 442.348 36.708C442.612 36.796 442.904 36.888 443.224 36.984C443.544 37.072 443.86 37.176 444.172 37.296C444.492 37.416 444.784 37.572 445.048 37.764C445.32 37.948 445.532 38.188 445.684 38.484C445.844 38.772 445.924 39.132 445.924 39.564C445.924 40.108 445.78 40.568 445.492 40.944C445.204 41.32 444.808 41.608 444.304 41.808C443.808 42.008 443.252 42.108 442.636 42.108C442.172 42.108 441.716 42.052 441.268 41.94C440.82 41.828 440.396 41.672 439.996 41.472C439.604 41.264 439.248 41.024 438.928 40.752L439.684 39.264C439.972 39.52 440.288 39.744 440.632 39.936C440.984 40.128 441.336 40.276 441.688 40.38C442.039 40.484 442.364 40.536 442.66 40.536C443.052 40.536 443.356 40.46 443.572 40.308C443.796 40.156 443.908 39.94 443.908 39.66C443.908 39.42 443.828 39.228 443.668 39.084C443.508 38.94 443.296 38.82 443.032 38.724C442.768 38.62 442.476 38.528 442.156 38.448C441.836 38.36 441.516 38.26 441.196 38.148C440.876 38.028 440.584 37.88 440.32 37.704C440.056 37.52 439.84 37.288 439.672 37.008C439.512 36.728 439.432 36.372 439.432 35.94C439.432 35.428 439.568 34.988 439.84 34.62C440.112 34.244 440.492 33.956 440.98 33.756C441.468 33.548 442.036 33.444 442.684 33.444C443.276 33.444 443.852 33.532 444.412 33.708C444.972 33.876 445.46 34.096 445.876 34.368L445.144 35.88ZM447.252 33.6H449.148V42H447.252V33.6ZM454.566 33.6C455.222 33.6 455.818 33.704 456.354 33.912C456.898 34.112 457.366 34.4 457.758 34.776C458.15 35.144 458.454 35.584 458.67 36.096C458.886 36.608 458.994 37.176 458.994 37.8C458.994 38.416 458.886 38.98 458.67 39.492C458.454 40.004 458.146 40.448 457.746 40.824C457.346 41.2 456.87 41.492 456.318 41.7C455.774 41.9 455.17 42 454.506 42H451.014V33.6H454.566ZM454.614 40.452C454.974 40.452 455.302 40.388 455.598 40.26C455.894 40.132 456.15 39.952 456.366 39.72C456.59 39.48 456.762 39.2 456.882 38.88C457.002 38.56 457.062 38.204 457.062 37.812C457.062 37.42 456.998 37.064 456.87 36.744C456.742 36.416 456.566 36.132 456.342 35.892C456.118 35.644 455.85 35.456 455.538 35.328C455.234 35.2 454.898 35.136 454.53 35.136H452.91V40.452H454.614ZM437.653 48.6H439.597L443.173 57H441.157L438.565 50.496L435.961 57H433.993L437.653 48.6ZM436.033 53.844H440.989V55.32H436.033V53.844ZM445.386 54.096C445.386 54.512 445.494 54.84 445.71 55.08C445.926 55.32 446.222 55.44 446.598 55.44C447.046 55.432 447.394 55.268 447.642 54.948C447.898 54.628 448.026 54.224 448.026 53.736H448.47C448.47 54.488 448.362 55.112 448.146 55.608C447.938 56.096 447.638 56.46 447.246 56.7C446.862 56.94 446.402 57.064 445.866 57.072C445.386 57.072 444.974 56.972 444.63 56.772C444.286 56.564 444.018 56.276 443.826 55.908C443.634 55.54 443.538 55.104 443.538 54.6V50.556H445.386V54.096ZM448.026 50.556H449.862V57H448.026V50.556ZM453.776 54.804C453.776 55.092 453.832 55.296 453.944 55.416C454.056 55.528 454.208 55.58 454.4 55.572C454.52 55.572 454.652 55.552 454.796 55.512C454.94 55.472 455.096 55.412 455.264 55.332L455.648 56.628C455.408 56.772 455.144 56.884 454.856 56.964C454.568 57.044 454.272 57.084 453.968 57.084C453.584 57.084 453.236 57.012 452.924 56.868C452.62 56.724 452.38 56.504 452.204 56.208C452.028 55.912 451.94 55.544 451.94 55.104V49.056H453.776V54.804ZM451.04 50.832H455.528V52.068H451.04V50.832ZM461.429 53.472C461.429 53.048 461.313 52.716 461.081 52.476C460.857 52.236 460.549 52.116 460.157 52.116C459.693 52.124 459.329 52.288 459.065 52.608C458.801 52.928 458.669 53.332 458.669 53.82H458.213C458.213 53.068 458.321 52.448 458.537 51.96C458.753 51.464 459.061 51.096 459.461 50.856C459.869 50.608 460.349 50.484 460.901 50.484C461.389 50.484 461.809 50.588 462.161 50.796C462.521 50.996 462.797 51.28 462.989 51.648C463.181 52.016 463.277 52.452 463.277 52.956V57H461.429V53.472ZM456.821 48.096H458.669V57H456.821V48.096Z" fill="#1E1D1D"/>
<rect x="558.5" y="20.5" width="81" height="49" />
<rect x="558.5" y="20.5" width="81" height="49" stroke="#1E1D1D"/>
<path d="M595.144 35.88C594.848 35.696 594.54 35.544 594.22 35.424C593.908 35.296 593.604 35.2 593.308 35.136C593.02 35.064 592.76 35.028 592.528 35.028C592.208 35.028 591.948 35.092 591.748 35.22C591.556 35.34 591.46 35.524 591.46 35.772C591.46 36.004 591.54 36.196 591.7 36.348C591.868 36.492 592.084 36.612 592.348 36.708C592.612 36.796 592.904 36.888 593.224 36.984C593.544 37.072 593.86 37.176 594.172 37.296C594.492 37.416 594.784 37.572 595.048 37.764C595.32 37.948 595.532 38.188 595.684 38.484C595.844 38.772 595.924 39.132 595.924 39.564C595.924 40.108 595.78 40.568 595.492 40.944C595.204 41.32 594.808 41.608 594.304 41.808C593.808 42.008 593.252 42.108 592.636 42.108C592.172 42.108 591.716 42.052 591.268 41.94C590.82 41.828 590.396 41.672 589.996 41.472C589.604 41.264 589.248 41.024 588.928 40.752L589.684 39.264C589.972 39.52 590.288 39.744 590.632 39.936C590.984 40.128 591.336 40.276 591.688 40.38C592.039 40.484 592.364 40.536 592.66 40.536C593.052 40.536 593.356 40.46 593.572 40.308C593.796 40.156 593.908 39.94 593.908 39.66C593.908 39.42 593.828 39.228 593.668 39.084C593.508 38.94 593.296 38.82 593.032 38.724C592.768 38.62 592.476 38.528 592.156 38.448C591.836 38.36 591.516 38.26 591.196 38.148C590.876 38.028 590.584 37.88 590.32 37.704C590.056 37.52 589.84 37.288 589.672 37.008C589.512 36.728 589.432 36.372 589.432 35.94C589.432 35.428 589.568 34.988 589.84 34.62C590.112 34.244 590.492 33.956 590.98 33.756C591.468 33.548 592.036 33.444 592.684 33.444C593.276 33.444 593.852 33.532 594.412 33.708C594.972 33.876 595.46 34.096 595.876 34.368L595.144 35.88ZM597.252 33.6H599.148V42H597.252V33.6ZM604.566 33.6C605.222 33.6 605.818 33.704 606.354 33.912C606.898 34.112 607.366 34.4 607.758 34.776C608.15 35.144 608.454 35.584 608.67 36.096C608.886 36.608 608.994 37.176 608.994 37.8C608.994 38.416 608.886 38.98 608.67 39.492C608.454 40.004 608.146 40.448 607.746 40.824C607.346 41.2 606.87 41.492 606.318 41.7C605.774 41.9 605.17 42 604.506 42H601.014V33.6H604.566ZM604.614 40.452C604.974 40.452 605.302 40.388 605.598 40.26C605.894 40.132 606.15 39.952 606.366 39.72C606.59 39.48 606.762 39.2 606.882 38.88C607.002 38.56 607.062 38.204 607.062 37.812C607.062 37.42 606.998 37.064 606.87 36.744C606.742 36.416 606.566 36.132 606.342 35.892C606.118 35.644 605.85 35.456 605.538 35.328C605.234 35.2 604.898 35.136 604.53 35.136H602.91V40.452H604.614ZM592.124 48.6H594.068L597.644 57H595.628L593.036 50.496L590.432 57H588.464L592.124 48.6ZM590.504 53.844H595.46V55.32H590.504V53.844ZM602.093 48.6C603.157 48.6 603.981 48.856 604.565 49.368C605.157 49.872 605.453 50.584 605.453 51.504C605.453 52.472 605.157 53.228 604.565 53.772C603.981 54.308 603.157 54.576 602.093 54.576H599.597L600.425 53.748V57H598.529V48.6H602.093ZM601.997 53.04C602.525 53.04 602.933 52.92 603.221 52.68C603.509 52.432 603.653 52.06 603.653 51.564C603.653 51.084 603.509 50.724 603.221 50.484C602.933 50.244 602.525 50.124 601.997 50.124H599.597L600.425 49.296V53.88L599.597 53.04H601.997ZM606.662 48.6H608.558V57H606.662V48.6Z" fill="#1E1D1D"/>
<path d="M448.354 107.854C448.549 107.658 448.549 107.342 448.354 107.146L445.172 103.964C444.976 103.769 444.66 103.769 444.464 103.964C444.269 104.16 444.269 104.476 444.464 104.672L447.293 107.5L444.464 110.328C444.269 110.524 444.269 110.84 444.464 111.036C444.66 111.231 444.976 111.231 445.172 111.036L448.354 107.854ZM299.5 108L448 108V107L299.5 107V108Z" fill="#1E1D1D"/>
<path d="M325.371 115.24C325.164 115.113 324.934 115.013 324.681 114.94C324.427 114.867 324.181 114.83 323.941 114.83C323.647 114.83 323.401 114.89 323.201 115.01C323.001 115.123 322.901 115.31 322.901 115.57C322.901 115.77 322.971 115.93 323.111 116.05C323.257 116.163 323.441 116.26 323.661 116.34C323.887 116.413 324.124 116.487 324.371 116.56C324.617 116.633 324.854 116.727 325.081 116.84C325.307 116.947 325.491 117.097 325.631 117.29C325.771 117.483 325.841 117.737 325.841 118.05C325.841 118.39 325.747 118.67 325.561 118.89C325.381 119.103 325.144 119.263 324.851 119.37C324.564 119.47 324.251 119.52 323.911 119.52C323.537 119.52 323.171 119.457 322.811 119.33C322.451 119.203 322.144 119.023 321.891 118.79L322.191 118.26C322.417 118.467 322.687 118.63 323.001 118.75C323.321 118.863 323.634 118.92 323.941 118.92C324.147 118.92 324.334 118.893 324.501 118.84C324.674 118.78 324.811 118.693 324.911 118.58C325.017 118.46 325.071 118.31 325.071 118.13C325.077 117.91 325.011 117.74 324.871 117.62C324.737 117.493 324.557 117.39 324.331 117.31C324.111 117.23 323.874 117.153 323.621 117.08C323.374 117.007 323.137 116.917 322.911 116.81C322.691 116.697 322.511 116.55 322.371 116.37C322.231 116.183 322.161 115.933 322.161 115.62C322.161 115.293 322.247 115.027 322.421 114.82C322.594 114.613 322.817 114.46 323.091 114.36C323.371 114.26 323.671 114.21 323.991 114.21C324.304 114.21 324.607 114.253 324.901 114.34C325.194 114.42 325.451 114.533 325.671 114.68L325.371 115.24ZM330.962 116.56C330.949 116.207 330.865 115.903 330.712 115.65C330.565 115.39 330.362 115.19 330.102 115.05C329.849 114.91 329.549 114.84 329.202 114.84C328.835 114.84 328.512 114.923 328.232 115.09C327.959 115.257 327.742 115.49 327.582 115.79C327.422 116.09 327.342 116.44 327.342 116.84C327.342 117.253 327.422 117.617 327.582 117.93C327.749 118.237 327.979 118.477 328.272 118.65C328.565 118.823 328.899 118.91 329.272 118.91C329.939 118.91 330.482 118.683 330.902 118.23L331.332 118.66C331.079 118.933 330.772 119.147 330.412 119.3C330.052 119.447 329.655 119.52 329.222 119.52C328.702 119.52 328.242 119.41 327.842 119.19C327.449 118.963 327.142 118.65 326.922 118.25C326.702 117.85 326.592 117.39 326.592 116.87C326.592 116.35 326.702 115.893 326.922 115.5C327.142 115.1 327.449 114.79 327.842 114.57C328.242 114.343 328.695 114.227 329.202 114.22C329.769 114.22 330.239 114.343 330.612 114.59C330.985 114.83 331.259 115.17 331.432 115.61C331.612 116.043 331.685 116.553 331.652 117.14H327.202V116.56H330.962ZM337.041 116.45C337.041 115.97 336.907 115.597 336.641 115.33C336.381 115.057 336.017 114.92 335.551 114.92C334.991 114.927 334.554 115.117 334.241 115.49C333.927 115.857 333.771 116.333 333.771 116.92H333.501C333.501 116.307 333.594 115.803 333.781 115.41C333.967 115.01 334.234 114.713 334.581 114.52C334.934 114.32 335.347 114.22 335.821 114.22C336.241 114.22 336.601 114.303 336.901 114.47C337.201 114.637 337.427 114.873 337.581 115.18C337.741 115.48 337.821 115.843 337.821 116.27V119.5H337.041V116.45ZM333.001 114.24H333.781V119.5H333.001V114.24ZM341.563 114.21C342.05 114.21 342.473 114.32 342.833 114.54C343.193 114.76 343.47 115.07 343.663 115.47C343.863 115.863 343.96 116.33 343.953 116.87C343.96 117.41 343.863 117.88 343.663 118.28C343.47 118.68 343.193 118.99 342.833 119.21C342.48 119.43 342.06 119.54 341.573 119.54C341.073 119.54 340.63 119.427 340.243 119.2C339.863 118.967 339.567 118.65 339.353 118.25C339.14 117.85 339.033 117.39 339.033 116.87C339.033 116.343 339.14 115.883 339.353 115.49C339.567 115.09 339.863 114.777 340.243 114.55C340.623 114.323 341.063 114.21 341.563 114.21ZM341.713 114.85C341.347 114.85 341.02 114.94 340.733 115.12C340.447 115.293 340.22 115.533 340.053 115.84C339.893 116.14 339.813 116.487 339.813 116.88C339.813 117.273 339.893 117.623 340.053 117.93C340.22 118.23 340.447 118.467 340.733 118.64C341.02 118.813 341.347 118.9 341.713 118.9C342.087 118.9 342.417 118.813 342.703 118.64C342.99 118.467 343.213 118.23 343.373 117.93C343.54 117.623 343.623 117.273 343.623 116.88C343.623 116.487 343.54 116.14 343.373 115.84C343.213 115.533 342.99 115.293 342.703 115.12C342.417 114.94 342.087 114.85 341.713 114.85ZM343.623 112.08H344.403V119.5H343.623V112.08ZM352.442 115.5C352.249 115.307 352.019 115.157 351.752 115.05C351.492 114.937 351.202 114.88 350.882 114.88C350.522 114.88 350.199 114.963 349.912 115.13C349.632 115.297 349.412 115.53 349.252 115.83C349.092 116.13 349.012 116.477 349.012 116.87C349.012 117.263 349.092 117.613 349.252 117.92C349.412 118.22 349.632 118.457 349.912 118.63C350.199 118.797 350.522 118.88 350.882 118.88C351.222 118.88 351.532 118.823 351.812 118.71C352.092 118.59 352.329 118.417 352.522 118.19L352.962 118.63C352.729 118.91 352.432 119.13 352.072 119.29C351.712 119.443 351.306 119.52 350.852 119.52C350.346 119.52 349.896 119.41 349.502 119.19C349.109 118.963 348.799 118.65 348.572 118.25C348.352 117.85 348.242 117.39 348.242 116.87C348.242 116.35 348.352 115.893 348.572 115.5C348.799 115.1 349.109 114.787 349.502 114.56C349.896 114.333 350.346 114.22 350.852 114.22C351.279 114.22 351.662 114.29 352.002 114.43C352.349 114.563 352.642 114.75 352.882 114.99L352.442 115.5ZM356.264 114.22C356.784 114.22 357.244 114.333 357.644 114.56C358.05 114.78 358.367 115.09 358.594 115.49C358.82 115.89 358.934 116.35 358.934 116.87C358.934 117.39 358.82 117.85 358.594 118.25C358.367 118.65 358.05 118.963 357.644 119.19C357.244 119.41 356.784 119.52 356.264 119.52C355.744 119.52 355.28 119.41 354.874 119.19C354.474 118.963 354.16 118.65 353.934 118.25C353.707 117.85 353.594 117.39 353.594 116.87C353.594 116.35 353.707 115.89 353.934 115.49C354.16 115.09 354.474 114.78 354.874 114.56C355.28 114.333 355.744 114.22 356.264 114.22ZM356.264 114.87C355.897 114.87 355.57 114.957 355.284 115.13C354.997 115.297 354.774 115.53 354.614 115.83C354.454 116.13 354.374 116.477 354.374 116.87C354.374 117.27 354.454 117.623 354.614 117.93C354.774 118.23 354.997 118.467 355.284 118.64C355.57 118.807 355.897 118.89 356.264 118.89C356.637 118.89 356.964 118.807 357.244 118.64C357.53 118.467 357.754 118.23 357.914 117.93C358.074 117.623 358.154 117.27 358.154 116.87C358.154 116.477 358.074 116.13 357.914 115.83C357.754 115.53 357.53 115.297 357.244 115.13C356.964 114.957 356.637 114.87 356.264 114.87ZM362.305 114.21C362.792 114.21 363.215 114.32 363.575 114.54C363.935 114.76 364.212 115.07 364.405 115.47C364.605 115.863 364.702 116.33 364.695 116.87C364.702 117.41 364.605 117.88 364.405 118.28C364.212 118.68 363.935 118.99 363.575 119.21C363.222 119.43 362.802 119.54 362.315 119.54C361.815 119.54 361.372 119.427 360.985 119.2C360.605 118.967 360.309 118.65 360.095 118.25C359.882 117.85 359.775 117.39 359.775 116.87C359.775 116.343 359.882 115.883 360.095 115.49C360.309 115.09 360.605 114.777 360.985 114.55C361.365 114.323 361.805 114.21 362.305 114.21ZM362.455 114.85C362.089 114.85 361.762 114.94 361.475 115.12C361.189 115.293 360.962 115.533 360.795 115.84C360.635 116.14 360.555 116.487 360.555 116.88C360.555 117.273 360.635 117.623 360.795 117.93C360.962 118.23 361.189 118.467 361.475 118.64C361.762 118.813 362.089 118.9 362.455 118.9C362.829 118.9 363.159 118.813 363.445 118.64C363.732 118.467 363.955 118.23 364.115 117.93C364.282 117.623 364.365 117.273 364.365 116.88C364.365 116.487 364.282 116.14 364.115 115.84C363.955 115.533 363.732 115.293 363.445 115.12C363.159 114.94 362.829 114.85 362.455 114.85ZM364.365 112.08H365.145V119.5H364.365V112.08ZM370.923 116.56C370.909 116.207 370.826 115.903 370.673 115.65C370.526 115.39 370.323 115.19 370.063 115.05C369.809 114.91 369.509 114.84 369.163 114.84C368.796 114.84 368.473 114.923 368.193 115.09C367.919 115.257 367.703 115.49 367.543 115.79C367.383 116.09 367.303 116.44 367.303 116.84C367.303 117.253 367.383 117.617 367.543 117.93C367.709 118.237 367.939 118.477 368.233 118.65C368.526 118.823 368.859 118.91 369.233 118.91C369.899 118.91 370.443 118.683 370.863 118.23L371.293 118.66C371.039 118.933 370.733 119.147 370.373 119.3C370.013 119.447 369.616 119.52 369.183 119.52C368.663 119.52 368.203 119.41 367.803 119.19C367.409 118.963 367.103 118.65 366.883 118.25C366.663 117.85 366.553 117.39 366.553 116.87C366.553 116.35 366.663 115.893 366.883 115.5C367.103 115.1 367.409 114.79 367.803 114.57C368.203 114.343 368.656 114.227 369.163 114.22C369.729 114.22 370.199 114.343 370.573 114.59C370.946 114.83 371.219 115.17 371.393 115.61C371.573 116.043 371.646 116.553 371.613 117.14H367.163V116.56H370.923ZM377.013 117.03C376.573 117.03 376.24 117.103 376.013 117.25C375.787 117.397 375.673 117.62 375.673 117.92C375.673 118.22 375.78 118.463 375.993 118.65C376.213 118.83 376.51 118.92 376.883 118.92C377.19 118.92 377.467 118.87 377.713 118.77C377.96 118.67 378.163 118.527 378.323 118.34C378.49 118.153 378.603 117.927 378.663 117.66L378.863 118.29C378.677 118.71 378.4 119.023 378.033 119.23C377.667 119.43 377.233 119.53 376.733 119.53C376.373 119.53 376.057 119.46 375.783 119.32C375.517 119.18 375.31 118.99 375.163 118.75C375.017 118.51 374.943 118.24 374.943 117.94C374.943 117.487 375.117 117.127 375.463 116.86C375.81 116.593 376.293 116.457 376.913 116.45H378.783V117.03H377.013ZM378.643 116.1C378.643 115.7 378.523 115.39 378.283 115.17C378.05 114.95 377.7 114.84 377.233 114.84C376.94 114.84 376.657 114.893 376.383 115C376.11 115.107 375.837 115.257 375.563 115.45L375.233 114.94C375.46 114.787 375.68 114.657 375.893 114.55C376.107 114.443 376.333 114.363 376.573 114.31C376.813 114.25 377.083 114.22 377.383 114.22C378.037 114.22 378.537 114.383 378.883 114.71C379.23 115.03 379.407 115.47 379.413 116.03L379.423 119.5H378.663L378.643 116.1ZM385.205 116.45C385.205 115.97 385.072 115.597 384.805 115.33C384.545 115.057 384.182 114.92 383.715 114.92C383.155 114.927 382.718 115.117 382.405 115.49C382.092 115.857 381.935 116.333 381.935 116.92H381.665C381.665 116.307 381.758 115.803 381.945 115.41C382.132 115.01 382.398 114.713 382.745 114.52C383.098 114.32 383.512 114.22 383.985 114.22C384.405 114.22 384.765 114.303 385.065 114.47C385.365 114.637 385.592 114.873 385.745 115.18C385.905 115.48 385.985 115.843 385.985 116.27V119.5H385.205V116.45ZM381.165 114.24H381.945V119.5H381.165V114.24ZM389.727 114.21C390.214 114.21 390.637 114.32 390.997 114.54C391.357 114.76 391.634 115.07 391.827 115.47C392.027 115.863 392.124 116.33 392.117 116.87C392.124 117.41 392.027 117.88 391.827 118.28C391.634 118.68 391.357 118.99 390.997 119.21C390.644 119.43 390.224 119.54 389.737 119.54C389.237 119.54 388.794 119.427 388.407 119.2C388.027 118.967 387.731 118.65 387.517 118.25C387.304 117.85 387.197 117.39 387.197 116.87C387.197 116.343 387.304 115.883 387.517 115.49C387.731 115.09 388.027 114.777 388.407 114.55C388.787 114.323 389.227 114.21 389.727 114.21ZM389.877 114.85C389.511 114.85 389.184 114.94 388.897 115.12C388.611 115.293 388.384 115.533 388.217 115.84C388.057 116.14 387.977 116.487 387.977 116.88C387.977 117.273 388.057 117.623 388.217 117.93C388.384 118.23 388.611 118.467 388.897 118.64C389.184 118.813 389.511 118.9 389.877 118.9C390.251 118.9 390.581 118.813 390.867 118.64C391.154 118.467 391.377 118.23 391.537 117.93C391.704 117.623 391.787 117.273 391.787 116.88C391.787 116.487 391.704 116.14 391.537 115.84C391.377 115.533 391.154 115.293 390.867 115.12C390.581 114.94 390.251 114.85 389.877 114.85ZM391.787 112.08H392.567V119.5H391.787V112.08ZM400.606 115.5C400.413 115.307 400.183 115.157 399.916 115.05C399.656 114.937 399.366 114.88 399.046 114.88C398.686 114.88 398.363 114.963 398.076 115.13C397.796 115.297 397.576 115.53 397.416 115.83C397.256 116.13 397.176 116.477 397.176 116.87C397.176 117.263 397.256 117.613 397.416 117.92C397.576 118.22 397.796 118.457 398.076 118.63C398.363 118.797 398.686 118.88 399.046 118.88C399.386 118.88 399.696 118.823 399.976 118.71C400.256 118.59 400.493 118.417 400.686 118.19L401.126 118.63C400.893 118.91 400.596 119.13 400.236 119.29C399.876 119.443 399.47 119.52 399.016 119.52C398.51 119.52 398.06 119.41 397.666 119.19C397.273 118.963 396.963 118.65 396.736 118.25C396.516 117.85 396.406 117.39 396.406 116.87C396.406 116.35 396.516 115.893 396.736 115.5C396.963 115.1 397.273 114.787 397.666 114.56C398.06 114.333 398.51 114.22 399.016 114.22C399.443 114.22 399.826 114.29 400.166 114.43C400.513 114.563 400.806 114.75 401.046 114.99L400.606 115.5ZM402.592 112.08H403.372V119.5H402.592V112.08ZM405.315 114.24H406.085V119.5H405.315V114.24ZM405.695 112.23C405.842 112.23 405.962 112.28 406.055 112.38C406.155 112.473 406.205 112.593 406.205 112.74C406.205 112.88 406.155 113 406.055 113.1C405.962 113.2 405.842 113.25 405.695 113.25C405.555 113.25 405.435 113.2 405.335 113.1C405.235 113 405.185 112.88 405.185 112.74C405.185 112.593 405.235 112.473 405.335 112.38C405.435 112.28 405.555 112.23 405.695 112.23ZM411.821 116.56C411.808 116.207 411.725 115.903 411.571 115.65C411.425 115.39 411.221 115.19 410.961 115.05C410.708 114.91 410.408 114.84 410.061 114.84C409.695 114.84 409.371 114.923 409.091 115.09C408.818 115.257 408.601 115.49 408.441 115.79C408.281 116.09 408.201 116.44 408.201 116.84C408.201 117.253 408.281 117.617 408.441 117.93C408.608 118.237 408.838 118.477 409.131 118.65C409.425 118.823 409.758 118.91 410.131 118.91C410.798 118.91 411.341 118.683 411.761 118.23L412.191 118.66C411.938 118.933 411.631 119.147 411.271 119.3C410.911 119.447 410.515 119.52 410.081 119.52C409.561 119.52 409.101 119.41 408.701 119.19C408.308 118.963 408.001 118.65 407.781 118.25C407.561 117.85 407.451 117.39 407.451 116.87C407.451 116.35 407.561 115.893 407.781 115.5C408.001 115.1 408.308 114.79 408.701 114.57C409.101 114.343 409.555 114.227 410.061 114.22C410.628 114.22 411.098 114.343 411.471 114.59C411.845 114.83 412.118 115.17 412.291 115.61C412.471 116.043 412.545 116.553 412.511 117.14H408.061V116.56H411.821ZM417.9 116.45C417.9 115.97 417.767 115.597 417.5 115.33C417.24 115.057 416.877 114.92 416.41 114.92C415.85 114.927 415.413 115.117 415.1 115.49C414.787 115.857 414.63 116.333 414.63 116.92H414.36C414.36 116.307 414.453 115.803 414.64 115.41C414.827 115.01 415.093 114.713 415.44 114.52C415.793 114.32 416.207 114.22 416.68 114.22C417.1 114.22 417.46 114.303 417.76 114.47C418.06 114.637 418.287 114.873 418.44 115.18C418.6 115.48 418.68 115.843 418.68 116.27V119.5H417.9V116.45ZM413.86 114.24H414.64V119.5H413.86V114.24ZM421.383 117.92C421.383 118.253 421.443 118.493 421.563 118.64C421.683 118.78 421.856 118.85 422.083 118.85C422.216 118.843 422.353 118.82 422.493 118.78C422.633 118.733 422.776 118.663 422.923 118.57L423.143 119.14C422.963 119.26 422.769 119.357 422.563 119.43C422.363 119.497 422.159 119.53 421.953 119.53C421.693 119.53 421.463 119.48 421.263 119.38C421.063 119.273 420.903 119.11 420.783 118.89C420.669 118.67 420.613 118.387 420.613 118.04V113.04H421.383V117.92ZM419.853 114.4H423.053V114.98H419.853V114.4ZM324.137 127.5C323.943 127.307 323.713 127.157 323.447 127.05C323.187 126.937 322.897 126.88 322.577 126.88C322.217 126.88 321.893 126.963 321.607 127.13C321.327 127.297 321.107 127.53 320.947 127.83C320.787 128.13 320.707 128.477 320.707 128.87C320.707 129.263 320.787 129.613 320.947 129.92C321.107 130.22 321.327 130.457 321.607 130.63C321.893 130.797 322.217 130.88 322.577 130.88C322.917 130.88 323.227 130.823 323.507 130.71C323.787 130.59 324.023 130.417 324.217 130.19L324.657 130.63C324.423 130.91 324.127 131.13 323.767 131.29C323.407 131.443 323 131.52 322.547 131.52C322.04 131.52 321.59 131.41 321.197 131.19C320.803 130.963 320.493 130.65 320.267 130.25C320.047 129.85 319.937 129.39 319.937 128.87C319.937 128.35 320.047 127.893 320.267 127.5C320.493 127.1 320.803 126.787 321.197 126.56C321.59 126.333 322.04 126.22 322.547 126.22C322.973 126.22 323.357 126.29 323.697 126.43C324.043 126.563 324.337 126.75 324.577 126.99L324.137 127.5ZM328.742 126.93C328.349 126.923 328.009 127.007 327.722 127.18C327.442 127.347 327.225 127.583 327.072 127.89C326.919 128.19 326.842 128.543 326.842 128.95L326.572 128.92C326.572 128.347 326.659 127.86 326.832 127.46C327.005 127.06 327.255 126.753 327.582 126.54C327.909 126.327 328.295 126.22 328.742 126.22V126.93ZM326.072 126.24H326.852V131.5H326.072V126.24ZM333.633 128.56C333.619 128.207 333.536 127.903 333.383 127.65C333.236 127.39 333.033 127.19 332.773 127.05C332.519 126.91 332.219 126.84 331.873 126.84C331.506 126.84 331.183 126.923 330.903 127.09C330.629 127.257 330.413 127.49 330.253 127.79C330.093 128.09 330.013 128.44 330.013 128.84C330.013 129.253 330.093 129.617 330.253 129.93C330.419 130.237 330.649 130.477 330.943 130.65C331.236 130.823 331.569 130.91 331.943 130.91C332.609 130.91 333.153 130.683 333.573 130.23L334.003 130.66C333.749 130.933 333.443 131.147 333.083 131.3C332.723 131.447 332.326 131.52 331.893 131.52C331.373 131.52 330.913 131.41 330.513 131.19C330.119 130.963 329.813 130.65 329.593 130.25C329.373 129.85 329.263 129.39 329.263 128.87C329.263 128.35 329.373 127.893 329.593 127.5C329.813 127.1 330.119 126.79 330.513 126.57C330.913 126.343 331.366 126.227 331.873 126.22C332.439 126.22 332.909 126.343 333.283 126.59C333.656 126.83 333.929 127.17 334.103 127.61C334.283 128.043 334.356 128.553 334.323 129.14H329.873V128.56H333.633ZM337.672 126.21C338.158 126.21 338.582 126.32 338.942 126.54C339.302 126.76 339.578 127.07 339.772 127.47C339.972 127.863 340.068 128.33 340.062 128.87C340.068 129.41 339.972 129.88 339.772 130.28C339.578 130.68 339.302 130.99 338.942 131.21C338.588 131.43 338.168 131.54 337.682 131.54C337.182 131.54 336.738 131.427 336.352 131.2C335.972 130.967 335.675 130.65 335.462 130.25C335.248 129.85 335.142 129.39 335.142 128.87C335.142 128.343 335.248 127.883 335.462 127.49C335.675 127.09 335.972 126.777 336.352 126.55C336.732 126.323 337.172 126.21 337.672 126.21ZM337.822 126.85C337.455 126.85 337.128 126.94 336.842 127.12C336.555 127.293 336.328 127.533 336.162 127.84C336.002 128.14 335.922 128.487 335.922 128.88C335.922 129.273 336.002 129.623 336.162 129.93C336.328 130.23 336.555 130.467 336.842 130.64C337.128 130.813 337.455 130.9 337.822 130.9C338.195 130.9 338.525 130.813 338.812 130.64C339.098 130.467 339.322 130.23 339.482 129.93C339.648 129.623 339.732 129.273 339.732 128.88C339.732 128.487 339.648 128.14 339.482 127.84C339.322 127.533 339.098 127.293 338.812 127.12C338.525 126.94 338.195 126.85 337.822 126.85ZM339.732 124.08H340.512V131.5H339.732V124.08ZM346.289 128.56C346.276 128.207 346.192 127.903 346.039 127.65C345.892 127.39 345.689 127.19 345.429 127.05C345.176 126.91 344.876 126.84 344.529 126.84C344.162 126.84 343.839 126.923 343.559 127.09C343.286 127.257 343.069 127.49 342.909 127.79C342.749 128.09 342.669 128.44 342.669 128.84C342.669 129.253 342.749 129.617 342.909 129.93C343.076 130.237 343.306 130.477 343.599 130.65C343.892 130.823 344.226 130.91 344.599 130.91C345.266 130.91 345.809 130.683 346.229 130.23L346.659 130.66C346.406 130.933 346.099 131.147 345.739 131.3C345.379 131.447 344.982 131.52 344.549 131.52C344.029 131.52 343.569 131.41 343.169 131.19C342.776 130.963 342.469 130.65 342.249 130.25C342.029 129.85 341.919 129.39 341.919 128.87C341.919 128.35 342.029 127.893 342.249 127.5C342.469 127.1 342.776 126.79 343.169 126.57C343.569 126.343 344.022 126.227 344.529 126.22C345.096 126.22 345.566 126.343 345.939 126.59C346.312 126.83 346.586 127.17 346.759 127.61C346.939 128.043 347.012 128.553 346.979 129.14H342.529V128.56H346.289ZM352.368 128.45C352.368 127.97 352.235 127.597 351.968 127.33C351.708 127.057 351.345 126.92 350.878 126.92C350.318 126.927 349.881 127.117 349.568 127.49C349.255 127.857 349.098 128.333 349.098 128.92H348.828C348.828 128.307 348.921 127.803 349.108 127.41C349.295 127.01 349.561 126.713 349.908 126.52C350.261 126.32 350.675 126.22 351.148 126.22C351.568 126.22 351.928 126.303 352.228 126.47C352.528 126.637 352.755 126.873 352.908 127.18C353.068 127.48 353.148 127.843 353.148 128.27V131.5H352.368V128.45ZM348.328 126.24H349.108V131.5H348.328V126.24ZM355.85 129.92C355.85 130.253 355.91 130.493 356.03 130.64C356.15 130.78 356.324 130.85 356.55 130.85C356.684 130.843 356.82 130.82 356.96 130.78C357.1 130.733 357.244 130.663 357.39 130.57L357.61 131.14C357.43 131.26 357.237 131.357 357.03 131.43C356.83 131.497 356.627 131.53 356.42 131.53C356.16 131.53 355.93 131.48 355.73 131.38C355.53 131.273 355.37 131.11 355.25 130.89C355.137 130.67 355.08 130.387 355.08 130.04V125.04H355.85V129.92ZM354.32 126.4H357.52V126.98H354.32V126.4ZM358.777 126.24H359.547V131.5H358.777V126.24ZM359.157 124.23C359.304 124.23 359.424 124.28 359.517 124.38C359.617 124.473 359.667 124.593 359.667 124.74C359.667 124.88 359.617 125 359.517 125.1C359.424 125.2 359.304 125.25 359.157 125.25C359.017 125.25 358.897 125.2 358.797 125.1C358.697 125 358.647 124.88 358.647 124.74C358.647 124.593 358.697 124.473 358.797 124.38C358.897 124.28 359.017 124.23 359.157 124.23ZM363.063 129.03C362.623 129.03 362.29 129.103 362.063 129.25C361.836 129.397 361.723 129.62 361.723 129.92C361.723 130.22 361.83 130.463 362.043 130.65C362.263 130.83 362.56 130.92 362.933 130.92C363.24 130.92 363.516 130.87 363.763 130.77C364.01 130.67 364.213 130.527 364.373 130.34C364.54 130.153 364.653 129.927 364.713 129.66L364.913 130.29C364.726 130.71 364.45 131.023 364.083 131.23C363.716 131.43 363.283 131.53 362.783 131.53C362.423 131.53 362.106 131.46 361.833 131.32C361.566 131.18 361.36 130.99 361.213 130.75C361.066 130.51 360.993 130.24 360.993 129.94C360.993 129.487 361.166 129.127 361.513 128.86C361.86 128.593 362.343 128.457 362.963 128.45H364.833V129.03H363.063ZM364.693 128.1C364.693 127.7 364.573 127.39 364.333 127.17C364.1 126.95 363.75 126.84 363.283 126.84C362.99 126.84 362.706 126.893 362.433 127C362.16 127.107 361.886 127.257 361.613 127.45L361.283 126.94C361.51 126.787 361.73 126.657 361.943 126.55C362.156 126.443 362.383 126.363 362.623 126.31C362.863 126.25 363.133 126.22 363.433 126.22C364.086 126.22 364.586 126.383 364.933 126.71C365.28 127.03 365.456 127.47 365.463 128.03L365.473 131.5H364.713L364.693 128.1ZM367.265 124.08H368.045V131.5H367.265V124.08ZM372.768 127.24C372.561 127.113 372.331 127.013 372.078 126.94C371.825 126.867 371.578 126.83 371.338 126.83C371.045 126.83 370.798 126.89 370.598 127.01C370.398 127.123 370.298 127.31 370.298 127.57C370.298 127.77 370.368 127.93 370.508 128.05C370.655 128.163 370.838 128.26 371.058 128.34C371.285 128.413 371.521 128.487 371.768 128.56C372.015 128.633 372.251 128.727 372.478 128.84C372.705 128.947 372.888 129.097 373.028 129.29C373.168 129.483 373.238 129.737 373.238 130.05C373.238 130.39 373.145 130.67 372.958 130.89C372.778 131.103 372.541 131.263 372.248 131.37C371.961 131.47 371.648 131.52 371.308 131.52C370.935 131.52 370.568 131.457 370.208 131.33C369.848 131.203 369.541 131.023 369.288 130.79L369.588 130.26C369.815 130.467 370.085 130.63 370.398 130.75C370.718 130.863 371.031 130.92 371.338 130.92C371.545 130.92 371.731 130.893 371.898 130.84C372.071 130.78 372.208 130.693 372.308 130.58C372.415 130.46 372.468 130.31 372.468 130.13C372.475 129.91 372.408 129.74 372.268 129.62C372.135 129.493 371.955 129.39 371.728 129.31C371.508 129.23 371.271 129.153 371.018 129.08C370.771 129.007 370.535 128.917 370.308 128.81C370.088 128.697 369.908 128.55 369.768 128.37C369.628 128.183 369.558 127.933 369.558 127.62C369.558 127.293 369.645 127.027 369.818 126.82C369.991 126.613 370.215 126.46 370.488 126.36C370.768 126.26 371.068 126.21 371.388 126.21C371.701 126.21 372.005 126.253 372.298 126.34C372.591 126.42 372.848 126.533 373.068 126.68L372.768 127.24ZM378.731 124.08C378.364 124.64 378.078 125.293 377.871 126.04C377.671 126.78 377.571 127.57 377.571 128.41C377.571 129.25 377.671 130.043 377.871 130.79C378.078 131.53 378.364 132.18 378.731 132.74H378.011C377.631 132.18 377.338 131.53 377.131 130.79C376.931 130.043 376.831 129.25 376.831 128.41C376.831 127.57 376.931 126.78 377.131 126.04C377.338 125.293 377.631 124.64 378.011 124.08H378.731ZM380.889 129.92C380.889 130.253 380.949 130.493 381.069 130.64C381.189 130.78 381.363 130.85 381.589 130.85C381.723 130.843 381.859 130.82 381.999 130.78C382.139 130.733 382.283 130.663 382.429 130.57L382.649 131.14C382.469 131.26 382.276 131.357 382.069 131.43C381.869 131.497 381.666 131.53 381.459 131.53C381.199 131.53 380.969 131.48 380.769 131.38C380.569 131.273 380.409 131.11 380.289 130.89C380.176 130.67 380.119 130.387 380.119 130.04V125.04H380.889V129.92ZM379.359 126.4H382.559V126.98H379.359V126.4ZM385.878 126.22C386.398 126.22 386.858 126.333 387.258 126.56C387.665 126.78 387.981 127.09 388.208 127.49C388.435 127.89 388.548 128.35 388.548 128.87C388.548 129.39 388.435 129.85 388.208 130.25C387.981 130.65 387.665 130.963 387.258 131.19C386.858 131.41 386.398 131.52 385.878 131.52C385.358 131.52 384.895 131.41 384.488 131.19C384.088 130.963 383.775 130.65 383.548 130.25C383.321 129.85 383.208 129.39 383.208 128.87C383.208 128.35 383.321 127.89 383.548 127.49C383.775 127.09 384.088 126.78 384.488 126.56C384.895 126.333 385.358 126.22 385.878 126.22ZM385.878 126.87C385.511 126.87 385.185 126.957 384.898 127.13C384.611 127.297 384.388 127.53 384.228 127.83C384.068 128.13 383.988 128.477 383.988 128.87C383.988 129.27 384.068 129.623 384.228 129.93C384.388 130.23 384.611 130.467 384.898 130.64C385.185 130.807 385.511 130.89 385.878 130.89C386.251 130.89 386.578 130.807 386.858 130.64C387.145 130.467 387.368 130.23 387.528 129.93C387.688 129.623 387.768 129.27 387.768 128.87C387.768 128.477 387.688 128.13 387.528 127.83C387.368 127.53 387.145 127.297 386.858 127.13C386.578 126.957 386.251 126.87 385.878 126.87ZM394.411 123.29H395.091L391.971 132.73H391.291L394.411 123.29ZM396.485 129.92C396.485 130.253 396.545 130.493 396.665 130.64C396.785 130.78 396.959 130.85 397.185 130.85C397.319 130.843 397.455 130.82 397.595 130.78C397.735 130.733 397.879 130.663 398.025 130.57L398.245 131.14C398.065 131.26 397.872 131.357 397.665 131.43C397.465 131.497 397.262 131.53 397.055 131.53C396.795 131.53 396.565 131.48 396.365 131.38C396.165 131.273 396.005 131.11 395.885 130.89C395.772 130.67 395.715 130.387 395.715 130.04V125.04H396.485V129.92ZM394.955 126.4H398.155V126.98H394.955V126.4ZM401.474 126.22C401.994 126.22 402.454 126.333 402.854 126.56C403.26 126.78 403.577 127.09 403.804 127.49C404.03 127.89 404.144 128.35 404.144 128.87C404.144 129.39 404.03 129.85 403.804 130.25C403.577 130.65 403.26 130.963 402.854 131.19C402.454 131.41 401.994 131.52 401.474 131.52C400.954 131.52 400.49 131.41 400.084 131.19C399.684 130.963 399.37 130.65 399.144 130.25C398.917 129.85 398.804 129.39 398.804 128.87C398.804 128.35 398.917 127.89 399.144 127.49C399.37 127.09 399.684 126.78 400.084 126.56C400.49 126.333 400.954 126.22 401.474 126.22ZM401.474 126.87C401.107 126.87 400.78 126.957 400.494 127.13C400.207 127.297 399.984 127.53 399.824 127.83C399.664 128.13 399.584 128.477 399.584 128.87C399.584 129.27 399.664 129.623 399.824 129.93C399.984 130.23 400.207 130.467 400.494 130.64C400.78 130.807 401.107 130.89 401.474 130.89C401.847 130.89 402.174 130.807 402.454 130.64C402.74 130.467 402.964 130.23 403.124 129.93C403.284 129.623 403.364 129.27 403.364 128.87C403.364 128.477 403.284 128.13 403.124 127.83C402.964 127.53 402.74 127.297 402.454 127.13C402.174 126.957 401.847 126.87 401.474 126.87ZM405.565 124.08H406.345V131.5H405.565V124.08ZM409.055 126.24H409.975L406.265 130.07V129.11L409.055 126.24ZM407.905 128.14L410.185 131.5H409.255L407.325 128.61L407.905 128.14ZM414.853 128.56C414.84 128.207 414.757 127.903 414.603 127.65C414.457 127.39 414.253 127.19 413.993 127.05C413.74 126.91 413.44 126.84 413.093 126.84C412.727 126.84 412.403 126.923 412.123 127.09C411.85 127.257 411.633 127.49 411.473 127.79C411.313 128.09 411.233 128.44 411.233 128.84C411.233 129.253 411.313 129.617 411.473 129.93C411.64 130.237 411.87 130.477 412.163 130.65C412.457 130.823 412.79 130.91 413.163 130.91C413.83 130.91 414.373 130.683 414.793 130.23L415.223 130.66C414.97 130.933 414.663 131.147 414.303 131.3C413.943 131.447 413.547 131.52 413.113 131.52C412.593 131.52 412.133 131.41 411.733 131.19C411.34 130.963 411.033 130.65 410.813 130.25C410.593 129.85 410.483 129.39 410.483 128.87C410.483 128.35 410.593 127.893 410.813 127.5C411.033 127.1 411.34 126.79 411.733 126.57C412.133 126.343 412.587 126.227 413.093 126.22C413.66 126.22 414.13 126.343 414.503 126.59C414.877 126.83 415.15 127.17 415.323 127.61C415.503 128.043 415.577 128.553 415.543 129.14H411.093V128.56H414.853ZM420.932 128.45C420.932 127.97 420.799 127.597 420.532 127.33C420.272 127.057 419.909 126.92 419.442 126.92C418.882 126.927 418.446 127.117 418.132 127.49C417.819 127.857 417.662 128.333 417.662 128.92H417.392C417.392 128.307 417.486 127.803 417.672 127.41C417.859 127.01 418.126 126.713 418.472 126.52C418.826 126.32 419.239 126.22 419.712 126.22C420.132 126.22 420.492 126.303 420.792 126.47C421.092 126.637 421.319 126.873 421.472 127.18C421.632 127.48 421.712 127.843 421.712 128.27V131.5H420.932V128.45ZM416.892 126.24H417.672V131.5H416.892V126.24ZM422.755 124.08H423.475C423.855 124.64 424.145 125.293 424.345 126.04C424.552 126.78 424.655 127.57 424.655 128.41C424.655 129.25 424.552 130.043 424.345 130.79C424.145 131.53 423.855 132.18 423.475 132.74H422.755C423.122 132.18 423.405 131.53 423.605 130.79C423.812 130.043 423.915 129.25 423.915 128.41C423.915 127.57 423.812 126.78 423.605 126.04C423.405 125.293 423.122 124.64 422.755 124.08Z" fill="#1E1D1D"/>
<path d="M299.146 149.146C298.951 149.342 298.951 149.658 299.146 149.854L302.328 153.036C302.524 153.231 302.84 153.231 303.036 153.036C303.231 152.84 303.231 152.524 303.036 152.328L300.207 149.5L303.036 146.672C303.231 146.476 303.231 146.16 303.036 145.964C302.84 145.769 302.524 145.769 302.328 145.964L299.146 149.146ZM448 149H299.5V150H448V149Z" fill="#1E1D1D"/>
<path d="M313.107 159.03C312.667 159.03 312.334 159.103 312.107 159.25C311.88 159.397 311.767 159.62 311.767 159.92C311.767 160.22 311.874 160.463 312.087 160.65C312.307 160.83 312.604 160.92 312.977 160.92C313.284 160.92 313.56 160.87 313.807 160.77C314.054 160.67 314.257 160.527 314.417 160.34C314.584 160.153 314.697 159.927 314.757 159.66L314.957 160.29C314.77 160.71 314.494 161.023 314.127 161.23C313.76 161.43 313.327 161.53 312.827 161.53C312.467 161.53 312.15 161.46 311.877 161.32C311.61 161.18 311.404 160.99 311.257 160.75C311.11 160.51 311.037 160.24 311.037 159.94C311.037 159.487 311.21 159.127 311.557 158.86C311.904 158.593 312.387 158.457 313.007 158.45H314.877V159.03H313.107ZM314.737 158.1C314.737 157.7 314.617 157.39 314.377 157.17C314.144 156.95 313.794 156.84 313.327 156.84C313.034 156.84 312.75 156.893 312.477 157C312.204 157.107 311.93 157.257 311.657 157.45L311.327 156.94C311.554 156.787 311.774 156.657 311.987 156.55C312.2 156.443 312.427 156.363 312.667 156.31C312.907 156.25 313.177 156.22 313.477 156.22C314.13 156.22 314.63 156.383 314.977 156.71C315.324 157.03 315.5 157.47 315.507 158.03L315.517 161.5H314.757L314.737 158.1ZM320.929 157.5C320.735 157.307 320.505 157.157 320.239 157.05C319.979 156.937 319.689 156.88 319.369 156.88C319.009 156.88 318.685 156.963 318.399 157.13C318.119 157.297 317.899 157.53 317.739 157.83C317.579 158.13 317.499 158.477 317.499 158.87C317.499 159.263 317.579 159.613 317.739 159.92C317.899 160.22 318.119 160.457 318.399 160.63C318.685 160.797 319.009 160.88 319.369 160.88C319.709 160.88 320.019 160.823 320.299 160.71C320.579 160.59 320.815 160.417 321.009 160.19L321.449 160.63C321.215 160.91 320.919 161.13 320.559 161.29C320.199 161.443 319.792 161.52 319.339 161.52C318.832 161.52 318.382 161.41 317.989 161.19C317.595 160.963 317.285 160.65 317.059 160.25C316.839 159.85 316.729 159.39 316.729 158.87C316.729 158.35 316.839 157.893 317.059 157.5C317.285 157.1 317.595 156.787 317.989 156.56C318.382 156.333 318.832 156.22 319.339 156.22C319.765 156.22 320.149 156.29 320.489 156.43C320.835 156.563 321.129 156.75 321.369 156.99L320.929 157.5ZM326.28 157.5C326.087 157.307 325.857 157.157 325.59 157.05C325.33 156.937 325.04 156.88 324.72 156.88C324.36 156.88 324.037 156.963 323.75 157.13C323.47 157.297 323.25 157.53 323.09 157.83C322.93 158.13 322.85 158.477 322.85 158.87C322.85 159.263 322.93 159.613 323.09 159.92C323.25 160.22 323.47 160.457 323.75 160.63C324.037 160.797 324.36 160.88 324.72 160.88C325.06 160.88 325.37 160.823 325.65 160.71C325.93 160.59 326.167 160.417 326.36 160.19L326.8 160.63C326.567 160.91 326.27 161.13 325.91 161.29C325.55 161.443 325.143 161.52 324.69 161.52C324.183 161.52 323.733 161.41 323.34 161.19C322.947 160.963 322.637 160.65 322.41 160.25C322.19 159.85 322.08 159.39 322.08 158.87C322.08 158.35 322.19 157.893 322.41 157.5C322.637 157.1 322.947 156.787 323.34 156.56C323.733 156.333 324.183 156.22 324.69 156.22C325.117 156.22 325.5 156.29 325.84 156.43C326.187 156.563 326.48 156.75 326.72 156.99L326.28 157.5ZM331.802 158.56C331.788 158.207 331.705 157.903 331.552 157.65C331.405 157.39 331.202 157.19 330.942 157.05C330.688 156.91 330.388 156.84 330.042 156.84C329.675 156.84 329.352 156.923 329.072 157.09C328.798 157.257 328.582 157.49 328.422 157.79C328.262 158.09 328.182 158.44 328.182 158.84C328.182 159.253 328.262 159.617 328.422 159.93C328.588 160.237 328.818 160.477 329.112 160.65C329.405 160.823 329.738 160.91 330.112 160.91C330.778 160.91 331.322 160.683 331.742 160.23L332.172 160.66C331.918 160.933 331.612 161.147 331.252 161.3C330.892 161.447 330.495 161.52 330.062 161.52C329.542 161.52 329.082 161.41 328.682 161.19C328.288 160.963 327.982 160.65 327.762 160.25C327.542 159.85 327.432 159.39 327.432 158.87C327.432 158.35 327.542 157.893 327.762 157.5C327.982 157.1 328.288 156.79 328.682 156.57C329.082 156.343 329.535 156.227 330.042 156.22C330.608 156.22 331.078 156.343 331.452 156.59C331.825 156.83 332.098 157.17 332.272 157.61C332.452 158.043 332.525 158.553 332.492 159.14H328.042V158.56H331.802ZM336.621 157.24C336.414 157.113 336.184 157.013 335.931 156.94C335.677 156.867 335.431 156.83 335.191 156.83C334.897 156.83 334.651 156.89 334.451 157.01C334.251 157.123 334.151 157.31 334.151 157.57C334.151 157.77 334.221 157.93 334.361 158.05C334.507 158.163 334.691 158.26 334.911 158.34C335.137 158.413 335.374 158.487 335.621 158.56C335.867 158.633 336.104 158.727 336.331 158.84C336.557 158.947 336.741 159.097 336.881 159.29C337.021 159.483 337.091 159.737 337.091 160.05C337.091 160.39 336.997 160.67 336.811 160.89C336.631 161.103 336.394 161.263 336.101 161.37C335.814 161.47 335.501 161.52 335.161 161.52C334.787 161.52 334.421 161.457 334.061 161.33C333.701 161.203 333.394 161.023 333.141 160.79L333.441 160.26C333.667 160.467 333.937 160.63 334.251 160.75C334.571 160.863 334.884 160.92 335.191 160.92C335.397 160.92 335.584 160.893 335.751 160.84C335.924 160.78 336.061 160.693 336.161 160.58C336.267 160.46 336.321 160.31 336.321 160.13C336.327 159.91 336.261 159.74 336.121 159.62C335.987 159.493 335.807 159.39 335.581 159.31C335.361 159.23 335.124 159.153 334.871 159.08C334.624 159.007 334.387 158.917 334.161 158.81C333.941 158.697 333.761 158.55 333.621 158.37C333.481 158.183 333.411 157.933 333.411 157.62C333.411 157.293 333.497 157.027 333.671 156.82C333.844 156.613 334.067 156.46 334.341 156.36C334.621 156.26 334.921 156.21 335.241 156.21C335.554 156.21 335.857 156.253 336.151 156.34C336.444 156.42 336.701 156.533 336.921 156.68L336.621 157.24ZM341.152 157.24C340.945 157.113 340.715 157.013 340.462 156.94C340.209 156.867 339.962 156.83 339.722 156.83C339.429 156.83 339.182 156.89 338.982 157.01C338.782 157.123 338.682 157.31 338.682 157.57C338.682 157.77 338.752 157.93 338.892 158.05C339.039 158.163 339.222 158.26 339.442 158.34C339.669 158.413 339.905 158.487 340.152 158.56C340.399 158.633 340.635 158.727 340.862 158.84C341.089 158.947 341.272 159.097 341.412 159.29C341.552 159.483 341.622 159.737 341.622 160.05C341.622 160.39 341.529 160.67 341.342 160.89C341.162 161.103 340.925 161.263 340.632 161.37C340.345 161.47 340.032 161.52 339.692 161.52C339.319 161.52 338.952 161.457 338.592 161.33C338.232 161.203 337.925 161.023 337.672 160.79L337.972 160.26C338.199 160.467 338.469 160.63 338.782 160.75C339.102 160.863 339.415 160.92 339.722 160.92C339.929 160.92 340.115 160.893 340.282 160.84C340.455 160.78 340.592 160.693 340.692 160.58C340.799 160.46 340.852 160.31 340.852 160.13C340.859 159.91 340.792 159.74 340.652 159.62C340.519 159.493 340.339 159.39 340.112 159.31C339.892 159.23 339.655 159.153 339.402 159.08C339.155 159.007 338.919 158.917 338.692 158.81C338.472 158.697 338.292 158.55 338.152 158.37C338.012 158.183 337.942 157.933 337.942 157.62C337.942 157.293 338.029 157.027 338.202 156.82C338.375 156.613 338.599 156.46 338.872 156.36C339.152 156.26 339.452 156.21 339.772 156.21C340.085 156.21 340.389 156.253 340.682 156.34C340.975 156.42 341.232 156.533 341.452 156.68L341.152 157.24ZM346.955 159.03C346.515 159.03 346.181 159.103 345.955 159.25C345.728 159.397 345.615 159.62 345.615 159.92C345.615 160.22 345.721 160.463 345.935 160.65C346.155 160.83 346.451 160.92 346.825 160.92C347.131 160.92 347.408 160.87 347.655 160.77C347.901 160.67 348.105 160.527 348.265 160.34C348.431 160.153 348.545 159.927 348.605 159.66L348.805 160.29C348.618 160.71 348.341 161.023 347.975 161.23C347.608 161.43 347.175 161.53 346.675 161.53C346.315 161.53 345.998 161.46 345.725 161.32C345.458 161.18 345.251 160.99 345.105 160.75C344.958 160.51 344.885 160.24 344.885 159.94C344.885 159.487 345.058 159.127 345.405 158.86C345.751 158.593 346.235 158.457 346.855 158.45H348.725V159.03H346.955ZM348.585 158.1C348.585 157.7 348.465 157.39 348.225 157.17C347.991 156.95 347.641 156.84 347.175 156.84C346.881 156.84 346.598 156.893 346.325 157C346.051 157.107 345.778 157.257 345.505 157.45L345.175 156.94C345.401 156.787 345.621 156.657 345.835 156.55C346.048 156.443 346.275 156.363 346.515 156.31C346.755 156.25 347.025 156.22 347.325 156.22C347.978 156.22 348.478 156.383 348.825 156.71C349.171 157.03 349.348 157.47 349.355 158.03L349.365 161.5H348.605L348.585 158.1ZM355.146 158.45C355.146 157.97 355.013 157.597 354.746 157.33C354.486 157.057 354.123 156.92 353.656 156.92C353.096 156.927 352.66 157.117 352.346 157.49C352.033 157.857 351.876 158.333 351.876 158.92H351.606C351.606 158.307 351.7 157.803 351.886 157.41C352.073 157.01 352.34 156.713 352.686 156.52C353.04 156.32 353.453 156.22 353.926 156.22C354.346 156.22 354.706 156.303 355.006 156.47C355.306 156.637 355.533 156.873 355.686 157.18C355.846 157.48 355.926 157.843 355.926 158.27V161.5H355.146V158.45ZM351.106 156.24H351.886V161.5H351.106V156.24ZM359.669 156.21C360.155 156.21 360.579 156.32 360.939 156.54C361.299 156.76 361.575 157.07 361.769 157.47C361.969 157.863 362.065 158.33 362.059 158.87C362.065 159.41 361.969 159.88 361.769 160.28C361.575 160.68 361.299 160.99 360.939 161.21C360.585 161.43 360.165 161.54 359.679 161.54C359.179 161.54 358.735 161.427 358.349 161.2C357.969 160.967 357.672 160.65 357.459 160.25C357.245 159.85 357.139 159.39 357.139 158.87C357.139 158.343 357.245 157.883 357.459 157.49C357.672 157.09 357.969 156.777 358.349 156.55C358.729 156.323 359.169 156.21 359.669 156.21ZM359.819 156.85C359.452 156.85 359.125 156.94 358.839 157.12C358.552 157.293 358.325 157.533 358.159 157.84C357.999 158.14 357.919 158.487 357.919 158.88C357.919 159.273 357.999 159.623 358.159 159.93C358.325 160.23 358.552 160.467 358.839 160.64C359.125 160.813 359.452 160.9 359.819 160.9C360.192 160.9 360.522 160.813 360.809 160.64C361.095 160.467 361.319 160.23 361.479 159.93C361.645 159.623 361.729 159.273 361.729 158.88C361.729 158.487 361.645 158.14 361.479 157.84C361.319 157.533 361.095 157.293 360.809 157.12C360.522 156.94 360.192 156.85 359.819 156.85ZM361.729 154.08H362.509V161.5H361.729V154.08ZM369.548 156.93C369.154 156.923 368.814 157.007 368.528 157.18C368.248 157.347 368.031 157.583 367.878 157.89C367.724 158.19 367.648 158.543 367.648 158.95L367.378 158.92C367.378 158.347 367.464 157.86 367.638 157.46C367.811 157.06 368.061 156.753 368.388 156.54C368.714 156.327 369.101 156.22 369.548 156.22V156.93ZM366.878 156.24H367.658V161.5H366.878V156.24ZM374.438 158.56C374.425 158.207 374.342 157.903 374.188 157.65C374.042 157.39 373.838 157.19 373.578 157.05C373.325 156.91 373.025 156.84 372.678 156.84C372.312 156.84 371.988 156.923 371.708 157.09C371.435 157.257 371.218 157.49 371.058 157.79C370.898 158.09 370.818 158.44 370.818 158.84C370.818 159.253 370.898 159.617 371.058 159.93C371.225 160.237 371.455 160.477 371.748 160.65C372.042 160.823 372.375 160.91 372.748 160.91C373.415 160.91 373.958 160.683 374.378 160.23L374.808 160.66C374.555 160.933 374.248 161.147 373.888 161.3C373.528 161.447 373.132 161.52 372.698 161.52C372.178 161.52 371.718 161.41 371.318 161.19C370.925 160.963 370.618 160.65 370.398 160.25C370.178 159.85 370.068 159.39 370.068 158.87C370.068 158.35 370.178 157.893 370.398 157.5C370.618 157.1 370.925 156.79 371.318 156.57C371.718 156.343 372.172 156.227 372.678 156.22C373.245 156.22 373.715 156.343 374.088 156.59C374.462 156.83 374.735 157.17 374.908 157.61C375.088 158.043 375.162 158.553 375.128 159.14H370.678V158.56H374.438ZM376.608 155.76C376.608 155.38 376.685 155.06 376.838 154.8C376.998 154.54 377.208 154.343 377.468 154.21C377.728 154.07 378.001 154.003 378.288 154.01C378.441 154.01 378.595 154.033 378.748 154.08C378.908 154.12 379.055 154.177 379.188 154.25L378.998 154.85C378.898 154.803 378.788 154.763 378.668 154.73C378.555 154.69 378.435 154.67 378.308 154.67C378.141 154.67 377.985 154.71 377.838 154.79C377.698 154.863 377.585 154.977 377.498 155.13C377.418 155.277 377.378 155.457 377.378 155.67V161.5H376.608V155.76ZM375.928 156.4H378.888V156.98H375.928V156.4ZM382.438 156.93C382.045 156.923 381.705 157.007 381.418 157.18C381.138 157.347 380.922 157.583 380.768 157.89C380.615 158.19 380.538 158.543 380.538 158.95L380.268 158.92C380.268 158.347 380.355 157.86 380.528 157.46C380.702 157.06 380.952 156.753 381.278 156.54C381.605 156.327 381.992 156.22 382.438 156.22V156.93ZM379.768 156.24H380.548V161.5H379.768V156.24ZM387.329 158.56C387.316 158.207 387.232 157.903 387.079 157.65C386.932 157.39 386.729 157.19 386.469 157.05C386.216 156.91 385.916 156.84 385.569 156.84C385.202 156.84 384.879 156.923 384.599 157.09C384.326 157.257 384.109 157.49 383.949 157.79C383.789 158.09 383.709 158.44 383.709 158.84C383.709 159.253 383.789 159.617 383.949 159.93C384.116 160.237 384.346 160.477 384.639 160.65C384.932 160.823 385.266 160.91 385.639 160.91C386.306 160.91 386.849 160.683 387.269 160.23L387.699 160.66C387.446 160.933 387.139 161.147 386.779 161.3C386.419 161.447 386.022 161.52 385.589 161.52C385.069 161.52 384.609 161.41 384.209 161.19C383.816 160.963 383.509 160.65 383.289 160.25C383.069 159.85 382.959 159.39 382.959 158.87C382.959 158.35 383.069 157.893 383.289 157.5C383.509 157.1 383.816 156.79 384.209 156.57C384.609 156.343 385.062 156.227 385.569 156.22C386.136 156.22 386.606 156.343 386.979 156.59C387.352 156.83 387.626 157.17 387.799 157.61C387.979 158.043 388.052 158.553 388.019 159.14H383.569V158.56H387.329ZM392.148 157.24C391.941 157.113 391.711 157.013 391.458 156.94C391.205 156.867 390.958 156.83 390.718 156.83C390.425 156.83 390.178 156.89 389.978 157.01C389.778 157.123 389.678 157.31 389.678 157.57C389.678 157.77 389.748 157.93 389.888 158.05C390.035 158.163 390.218 158.26 390.438 158.34C390.665 158.413 390.901 158.487 391.148 158.56C391.395 158.633 391.631 158.727 391.858 158.84C392.085 158.947 392.268 159.097 392.408 159.29C392.548 159.483 392.618 159.737 392.618 160.05C392.618 160.39 392.525 160.67 392.338 160.89C392.158 161.103 391.921 161.263 391.628 161.37C391.341 161.47 391.028 161.52 390.688 161.52C390.315 161.52 389.948 161.457 389.588 161.33C389.228 161.203 388.921 161.023 388.668 160.79L388.968 160.26C389.195 160.467 389.465 160.63 389.778 160.75C390.098 160.863 390.411 160.92 390.718 160.92C390.925 160.92 391.111 160.893 391.278 160.84C391.451 160.78 391.588 160.693 391.688 160.58C391.795 160.46 391.848 160.31 391.848 160.13C391.855 159.91 391.788 159.74 391.648 159.62C391.515 159.493 391.335 159.39 391.108 159.31C390.888 159.23 390.651 159.153 390.398 159.08C390.151 159.007 389.915 158.917 389.688 158.81C389.468 158.697 389.288 158.55 389.148 158.37C389.008 158.183 388.938 157.933 388.938 157.62C388.938 157.293 389.025 157.027 389.198 156.82C389.371 156.613 389.595 156.46 389.868 156.36C390.148 156.26 390.448 156.21 390.768 156.21C391.081 156.21 391.385 156.253 391.678 156.34C391.971 156.42 392.228 156.533 392.448 156.68L392.148 157.24ZM397.999 158.45C397.999 157.97 397.866 157.597 397.599 157.33C397.339 157.057 396.976 156.92 396.509 156.92C395.949 156.927 395.513 157.117 395.199 157.49C394.886 157.857 394.729 158.333 394.729 158.92H394.459C394.459 158.307 394.553 157.803 394.739 157.41C394.926 157.01 395.193 156.713 395.539 156.52C395.893 156.32 396.306 156.22 396.779 156.22C397.199 156.22 397.559 156.303 397.859 156.47C398.159 156.637 398.386 156.873 398.539 157.18C398.699 157.48 398.779 157.843 398.779 158.27V161.5H397.999V158.45ZM393.949 154.08H394.729V161.5H393.949V154.08ZM403.912 159.92C403.912 160.253 403.972 160.493 404.092 160.64C404.212 160.78 404.385 160.85 404.612 160.85C404.745 160.843 404.882 160.82 405.022 160.78C405.162 160.733 405.305 160.663 405.452 160.57L405.672 161.14C405.492 161.26 405.299 161.357 405.092 161.43C404.892 161.497 404.689 161.53 404.482 161.53C404.222 161.53 403.992 161.48 403.792 161.38C403.592 161.273 403.432 161.11 403.312 160.89C403.199 160.67 403.142 160.387 403.142 160.04V155.04H403.912V159.92ZM402.382 156.4H405.582V156.98H402.382V156.4ZM408.901 156.22C409.421 156.22 409.881 156.333 410.281 156.56C410.687 156.78 411.004 157.09 411.231 157.49C411.457 157.89 411.571 158.35 411.571 158.87C411.571 159.39 411.457 159.85 411.231 160.25C411.004 160.65 410.687 160.963 410.281 161.19C409.881 161.41 409.421 161.52 408.901 161.52C408.381 161.52 407.917 161.41 407.511 161.19C407.111 160.963 406.797 160.65 406.571 160.25C406.344 159.85 406.231 159.39 406.231 158.87C406.231 158.35 406.344 157.89 406.571 157.49C406.797 157.09 407.111 156.78 407.511 156.56C407.917 156.333 408.381 156.22 408.901 156.22ZM408.901 156.87C408.534 156.87 408.207 156.957 407.921 157.13C407.634 157.297 407.411 157.53 407.251 157.83C407.091 158.13 407.011 158.477 407.011 158.87C407.011 159.27 407.091 159.623 407.251 159.93C407.411 160.23 407.634 160.467 407.921 160.64C408.207 160.807 408.534 160.89 408.901 160.89C409.274 160.89 409.601 160.807 409.881 160.64C410.167 160.467 410.391 160.23 410.551 159.93C410.711 159.623 410.791 159.27 410.791 158.87C410.791 158.477 410.711 158.13 410.551 157.83C410.391 157.53 410.167 157.297 409.881 157.13C409.601 156.957 409.274 156.87 408.901 156.87ZM412.992 154.08H413.772V161.5H412.992V154.08ZM416.482 156.24H417.402L413.692 160.07V159.11L416.482 156.24ZM415.332 158.14L417.612 161.5H416.682L414.752 158.61L415.332 158.14ZM422.28 158.56C422.267 158.207 422.184 157.903 422.03 157.65C421.884 157.39 421.68 157.19 421.42 157.05C421.167 156.91 420.867 156.84 420.52 156.84C420.154 156.84 419.83 156.923 419.55 157.09C419.277 157.257 419.06 157.49 418.9 157.79C418.74 158.09 418.66 158.44 418.66 158.84C418.66 159.253 418.74 159.617 418.9 159.93C419.067 160.237 419.297 160.477 419.59 160.65C419.884 160.823 420.217 160.91 420.59 160.91C421.257 160.91 421.8 160.683 422.22 160.23L422.65 160.66C422.397 160.933 422.09 161.147 421.73 161.3C421.37 161.447 420.974 161.52 420.54 161.52C420.02 161.52 419.56 161.41 419.16 161.19C418.767 160.963 418.46 160.65 418.24 160.25C418.02 159.85 417.91 159.39 417.91 158.87C417.91 158.35 418.02 157.893 418.24 157.5C418.46 157.1 418.767 156.79 419.16 156.57C419.56 156.343 420.014 156.227 420.52 156.22C421.087 156.22 421.557 156.343 421.93 156.59C422.304 156.83 422.577 157.17 422.75 157.61C422.93 158.043 423.004 158.553 422.97 159.14H418.52V158.56H422.28ZM428.359 158.45C428.359 157.97 428.226 157.597 427.959 157.33C427.699 157.057 427.336 156.92 426.869 156.92C426.309 156.927 425.872 157.117 425.559 157.49C425.246 157.857 425.089 158.333 425.089 158.92H424.819C424.819 158.307 424.912 157.803 425.099 157.41C425.286 157.01 425.552 156.713 425.899 156.52C426.252 156.32 426.666 156.22 427.139 156.22C427.559 156.22 427.919 156.303 428.219 156.47C428.519 156.637 428.746 156.873 428.899 157.18C429.059 157.48 429.139 157.843 429.139 158.27V161.5H428.359V158.45ZM424.319 156.24H425.099V161.5H424.319V156.24ZM433.662 157.24C433.455 157.113 433.225 157.013 432.972 156.94C432.718 156.867 432.472 156.83 432.232 156.83C431.938 156.83 431.692 156.89 431.492 157.01C431.292 157.123 431.192 157.31 431.192 157.57C431.192 157.77 431.262 157.93 431.402 158.05C431.548 158.163 431.732 158.26 431.952 158.34C432.178 158.413 432.415 158.487 432.662 158.56C432.908 158.633 433.145 158.727 433.372 158.84C433.598 158.947 433.782 159.097 433.922 159.29C434.062 159.483 434.132 159.737 434.132 160.05C434.132 160.39 434.038 160.67 433.852 160.89C433.672 161.103 433.435 161.263 433.142 161.37C432.855 161.47 432.542 161.52 432.202 161.52C431.828 161.52 431.462 161.457 431.102 161.33C430.742 161.203 430.435 161.023 430.182 160.79L430.482 160.26C430.708 160.467 430.978 160.63 431.292 160.75C431.612 160.863 431.925 160.92 432.232 160.92C432.438 160.92 432.625 160.893 432.792 160.84C432.965 160.78 433.102 160.693 433.202 160.58C433.308 160.46 433.362 160.31 433.362 160.13C433.368 159.91 433.302 159.74 433.162 159.62C433.028 159.493 432.848 159.39 432.622 159.31C432.402 159.23 432.165 159.153 431.912 159.08C431.665 159.007 431.428 158.917 431.202 158.81C430.982 158.697 430.802 158.55 430.662 158.37C430.522 158.183 430.452 157.933 430.452 157.62C430.452 157.293 430.538 157.027 430.712 156.82C430.885 156.613 431.108 156.46 431.382 156.36C431.662 156.26 431.962 156.21 432.282 156.21C432.595 156.21 432.898 156.253 433.192 156.34C433.485 156.42 433.742 156.533 433.962 156.68L433.662 157.24Z" fill="#1E1D1D"/>
<defs>
<clipPath id="clip0_184_2720">
<rect width="451" height="129"  transform="translate(148 66)"/>
</clipPath>
</defs>
</svg>
