<svg width="439" height="185" viewBox="0 0 439 185" fill="none" xmlns="http://www.w3.org/2000/svg">
<path d="M143.706 65.9631C137.793 62.4249 131.034 59.0551 123.43 55.8538C115.827 52.6525 108.392 50.041 101.127 48.0191C94.0301 45.9973 87.8628 44.9863 82.6249 44.9863C79.4145 44.9863 76.7955 45.576 74.7679 46.7555C72.7403 47.9349 71.7265 49.9567 71.7265 52.821C71.7265 56.1908 73.3317 58.9709 76.542 61.1612C79.9214 63.1831 84.3145 64.9522 89.7215 66.4686C95.2974 67.985 101.38 69.6699 107.97 71.5232C114.56 73.2081 121.065 75.3984 127.486 78.0943C134.075 80.6216 140.074 83.9071 145.481 87.9508C151.056 91.9945 155.45 97.2177 158.66 103.62C162.039 110.023 163.729 117.857 163.729 127.124C163.729 140.435 160.265 151.387 153.338 159.98C146.41 168.404 137.286 174.722 125.965 178.934C114.644 182.978 102.31 185 88.9611 185C78.6541 185 68.0937 183.905 57.2798 181.714C46.6349 179.356 36.4124 176.07 26.6123 171.858C16.8122 167.477 7.94145 162.254 0 156.189L21.7967 111.96C27.8796 117.184 35.0607 121.901 43.34 126.113C51.6194 130.326 59.8988 133.695 68.1782 136.223C76.4576 138.75 83.5542 140.014 89.468 140.014C93.8612 140.014 97.325 139.255 99.8595 137.739C102.394 136.054 103.661 133.527 103.661 130.157C103.661 126.787 101.972 124.092 98.5922 122.07C95.3819 119.879 90.9887 118.026 85.4128 116.51C80.0059 114.993 74.0075 113.477 67.4178 111.96C60.8281 110.276 54.2384 108.254 47.6487 105.895C41.2279 103.367 35.2296 100.166 29.6537 96.291C24.2468 92.2473 19.8536 87.1926 16.4743 81.127C13.2639 75.0615 11.6587 67.4795 11.6587 58.3811C11.6587 46.4185 14.7846 36.0565 21.0364 27.2951C27.2882 18.5337 36.0745 11.7942 47.3952 7.0765C58.885 2.35883 72.3179 0 87.6939 0C101.718 0 115.573 1.93761 129.26 5.81284C143.115 9.68807 155.027 14.827 164.996 21.2295L143.706 65.9631Z" fill="#0C0C0C"/>
<path d="M178.952 4.54918H237.752V181.714H178.952V4.54918Z" fill="#0C0C0C"/>
<path d="M342.435 4.54918C357.135 4.54918 370.399 6.65528 382.227 10.8675C394.055 14.9112 404.193 20.8083 412.641 28.5587C421.089 36.3092 427.595 45.6603 432.157 56.612C436.719 67.3953 439 79.5264 439 93.0055C439 106.485 436.634 118.7 431.903 129.652C427.341 140.435 420.752 149.786 412.134 157.705C403.517 165.455 393.125 171.437 380.96 175.649C368.794 179.693 355.192 181.714 340.154 181.714H263.105V4.54918H342.435ZM343.956 136.223C349.363 136.223 354.179 135.212 358.403 133.19C362.627 131.168 366.26 128.304 369.301 124.597C372.511 120.89 374.877 116.425 376.398 111.202C378.087 105.979 378.932 100.082 378.932 93.5109C378.932 86.9399 378.003 81.0428 376.144 75.8197C374.455 70.428 371.92 65.7946 368.541 61.9194C365.33 58.0442 361.36 55.0956 356.629 53.0738C352.066 51.0519 346.913 50.041 341.168 50.041H321.906V136.223H343.956Z" fill="#0C0C0C"/>
</svg>
