<svg width="660" height="187" viewBox="0 0 660 187" fill="none" xmlns="http://www.w3.org/2000/svg">
<rect x="0.5" y="0.5" width="659" height="185.5" fill="#0C0C0C"/>
<rect x="0.5" y="0.5" width="659" height="185.5" stroke="black"/>
<rect x="20.75" y="77.25" width="618.5" height="88.5" fill="#0C0C0C" stroke="white" stroke-width="1.5"/>
<path d="M28.488 138.287C29.552 138.287 30.376 138.543 30.96 139.055C31.552 139.559 31.848 140.271 31.848 141.191C31.848 142.159 31.552 142.915 30.96 143.459C30.376 143.995 29.552 144.263 28.488 144.263H25.992L26.82 143.435V146.688H24.924V138.287H28.488ZM28.392 142.727C28.92 142.727 29.328 142.607 29.616 142.367C29.904 142.119 30.048 141.747 30.048 141.251C30.048 140.771 29.904 140.411 29.616 140.171C29.328 139.931 28.92 139.811 28.392 139.811H25.992L26.82 138.983V143.567L25.992 142.727H28.392ZM37.6888 143.16C37.6888 142.735 37.5728 142.403 37.3408 142.163C37.1168 141.923 36.8088 141.803 36.4168 141.803C35.9528 141.811 35.5888 141.975 35.3248 142.295C35.0608 142.615 34.9288 143.019 34.9288 143.507H34.4728C34.4728 142.755 34.5808 142.135 34.7968 141.647C35.0128 141.151 35.3208 140.783 35.7208 140.543C36.1288 140.295 36.6088 140.171 37.1608 140.171C37.6488 140.171 38.0688 140.275 38.4208 140.483C38.7808 140.683 39.0568 140.967 39.2488 141.335C39.4408 141.703 39.5368 142.139 39.5368 142.643V146.688H37.6888V143.16ZM33.0808 137.783H34.9288V146.688H33.0808V137.783ZM43.3985 143.891C43.0465 143.891 42.7825 143.951 42.6065 144.071C42.4305 144.191 42.3425 144.383 42.3425 144.647C42.3425 144.903 42.4305 145.107 42.6065 145.259C42.7905 145.403 43.0385 145.475 43.3505 145.475C43.6225 145.475 43.8625 145.431 44.0705 145.343C44.2865 145.247 44.4625 145.123 44.5985 144.971C44.7425 144.811 44.8305 144.627 44.8625 144.419L45.1385 145.451C44.9545 145.883 44.6665 146.211 44.2745 146.435C43.8825 146.659 43.4025 146.772 42.8345 146.772C42.3785 146.772 41.9825 146.683 41.6465 146.507C41.3185 146.331 41.0625 146.091 40.8785 145.787C40.7025 145.483 40.6145 145.139 40.6145 144.755C40.6145 144.155 40.8265 143.683 41.2505 143.339C41.6745 142.995 42.2825 142.819 43.0745 142.811H45.0425V143.891H43.3985ZM44.8505 142.691C44.8505 142.339 44.7345 142.063 44.5025 141.863C44.2785 141.663 43.9465 141.563 43.5065 141.563C43.2185 141.563 42.9105 141.615 42.5825 141.719C42.2545 141.815 41.9225 141.955 41.5865 142.139L41.0105 140.939C41.3305 140.771 41.6425 140.632 41.9465 140.52C42.2505 140.408 42.5625 140.323 42.8825 140.267C43.2025 140.203 43.5505 140.171 43.9265 140.171C44.7985 140.171 45.4705 140.375 45.9425 140.783C46.4145 141.191 46.6545 141.755 46.6625 142.475L46.6745 146.688H44.8625L44.8505 142.691ZM52.3349 142.091C51.9829 141.899 51.6349 141.751 51.2909 141.647C50.9469 141.535 50.6389 141.479 50.3669 141.479C50.1509 141.479 49.9709 141.519 49.8269 141.599C49.6909 141.679 49.6229 141.807 49.6229 141.983C49.6229 142.151 49.7029 142.287 49.8629 142.391C50.0309 142.487 50.2429 142.571 50.4989 142.643C50.7629 142.715 51.0389 142.799 51.3269 142.895C51.6149 142.983 51.8869 143.099 52.1429 143.243C52.4069 143.387 52.6189 143.583 52.7789 143.831C52.9389 144.071 53.0189 144.383 53.0189 144.767C53.0189 145.199 52.9029 145.567 52.6709 145.871C52.4389 146.167 52.1229 146.391 51.7229 146.543C51.3229 146.688 50.8789 146.76 50.3909 146.76C49.8709 146.76 49.3669 146.683 48.8789 146.531C48.3909 146.379 47.9629 146.155 47.5949 145.859L48.1949 144.659C48.5309 144.915 48.8989 145.115 49.2989 145.259C49.7069 145.395 50.0869 145.463 50.4389 145.463C50.5989 145.463 50.7389 145.443 50.8589 145.403C50.9789 145.363 51.0749 145.303 51.1469 145.223C51.2189 145.143 51.2549 145.044 51.2549 144.924C51.2549 144.747 51.1749 144.607 51.0149 144.503C50.8549 144.391 50.6469 144.299 50.3909 144.227C50.1349 144.147 49.8629 144.067 49.5749 143.987C49.2869 143.899 49.0149 143.783 48.7589 143.639C48.5109 143.495 48.3069 143.307 48.1469 143.075C47.9869 142.835 47.9069 142.527 47.9069 142.151C47.9069 141.703 48.0229 141.335 48.2549 141.047C48.4869 140.751 48.7949 140.531 49.1789 140.387C49.5629 140.243 49.9869 140.171 50.4509 140.171C50.8989 140.171 51.3389 140.231 51.7709 140.352C52.2109 140.471 52.6109 140.643 52.9709 140.867L52.3349 142.091ZM58.4672 142.943C58.4592 142.647 58.3952 142.395 58.2752 142.187C58.1632 141.971 57.9992 141.803 57.7832 141.683C57.5672 141.563 57.3192 141.503 57.0392 141.503C56.7272 141.503 56.4552 141.583 56.2232 141.743C55.9912 141.903 55.8112 142.123 55.6832 142.403C55.5552 142.683 55.4912 143.007 55.4912 143.375C55.4912 143.791 55.5632 144.147 55.7072 144.443C55.8512 144.739 56.0552 144.967 56.3192 145.127C56.5832 145.287 56.8872 145.367 57.2312 145.367C57.8552 145.367 58.3992 145.135 58.8632 144.671L59.8352 145.631C59.5152 145.991 59.1192 146.267 58.6472 146.459C58.1832 146.651 57.6592 146.748 57.0752 146.748C56.3872 146.748 55.7912 146.611 55.2872 146.339C54.7832 146.067 54.3912 145.687 54.1112 145.199C53.8392 144.703 53.7032 144.131 53.7032 143.483C53.7032 142.819 53.8432 142.243 54.1232 141.755C54.4032 141.259 54.7912 140.875 55.2872 140.603C55.7912 140.331 56.3712 140.191 57.0272 140.183C57.7872 140.183 58.4072 140.343 58.8872 140.663C59.3752 140.975 59.7272 141.419 59.9432 141.995C60.1672 142.563 60.2512 143.239 60.1952 144.023H55.2272V142.943H58.4672ZM67.3257 142.199C67.5977 141.927 67.8177 141.651 67.9857 141.371C68.1537 141.091 68.2377 140.843 68.2377 140.628C68.2377 140.347 68.1337 140.131 67.9257 139.979C67.7257 139.827 67.4457 139.751 67.0857 139.751C66.7257 139.751 66.3377 139.847 65.9217 140.039C65.5137 140.223 65.1217 140.475 64.7457 140.795L64.0017 139.427C64.5217 139.051 65.0617 138.755 65.6217 138.539C66.1897 138.315 66.7697 138.203 67.3617 138.203C67.9217 138.203 68.4137 138.291 68.8377 138.467C69.2697 138.643 69.6057 138.895 69.8457 139.223C70.0937 139.543 70.2177 139.923 70.2177 140.363C70.2177 140.803 70.0657 141.259 69.7617 141.731C69.4657 142.195 69.0817 142.667 68.6097 143.147L66.0777 145.739L65.8377 145.163H70.5297V146.688H64.2177V145.427L67.3257 142.199ZM72.3259 141.371C72.5979 141.371 72.8179 141.459 72.9859 141.635C73.1619 141.803 73.2499 142.023 73.2499 142.295C73.2499 142.567 73.1619 142.791 72.9859 142.967C72.8179 143.143 72.5979 143.231 72.3259 143.231C72.0619 143.231 71.8419 143.143 71.6659 142.967C71.4899 142.791 71.4019 142.567 71.4019 142.295C71.4019 142.023 71.4899 141.803 71.6659 141.635C71.8419 141.459 72.0619 141.371 72.3259 141.371ZM72.3259 144.935C72.5979 144.935 72.8179 145.023 72.9859 145.199C73.1619 145.367 73.2499 145.587 73.2499 145.859C73.2499 146.131 73.1619 146.355 72.9859 146.531C72.8179 146.708 72.5979 146.796 72.3259 146.796C72.0619 146.796 71.8419 146.708 71.6659 146.531C71.4899 146.355 71.4019 146.131 71.4019 145.859C71.4019 145.587 71.4899 145.367 71.6659 145.199C71.8419 145.023 72.0619 144.935 72.3259 144.935ZM31.356 155.087C31.036 154.759 30.656 154.503 30.216 154.319C29.784 154.127 29.336 154.031 28.872 154.031C28.4 154.031 27.956 154.119 27.54 154.295C27.124 154.471 26.76 154.719 26.448 155.039C26.136 155.351 25.892 155.715 25.716 156.131C25.54 156.547 25.452 156.995 25.452 157.475C25.452 157.947 25.54 158.391 25.716 158.807C25.892 159.223 26.136 159.587 26.448 159.899C26.76 160.211 27.124 160.459 27.54 160.643C27.956 160.819 28.4 160.907 28.872 160.907C29.336 160.907 29.78 160.819 30.204 160.643C30.636 160.459 31.02 160.207 31.356 159.887L31.944 160.487C31.672 160.743 31.364 160.967 31.02 161.159C30.684 161.351 30.332 161.499 29.964 161.603C29.596 161.707 29.216 161.76 28.824 161.76C28.216 161.76 27.648 161.651 27.12 161.435C26.6 161.211 26.14 160.903 25.74 160.511C25.348 160.119 25.04 159.663 24.816 159.143C24.592 158.623 24.48 158.067 24.48 157.475C24.48 156.883 24.592 156.331 24.816 155.819C25.04 155.307 25.352 154.855 25.752 154.463C26.152 154.071 26.616 153.767 27.144 153.551C27.672 153.335 28.244 153.227 28.86 153.227C29.244 153.227 29.62 153.275 29.988 153.371C30.356 153.467 30.704 153.607 31.032 153.791C31.36 153.967 31.66 154.183 31.932 154.439L31.356 155.087ZM35.4863 158.723C34.9583 158.723 34.5583 158.811 34.2863 158.987C34.0143 159.163 33.8783 159.431 33.8783 159.791C33.8783 160.151 34.0063 160.443 34.2623 160.667C34.5263 160.883 34.8823 160.991 35.3303 160.991C35.6983 160.991 36.0303 160.931 36.3263 160.811C36.6223 160.691 36.8663 160.519 37.0583 160.295C37.2583 160.071 37.3943 159.799 37.4663 159.479L37.7063 160.235C37.4823 160.739 37.1503 161.115 36.7103 161.363C36.2703 161.603 35.7503 161.724 35.1503 161.724C34.7183 161.724 34.3383 161.639 34.0103 161.471C33.6903 161.303 33.4423 161.075 33.2663 160.787C33.0903 160.499 33.0023 160.175 33.0023 159.815C33.0023 159.271 33.2103 158.839 33.6263 158.52C34.0423 158.199 34.6223 158.035 35.3663 158.027H37.6103V158.723H35.4863ZM37.4423 157.607C37.4423 157.127 37.2983 156.755 37.0103 156.491C36.7303 156.227 36.3103 156.095 35.7503 156.095C35.3983 156.095 35.0583 156.159 34.7303 156.287C34.4023 156.415 34.0743 156.595 33.7463 156.827L33.3503 156.215C33.6223 156.031 33.8863 155.875 34.1423 155.747C34.3983 155.619 34.6703 155.523 34.9583 155.459C35.2463 155.387 35.5703 155.352 35.9303 155.352C36.7143 155.352 37.3143 155.547 37.7303 155.939C38.1463 156.323 38.3583 156.851 38.3663 157.523L38.3783 161.688H37.4663L37.4423 157.607ZM40.5281 152.783H41.4641V161.688H40.5281V152.783ZM43.8563 152.783H44.7923V161.688H43.8563V152.783ZM50.5564 155.352C51.1564 155.352 51.6844 155.487 52.1404 155.759C52.5964 156.031 52.9524 156.407 53.2084 156.887C53.4644 157.367 53.5924 157.919 53.5924 158.543C53.5924 159.159 53.4644 159.707 53.2084 160.188C52.9524 160.667 52.5964 161.043 52.1404 161.315C51.6924 161.579 51.1684 161.712 50.5684 161.712C49.9924 161.712 49.4884 161.583 49.0564 161.327C48.6324 161.063 48.3004 160.695 48.0604 160.223C47.8284 159.743 47.7124 159.183 47.7124 158.543C47.7124 157.895 47.8284 157.331 48.0604 156.851C48.3004 156.371 48.6324 156.003 49.0564 155.747C49.4884 155.483 49.9884 155.352 50.5564 155.352ZM50.3884 156.107C49.9484 156.107 49.5564 156.215 49.2124 156.431C48.8684 156.639 48.6004 156.923 48.4084 157.283C48.2164 157.643 48.1204 158.059 48.1204 158.531C48.1204 158.995 48.2164 159.411 48.4084 159.779C48.6004 160.139 48.8684 160.423 49.2124 160.631C49.5564 160.839 49.9484 160.943 50.3884 160.943C50.8284 160.943 51.2164 160.839 51.5524 160.631C51.8964 160.423 52.1644 160.139 52.3564 159.779C52.5484 159.411 52.6444 158.995 52.6444 158.531C52.6444 158.059 52.5484 157.643 52.3564 157.283C52.1644 156.923 51.8964 156.639 51.5524 156.431C51.2164 156.215 50.8284 156.107 50.3884 156.107ZM47.1844 152.783H48.1204V161.688H47.1844V152.783ZM57.1777 158.723C56.6498 158.723 56.2498 158.811 55.9778 158.987C55.7058 159.163 55.5698 159.431 55.5698 159.791C55.5698 160.151 55.6978 160.443 55.9538 160.667C56.2178 160.883 56.5738 160.991 57.0218 160.991C57.3898 160.991 57.7218 160.931 58.0178 160.811C58.3138 160.691 58.5578 160.519 58.7498 160.295C58.9498 160.071 59.0858 159.799 59.1578 159.479L59.3978 160.235C59.1738 160.739 58.8418 161.115 58.4018 161.363C57.9618 161.603 57.4418 161.724 56.8418 161.724C56.4098 161.724 56.0298 161.639 55.7018 161.471C55.3818 161.303 55.1338 161.075 54.9578 160.787C54.7818 160.499 54.6938 160.175 54.6938 159.815C54.6938 159.271 54.9018 158.839 55.3178 158.52C55.7338 158.199 56.3138 158.035 57.0578 158.027H59.3018V158.723H57.1777ZM59.1338 157.607C59.1338 157.127 58.9898 156.755 58.7018 156.491C58.4218 156.227 58.0018 156.095 57.4418 156.095C57.0898 156.095 56.7498 156.159 56.4218 156.287C56.0938 156.415 55.7658 156.595 55.4378 156.827L55.0418 156.215C55.3138 156.031 55.5778 155.875 55.8338 155.747C56.0898 155.619 56.3618 155.523 56.6498 155.459C56.9378 155.387 57.2618 155.352 57.6217 155.352C58.4058 155.352 59.0058 155.547 59.4218 155.939C59.8378 156.323 60.0498 156.851 60.0578 157.523L60.0698 161.688H59.1578L59.1338 157.607ZM66.5635 156.887C66.3315 156.655 66.0555 156.475 65.7355 156.347C65.4235 156.211 65.0755 156.143 64.6915 156.143C64.2595 156.143 63.8715 156.243 63.5275 156.443C63.1915 156.643 62.9275 156.923 62.7355 157.283C62.5435 157.643 62.4475 158.059 62.4475 158.531C62.4475 159.003 62.5435 159.423 62.7355 159.791C62.9275 160.151 63.1915 160.435 63.5275 160.643C63.8715 160.843 64.2595 160.943 64.6915 160.943C65.0995 160.943 65.4715 160.875 65.8075 160.739C66.1435 160.595 66.4275 160.387 66.6595 160.115L67.1875 160.643C66.9075 160.979 66.5515 161.243 66.1195 161.435C65.6875 161.619 65.1995 161.712 64.6555 161.712C64.0475 161.712 63.5075 161.579 63.0355 161.315C62.5635 161.043 62.1915 160.667 61.9195 160.188C61.6555 159.707 61.5235 159.155 61.5235 158.531C61.5235 157.907 61.6555 157.359 61.9195 156.887C62.1915 156.407 62.5635 156.031 63.0355 155.759C63.5075 155.487 64.0475 155.352 64.6555 155.352C65.1675 155.352 65.6275 155.435 66.0355 155.603C66.4515 155.763 66.8035 155.987 67.0915 156.275L66.5635 156.887ZM68.9461 152.783H69.8821V161.688H68.9461V152.783ZM73.1341 155.375H74.2381L69.7861 159.971V158.819L73.1341 155.375ZM71.7541 157.655L74.4901 161.688H73.3741L71.0581 158.219L71.7541 157.655Z" fill="white"/>
<g clip-path="url(#clip0_184_3253)">
<line x1="148.5" y1="580" x2="148.5" y2="65" stroke="white" stroke-linejoin="bevel" stroke-dasharray="8 8"/>
<line x1="298.5" y1="580" x2="298.5" y2="65" stroke="white" stroke-linejoin="bevel" stroke-dasharray="8 8"/>
<line x1="448.5" y1="580" x2="448.5" y2="65" stroke="white" stroke-linejoin="bevel" stroke-dasharray="8 8"/>
<line x1="598.5" y1="580" x2="598.5" y2="65" stroke="white" stroke-linejoin="bevel" stroke-dasharray="8 8"/>
</g>
<rect x="116.5" y="20.5" width="66" height="49" fill="#0C0C0C"/>
<rect x="116.5" y="20.5" width="66" height="49" stroke="white"/>
<path d="M138.588 45.544C138.588 46.16 138.76 46.648 139.104 47.008C139.448 47.36 139.9 47.536 140.46 47.536C141.004 47.536 141.44 47.36 141.768 47.008C142.104 46.648 142.272 46.16 142.272 45.544V40.6H144.168V45.544C144.168 46.272 144.016 46.908 143.712 47.452C143.416 47.988 142.988 48.404 142.428 48.7C141.876 48.988 141.216 49.132 140.448 49.132C139.68 49.132 139.012 48.988 138.444 48.7C137.884 48.404 137.452 47.988 137.148 47.452C136.844 46.908 136.692 46.272 136.692 45.544V40.6H138.588V45.544ZM149.903 44.404C149.551 44.212 149.203 44.064 148.859 43.96C148.515 43.848 148.207 43.792 147.935 43.792C147.719 43.792 147.539 43.832 147.395 43.912C147.259 43.992 147.191 44.12 147.191 44.296C147.191 44.464 147.271 44.6 147.431 44.704C147.599 44.8 147.811 44.884 148.067 44.956C148.331 45.028 148.607 45.112 148.895 45.208C149.183 45.296 149.455 45.412 149.711 45.556C149.975 45.7 150.187 45.896 150.347 46.144C150.507 46.384 150.587 46.696 150.587 47.08C150.587 47.512 150.471 47.88 150.239 48.184C150.007 48.48 149.691 48.704 149.291 48.856C148.891 49 148.447 49.072 147.959 49.072C147.439 49.072 146.935 48.996 146.447 48.844C145.959 48.692 145.531 48.468 145.163 48.172L145.763 46.972C146.099 47.228 146.467 47.428 146.867 47.572C147.275 47.708 147.655 47.776 148.007 47.776C148.167 47.776 148.307 47.756 148.427 47.716C148.547 47.676 148.643 47.616 148.715 47.536C148.787 47.456 148.823 47.356 148.823 47.236C148.823 47.06 148.743 46.92 148.583 46.816C148.423 46.704 148.215 46.612 147.959 46.54C147.703 46.46 147.431 46.38 147.143 46.3C146.855 46.212 146.583 46.096 146.327 45.952C146.079 45.808 145.875 45.62 145.715 45.388C145.555 45.148 145.475 44.84 145.475 44.464C145.475 44.016 145.591 43.648 145.823 43.36C146.055 43.064 146.363 42.844 146.747 42.7C147.131 42.556 147.555 42.484 148.019 42.484C148.467 42.484 148.907 42.544 149.339 42.664C149.779 42.784 150.179 42.956 150.539 43.18L149.903 44.404ZM156.036 45.256C156.028 44.96 155.964 44.708 155.844 44.5C155.732 44.284 155.568 44.116 155.352 43.996C155.136 43.876 154.888 43.816 154.608 43.816C154.296 43.816 154.024 43.896 153.792 44.056C153.56 44.216 153.38 44.436 153.252 44.716C153.124 44.996 153.06 45.32 153.06 45.688C153.06 46.104 153.132 46.46 153.276 46.756C153.42 47.052 153.624 47.28 153.888 47.44C154.152 47.6 154.456 47.68 154.8 47.68C155.424 47.68 155.968 47.448 156.432 46.984L157.404 47.944C157.084 48.304 156.688 48.58 156.216 48.772C155.752 48.964 155.228 49.06 154.644 49.06C153.956 49.06 153.36 48.924 152.856 48.652C152.352 48.38 151.96 48 151.68 47.512C151.408 47.016 151.272 46.444 151.272 45.796C151.272 45.132 151.412 44.556 151.692 44.068C151.972 43.572 152.36 43.188 152.856 42.916C153.36 42.644 153.94 42.504 154.596 42.496C155.356 42.496 155.976 42.656 156.456 42.976C156.944 43.288 157.296 43.732 157.512 44.308C157.736 44.876 157.82 45.552 157.764 46.336H152.796V45.256H156.036ZM162.968 44.152C162.536 44.112 162.156 44.164 161.828 44.308C161.508 44.452 161.26 44.66 161.084 44.932C160.916 45.204 160.832 45.528 160.832 45.904L160.364 45.82C160.364 45.116 160.468 44.516 160.676 44.02C160.892 43.524 161.196 43.144 161.588 42.88C161.98 42.616 162.44 42.484 162.968 42.484V44.152ZM158.984 42.556H160.832V49H158.984V42.556Z" fill="white"/>
<rect x="228.5" y="20.5" width="140" height="49" fill="#0C0C0C"/>
<rect x="228.5" y="20.5" width="140" height="49" stroke="white"/>
<path d="M248.437 33.6H250.345L252.493 37.428L254.593 33.6H256.501L252.613 40.764H252.361L248.437 33.6ZM251.545 38.364H253.441V42H251.545V38.364ZM259.554 35.496C260.242 35.496 260.846 35.632 261.366 35.904C261.886 36.176 262.29 36.56 262.578 37.056C262.866 37.544 263.01 38.116 263.01 38.772C263.01 39.428 262.866 40.004 262.578 40.5C262.29 40.996 261.886 41.38 261.366 41.652C260.846 41.924 260.242 42.06 259.554 42.06C258.866 42.06 258.258 41.924 257.73 41.652C257.21 41.38 256.806 40.996 256.518 40.5C256.23 40.004 256.086 39.428 256.086 38.772C256.086 38.116 256.23 37.544 256.518 37.056C256.806 36.56 257.21 36.176 257.73 35.904C258.258 35.632 258.866 35.496 259.554 35.496ZM259.554 36.972C259.234 36.972 258.95 37.048 258.702 37.2C258.462 37.352 258.274 37.568 258.138 37.848C258.002 38.12 257.934 38.436 257.934 38.796C257.934 39.156 258.002 39.476 258.138 39.756C258.274 40.028 258.462 40.244 258.702 40.404C258.95 40.556 259.234 40.632 259.554 40.632C259.874 40.632 260.154 40.556 260.394 40.404C260.634 40.244 260.822 40.028 260.958 39.756C261.094 39.476 261.162 39.156 261.162 38.796C261.162 38.436 261.094 38.12 260.958 37.848C260.822 37.568 260.634 37.352 260.394 37.2C260.154 37.048 259.874 36.972 259.554 36.972ZM265.888 39.096C265.888 39.512 265.996 39.84 266.212 40.08C266.428 40.32 266.724 40.44 267.1 40.44C267.548 40.432 267.896 40.268 268.144 39.948C268.4 39.628 268.528 39.224 268.528 38.736H268.972C268.972 39.488 268.864 40.112 268.648 40.608C268.44 41.096 268.14 41.46 267.748 41.7C267.364 41.94 266.904 42.064 266.368 42.072C265.888 42.072 265.476 41.972 265.132 41.772C264.788 41.564 264.52 41.276 264.328 40.908C264.136 40.54 264.04 40.104 264.04 39.6V35.556H265.888V39.096ZM268.528 35.556H270.364V42H268.528V35.556ZM276.138 37.152C275.706 37.112 275.326 37.164 274.998 37.308C274.678 37.452 274.43 37.66 274.254 37.932C274.086 38.204 274.002 38.528 274.002 38.904L273.534 38.82C273.534 38.116 273.638 37.516 273.846 37.02C274.062 36.524 274.366 36.144 274.758 35.88C275.15 35.616 275.61 35.484 276.138 35.484V37.152ZM272.154 35.556H274.002V42H272.154V35.556ZM282.66 39.204C282.308 39.204 282.044 39.264 281.868 39.384C281.692 39.504 281.604 39.696 281.604 39.96C281.604 40.216 281.692 40.42 281.868 40.572C282.052 40.716 282.3 40.788 282.612 40.788C282.884 40.788 283.124 40.744 283.332 40.656C283.548 40.56 283.724 40.436 283.86 40.284C284.004 40.124 284.092 39.94 284.124 39.732L284.4 40.764C284.216 41.196 283.928 41.524 283.536 41.748C283.144 41.972 282.664 42.084 282.096 42.084C281.64 42.084 281.244 41.996 280.908 41.82C280.58 41.644 280.324 41.404 280.14 41.1C279.964 40.796 279.876 40.452 279.876 40.068C279.876 39.468 280.088 38.996 280.512 38.652C280.936 38.308 281.544 38.132 282.336 38.124H284.304V39.204H282.66ZM284.112 38.004C284.112 37.652 283.996 37.376 283.764 37.176C283.54 36.976 283.208 36.876 282.768 36.876C282.48 36.876 282.172 36.928 281.844 37.032C281.516 37.128 281.184 37.268 280.848 37.452L280.272 36.252C280.592 36.084 280.904 35.944 281.208 35.832C281.512 35.72 281.824 35.636 282.144 35.58C282.464 35.516 282.812 35.484 283.188 35.484C284.06 35.484 284.732 35.688 285.204 36.096C285.676 36.504 285.916 37.068 285.924 37.788L285.936 42H284.124L284.112 38.004ZM291.477 35.496C292.085 35.496 292.613 35.636 293.061 35.916C293.517 36.188 293.873 36.572 294.129 37.068C294.385 37.564 294.513 38.144 294.513 38.808C294.513 39.456 294.389 40.024 294.141 40.512C293.893 41 293.545 41.38 293.097 41.652C292.649 41.924 292.121 42.06 291.513 42.06C290.953 42.06 290.473 41.932 290.073 41.676C289.673 41.412 289.365 41.036 289.149 40.548C288.933 40.052 288.825 39.472 288.825 38.808C288.825 38.12 288.929 37.528 289.137 37.032C289.353 36.536 289.657 36.156 290.049 35.892C290.449 35.628 290.925 35.496 291.477 35.496ZM291.045 36.936C290.733 36.936 290.453 37.016 290.205 37.176C289.965 37.328 289.777 37.54 289.641 37.812C289.505 38.084 289.437 38.4 289.437 38.76C289.437 39.12 289.505 39.44 289.641 39.72C289.777 39.992 289.965 40.204 290.205 40.356C290.453 40.508 290.733 40.584 291.045 40.584C291.365 40.584 291.645 40.508 291.885 40.356C292.125 40.204 292.309 39.992 292.437 39.72C292.573 39.44 292.641 39.12 292.641 38.76C292.641 38.408 292.573 38.096 292.437 37.824C292.309 37.544 292.125 37.328 291.885 37.176C291.645 37.016 291.365 36.936 291.045 36.936ZM287.589 35.556H289.437V44.328H287.589V35.556ZM299.68 35.496C300.288 35.496 300.816 35.636 301.264 35.916C301.72 36.188 302.076 36.572 302.332 37.068C302.588 37.564 302.716 38.144 302.716 38.808C302.716 39.456 302.592 40.024 302.344 40.512C302.096 41 301.748 41.38 301.3 41.652C300.852 41.924 300.324 42.06 299.716 42.06C299.156 42.06 298.676 41.932 298.276 41.676C297.876 41.412 297.568 41.036 297.352 40.548C297.136 40.052 297.028 39.472 297.028 38.808C297.028 38.12 297.132 37.528 297.34 37.032C297.556 36.536 297.86 36.156 298.252 35.892C298.652 35.628 299.128 35.496 299.68 35.496ZM299.248 36.936C298.936 36.936 298.656 37.016 298.408 37.176C298.168 37.328 297.98 37.54 297.844 37.812C297.708 38.084 297.64 38.4 297.64 38.76C297.64 39.12 297.708 39.44 297.844 39.72C297.98 39.992 298.168 40.204 298.408 40.356C298.656 40.508 298.936 40.584 299.248 40.584C299.568 40.584 299.848 40.508 300.088 40.356C300.328 40.204 300.512 39.992 300.64 39.72C300.776 39.44 300.844 39.12 300.844 38.76C300.844 38.408 300.776 38.096 300.64 37.824C300.512 37.544 300.328 37.328 300.088 37.176C299.848 37.016 299.568 36.936 299.248 36.936ZM295.792 35.556H297.64V44.328H295.792V35.556ZM303.995 33.096H305.843V42H303.995V33.096ZM307.697 35.556H309.545V42H307.697V35.556ZM308.621 32.712C308.917 32.712 309.157 32.808 309.341 33C309.533 33.192 309.629 33.432 309.629 33.72C309.629 34.008 309.533 34.248 309.341 34.44C309.157 34.632 308.917 34.728 308.621 34.728C308.341 34.728 308.105 34.632 307.913 34.44C307.721 34.248 307.625 34.008 307.625 33.72C307.625 33.432 307.721 33.192 307.913 33C308.105 32.808 308.341 32.712 308.621 32.712ZM315.626 37.692C315.458 37.476 315.25 37.308 315.002 37.188C314.754 37.068 314.47 37.008 314.15 37.008C313.854 37.008 313.59 37.084 313.358 37.236C313.126 37.38 312.942 37.588 312.806 37.86C312.678 38.124 312.614 38.436 312.614 38.796C312.614 39.148 312.678 39.46 312.806 39.732C312.942 40.004 313.126 40.216 313.358 40.368C313.59 40.512 313.854 40.584 314.15 40.584C314.478 40.584 314.77 40.524 315.026 40.404C315.282 40.276 315.49 40.088 315.65 39.84L316.922 40.68C316.65 41.12 316.266 41.46 315.77 41.7C315.282 41.94 314.714 42.06 314.066 42.06C313.41 42.06 312.834 41.924 312.338 41.652C311.842 41.38 311.454 41 311.174 40.512C310.902 40.016 310.766 39.444 310.766 38.796C310.766 38.14 310.902 37.564 311.174 37.068C311.454 36.572 311.842 36.188 312.338 35.916C312.842 35.636 313.418 35.496 314.066 35.496C314.69 35.496 315.242 35.612 315.722 35.844C316.202 36.068 316.586 36.388 316.874 36.804L315.626 37.692ZM320.184 39.204C319.832 39.204 319.568 39.264 319.392 39.384C319.216 39.504 319.128 39.696 319.128 39.96C319.128 40.216 319.216 40.42 319.392 40.572C319.576 40.716 319.824 40.788 320.136 40.788C320.408 40.788 320.648 40.744 320.856 40.656C321.072 40.56 321.248 40.436 321.384 40.284C321.528 40.124 321.616 39.94 321.648 39.732L321.924 40.764C321.74 41.196 321.452 41.524 321.06 41.748C320.668 41.972 320.188 42.084 319.62 42.084C319.164 42.084 318.768 41.996 318.432 41.82C318.104 41.644 317.848 41.404 317.664 41.1C317.488 40.796 317.4 40.452 317.4 40.068C317.4 39.468 317.612 38.996 318.036 38.652C318.46 38.308 319.068 38.132 319.86 38.124H321.828V39.204H320.184ZM321.636 38.004C321.636 37.652 321.52 37.376 321.288 37.176C321.064 36.976 320.732 36.876 320.292 36.876C320.004 36.876 319.696 36.928 319.368 37.032C319.04 37.128 318.708 37.268 318.372 37.452L317.796 36.252C318.116 36.084 318.428 35.944 318.732 35.832C319.036 35.72 319.348 35.636 319.668 35.58C319.988 35.516 320.336 35.484 320.712 35.484C321.584 35.484 322.256 35.688 322.728 36.096C323.2 36.504 323.44 37.068 323.448 37.788L323.46 42H321.648L321.636 38.004ZM327.176 39.804C327.176 40.092 327.232 40.296 327.344 40.416C327.456 40.528 327.608 40.58 327.8 40.572C327.92 40.572 328.052 40.552 328.196 40.512C328.34 40.472 328.496 40.412 328.664 40.332L329.048 41.628C328.808 41.772 328.544 41.884 328.256 41.964C327.968 42.044 327.672 42.084 327.368 42.084C326.984 42.084 326.636 42.012 326.324 41.868C326.02 41.724 325.78 41.504 325.604 41.208C325.428 40.912 325.34 40.544 325.34 40.104V34.056H327.176V39.804ZM324.44 35.832H328.928V37.068H324.44V35.832ZM330.161 35.556H332.009V42H330.161V35.556ZM331.085 32.712C331.381 32.712 331.621 32.808 331.805 33C331.997 33.192 332.093 33.432 332.093 33.72C332.093 34.008 331.997 34.248 331.805 34.44C331.621 34.632 331.381 34.728 331.085 34.728C330.805 34.728 330.569 34.632 330.377 34.44C330.185 34.248 330.089 34.008 330.089 33.72C330.089 33.432 330.185 33.192 330.377 33C330.569 32.808 330.805 32.712 331.085 32.712ZM336.699 35.496C337.387 35.496 337.991 35.632 338.511 35.904C339.031 36.176 339.435 36.56 339.723 37.056C340.011 37.544 340.155 38.116 340.155 38.772C340.155 39.428 340.011 40.004 339.723 40.5C339.435 40.996 339.031 41.38 338.511 41.652C337.991 41.924 337.387 42.06 336.699 42.06C336.011 42.06 335.403 41.924 334.875 41.652C334.355 41.38 333.951 40.996 333.663 40.5C333.375 40.004 333.231 39.428 333.231 38.772C333.231 38.116 333.375 37.544 333.663 37.056C333.951 36.56 334.355 36.176 334.875 35.904C335.403 35.632 336.011 35.496 336.699 35.496ZM336.699 36.972C336.379 36.972 336.095 37.048 335.847 37.2C335.607 37.352 335.419 37.568 335.283 37.848C335.147 38.12 335.079 38.436 335.079 38.796C335.079 39.156 335.147 39.476 335.283 39.756C335.419 40.028 335.607 40.244 335.847 40.404C336.095 40.556 336.379 40.632 336.699 40.632C337.019 40.632 337.299 40.556 337.539 40.404C337.779 40.244 337.967 40.028 338.103 39.756C338.239 39.476 338.307 39.156 338.307 38.796C338.307 38.436 338.239 38.12 338.103 37.848C337.967 37.568 337.779 37.352 337.539 37.2C337.299 37.048 337.019 36.972 336.699 36.972ZM345.972 38.472C345.972 38.048 345.856 37.716 345.624 37.476C345.4 37.236 345.092 37.116 344.7 37.116C344.244 37.124 343.884 37.288 343.62 37.608C343.356 37.928 343.224 38.332 343.224 38.82H342.756C342.756 38.068 342.864 37.448 343.08 36.96C343.304 36.464 343.616 36.096 344.016 35.856C344.424 35.608 344.904 35.484 345.456 35.484C345.936 35.484 346.352 35.588 346.704 35.796C347.064 35.996 347.34 36.28 347.532 36.648C347.724 37.016 347.82 37.452 347.82 37.956V42H345.972V38.472ZM341.376 35.556H343.224V42H341.376V35.556ZM280.31 48.096C279.87 48.792 279.518 49.588 279.254 50.484C278.998 51.372 278.87 52.308 278.87 53.292C278.87 54.276 278.998 55.216 279.254 56.112C279.518 57 279.87 57.792 280.31 58.488H278.654C278.166 57.792 277.79 57 277.526 56.112C277.27 55.216 277.142 54.276 277.142 53.292C277.142 52.308 277.27 51.372 277.526 50.484C277.79 49.588 278.166 48.792 278.654 48.096H280.31ZM287.602 51.168C287.322 50.824 286.986 50.556 286.594 50.364C286.202 50.164 285.81 50.064 285.418 50.064C285.058 50.064 284.722 50.132 284.41 50.268C284.106 50.404 283.834 50.596 283.594 50.844C283.362 51.084 283.182 51.368 283.054 51.696C282.926 52.024 282.862 52.38 282.862 52.764C282.862 53.14 282.926 53.492 283.054 53.82C283.182 54.148 283.362 54.436 283.594 54.684C283.834 54.924 284.106 55.116 284.41 55.26C284.722 55.396 285.058 55.464 285.418 55.464C285.802 55.464 286.186 55.376 286.57 55.2C286.954 55.016 287.298 54.772 287.602 54.468L288.718 55.632C288.422 55.936 288.086 56.2 287.71 56.424C287.342 56.648 286.954 56.824 286.546 56.952C286.138 57.072 285.73 57.132 285.322 57.132C284.69 57.132 284.106 57.024 283.57 56.808C283.042 56.584 282.578 56.276 282.178 55.884C281.786 55.484 281.478 55.02 281.254 54.492C281.03 53.964 280.918 53.392 280.918 52.776C280.918 52.168 281.03 51.604 281.254 51.084C281.478 50.564 281.794 50.108 282.202 49.716C282.61 49.324 283.082 49.02 283.618 48.804C284.162 48.588 284.754 48.48 285.394 48.48C285.802 48.48 286.206 48.536 286.606 48.648C287.014 48.76 287.394 48.92 287.746 49.128C288.106 49.328 288.426 49.576 288.706 49.872L287.602 51.168ZM289.874 48.096H291.722V57H289.874V48.096ZM293.576 50.556H295.424V57H293.576V50.556ZM294.5 47.712C294.796 47.712 295.036 47.808 295.22 48C295.412 48.192 295.508 48.432 295.508 48.72C295.508 49.008 295.412 49.248 295.22 49.44C295.036 49.632 294.796 49.728 294.5 49.728C294.22 49.728 293.984 49.632 293.792 49.44C293.6 49.248 293.504 49.008 293.504 48.72C293.504 48.432 293.6 48.192 293.792 48C293.984 47.808 294.22 47.712 294.5 47.712ZM301.409 53.256C301.401 52.96 301.337 52.708 301.217 52.5C301.105 52.284 300.941 52.116 300.725 51.996C300.509 51.876 300.261 51.816 299.981 51.816C299.669 51.816 299.397 51.896 299.165 52.056C298.933 52.216 298.753 52.436 298.625 52.716C298.497 52.996 298.433 53.32 298.433 53.688C298.433 54.104 298.505 54.46 298.649 54.756C298.793 55.052 298.997 55.28 299.261 55.44C299.525 55.6 299.829 55.68 300.173 55.68C300.797 55.68 301.341 55.448 301.805 54.984L302.777 55.944C302.457 56.304 302.061 56.58 301.589 56.772C301.125 56.964 300.601 57.06 300.017 57.06C299.329 57.06 298.733 56.924 298.229 56.652C297.725 56.38 297.333 56 297.053 55.512C296.781 55.016 296.645 54.444 296.645 53.796C296.645 53.132 296.785 52.556 297.065 52.068C297.345 51.572 297.733 51.188 298.229 50.916C298.733 50.644 299.313 50.504 299.969 50.496C300.729 50.496 301.349 50.656 301.829 50.976C302.317 51.288 302.669 51.732 302.885 52.308C303.109 52.876 303.193 53.552 303.137 54.336H298.169V53.256H301.409ZM308.953 53.472C308.953 53.048 308.837 52.716 308.605 52.476C308.381 52.236 308.073 52.116 307.681 52.116C307.225 52.124 306.865 52.288 306.601 52.608C306.337 52.928 306.205 53.332 306.205 53.82H305.737C305.737 53.068 305.845 52.448 306.061 51.96C306.285 51.464 306.597 51.096 306.997 50.856C307.405 50.608 307.885 50.484 308.437 50.484C308.917 50.484 309.333 50.588 309.685 50.796C310.045 50.996 310.321 51.28 310.513 51.648C310.705 52.016 310.801 52.452 310.801 52.956V57H308.953V53.472ZM304.357 50.556H306.205V57H304.357V50.556ZM314.52 54.804C314.52 55.092 314.576 55.296 314.688 55.416C314.8 55.528 314.952 55.58 315.144 55.572C315.264 55.572 315.396 55.552 315.54 55.512C315.684 55.472 315.84 55.412 316.008 55.332L316.392 56.628C316.152 56.772 315.888 56.884 315.6 56.964C315.312 57.044 315.016 57.084 314.712 57.084C314.328 57.084 313.98 57.012 313.668 56.868C313.364 56.724 313.124 56.504 312.948 56.208C312.772 55.912 312.684 55.544 312.684 55.104V49.056H314.52V54.804ZM311.784 50.832H316.272V52.068H311.784V50.832ZM316.689 48.096H318.357C318.845 48.792 319.217 49.588 319.473 50.484C319.737 51.372 319.869 52.308 319.869 53.292C319.869 54.276 319.737 55.216 319.473 56.112C319.217 57 318.845 57.792 318.357 58.488H316.689C317.129 57.792 317.477 57 317.733 56.112C317.997 55.216 318.129 54.276 318.129 53.292C318.129 52.308 317.997 51.372 317.733 50.484C317.477 49.588 317.129 48.792 316.689 48.096Z" fill="white"/>
<rect x="404.5" y="20.5" width="89" height="49" fill="#0C0C0C"/>
<rect x="404.5" y="20.5" width="89" height="49" stroke="white"/>
<path d="M445.144 35.88C444.848 35.696 444.54 35.544 444.22 35.424C443.908 35.296 443.604 35.2 443.308 35.136C443.02 35.064 442.76 35.028 442.528 35.028C442.208 35.028 441.948 35.092 441.748 35.22C441.556 35.34 441.46 35.524 441.46 35.772C441.46 36.004 441.54 36.196 441.7 36.348C441.868 36.492 442.084 36.612 442.348 36.708C442.612 36.796 442.904 36.888 443.224 36.984C443.544 37.072 443.86 37.176 444.172 37.296C444.492 37.416 444.784 37.572 445.048 37.764C445.32 37.948 445.532 38.188 445.684 38.484C445.844 38.772 445.924 39.132 445.924 39.564C445.924 40.108 445.78 40.568 445.492 40.944C445.204 41.32 444.808 41.608 444.304 41.808C443.808 42.008 443.252 42.108 442.636 42.108C442.172 42.108 441.716 42.052 441.268 41.94C440.82 41.828 440.396 41.672 439.996 41.472C439.604 41.264 439.248 41.024 438.928 40.752L439.684 39.264C439.972 39.52 440.288 39.744 440.632 39.936C440.984 40.128 441.336 40.276 441.688 40.38C442.039 40.484 442.364 40.536 442.66 40.536C443.052 40.536 443.356 40.46 443.572 40.308C443.796 40.156 443.908 39.94 443.908 39.66C443.908 39.42 443.828 39.228 443.668 39.084C443.508 38.94 443.296 38.82 443.032 38.724C442.768 38.62 442.476 38.528 442.156 38.448C441.836 38.36 441.516 38.26 441.196 38.148C440.876 38.028 440.584 37.88 440.32 37.704C440.056 37.52 439.84 37.288 439.672 37.008C439.512 36.728 439.432 36.372 439.432 35.94C439.432 35.428 439.568 34.988 439.84 34.62C440.112 34.244 440.492 33.956 440.98 33.756C441.468 33.548 442.036 33.444 442.684 33.444C443.276 33.444 443.852 33.532 444.412 33.708C444.972 33.876 445.46 34.096 445.876 34.368L445.144 35.88ZM447.252 33.6H449.148V42H447.252V33.6ZM454.566 33.6C455.222 33.6 455.818 33.704 456.354 33.912C456.898 34.112 457.366 34.4 457.758 34.776C458.15 35.144 458.454 35.584 458.67 36.096C458.886 36.608 458.994 37.176 458.994 37.8C458.994 38.416 458.886 38.98 458.67 39.492C458.454 40.004 458.146 40.448 457.746 40.824C457.346 41.2 456.87 41.492 456.318 41.7C455.774 41.9 455.17 42 454.506 42H451.014V33.6H454.566ZM454.614 40.452C454.974 40.452 455.302 40.388 455.598 40.26C455.894 40.132 456.15 39.952 456.366 39.72C456.59 39.48 456.762 39.2 456.882 38.88C457.002 38.56 457.062 38.204 457.062 37.812C457.062 37.42 456.998 37.064 456.87 36.744C456.742 36.416 456.566 36.132 456.342 35.892C456.118 35.644 455.85 35.456 455.538 35.328C455.234 35.2 454.898 35.136 454.53 35.136H452.91V40.452H454.614ZM437.653 48.6H439.597L443.173 57H441.157L438.565 50.496L435.961 57H433.993L437.653 48.6ZM436.033 53.844H440.989V55.32H436.033V53.844ZM445.386 54.096C445.386 54.512 445.494 54.84 445.71 55.08C445.926 55.32 446.222 55.44 446.598 55.44C447.046 55.432 447.394 55.268 447.642 54.948C447.898 54.628 448.026 54.224 448.026 53.736H448.47C448.47 54.488 448.362 55.112 448.146 55.608C447.938 56.096 447.638 56.46 447.246 56.7C446.862 56.94 446.402 57.064 445.866 57.072C445.386 57.072 444.974 56.972 444.63 56.772C444.286 56.564 444.018 56.276 443.826 55.908C443.634 55.54 443.538 55.104 443.538 54.6V50.556H445.386V54.096ZM448.026 50.556H449.862V57H448.026V50.556ZM453.776 54.804C453.776 55.092 453.832 55.296 453.944 55.416C454.056 55.528 454.208 55.58 454.4 55.572C454.52 55.572 454.652 55.552 454.796 55.512C454.94 55.472 455.096 55.412 455.264 55.332L455.648 56.628C455.408 56.772 455.144 56.884 454.856 56.964C454.568 57.044 454.272 57.084 453.968 57.084C453.584 57.084 453.236 57.012 452.924 56.868C452.62 56.724 452.38 56.504 452.204 56.208C452.028 55.912 451.94 55.544 451.94 55.104V49.056H453.776V54.804ZM451.04 50.832H455.528V52.068H451.04V50.832ZM461.429 53.472C461.429 53.048 461.313 52.716 461.081 52.476C460.857 52.236 460.549 52.116 460.157 52.116C459.693 52.124 459.329 52.288 459.065 52.608C458.801 52.928 458.669 53.332 458.669 53.82H458.213C458.213 53.068 458.321 52.448 458.537 51.96C458.753 51.464 459.061 51.096 459.461 50.856C459.869 50.608 460.349 50.484 460.901 50.484C461.389 50.484 461.809 50.588 462.161 50.796C462.521 50.996 462.797 51.28 462.989 51.648C463.181 52.016 463.277 52.452 463.277 52.956V57H461.429V53.472ZM456.821 48.096H458.669V57H456.821V48.096Z" fill="white"/>
<rect x="558.5" y="20.5" width="81" height="49" fill="#0C0C0C"/>
<rect x="558.5" y="20.5" width="81" height="49" stroke="white"/>
<path d="M595.144 35.88C594.848 35.696 594.54 35.544 594.22 35.424C593.908 35.296 593.604 35.2 593.308 35.136C593.02 35.064 592.76 35.028 592.528 35.028C592.208 35.028 591.948 35.092 591.748 35.22C591.556 35.34 591.46 35.524 591.46 35.772C591.46 36.004 591.54 36.196 591.7 36.348C591.868 36.492 592.084 36.612 592.348 36.708C592.612 36.796 592.904 36.888 593.224 36.984C593.544 37.072 593.86 37.176 594.172 37.296C594.492 37.416 594.784 37.572 595.048 37.764C595.32 37.948 595.532 38.188 595.684 38.484C595.844 38.772 595.924 39.132 595.924 39.564C595.924 40.108 595.78 40.568 595.492 40.944C595.204 41.32 594.808 41.608 594.304 41.808C593.808 42.008 593.252 42.108 592.636 42.108C592.172 42.108 591.716 42.052 591.268 41.94C590.82 41.828 590.396 41.672 589.996 41.472C589.604 41.264 589.248 41.024 588.928 40.752L589.684 39.264C589.972 39.52 590.288 39.744 590.632 39.936C590.984 40.128 591.336 40.276 591.688 40.38C592.039 40.484 592.364 40.536 592.66 40.536C593.052 40.536 593.356 40.46 593.572 40.308C593.796 40.156 593.908 39.94 593.908 39.66C593.908 39.42 593.828 39.228 593.668 39.084C593.508 38.94 593.296 38.82 593.032 38.724C592.768 38.62 592.476 38.528 592.156 38.448C591.836 38.36 591.516 38.26 591.196 38.148C590.876 38.028 590.584 37.88 590.32 37.704C590.056 37.52 589.84 37.288 589.672 37.008C589.512 36.728 589.432 36.372 589.432 35.94C589.432 35.428 589.568 34.988 589.84 34.62C590.112 34.244 590.492 33.956 590.98 33.756C591.468 33.548 592.036 33.444 592.684 33.444C593.276 33.444 593.852 33.532 594.412 33.708C594.972 33.876 595.46 34.096 595.876 34.368L595.144 35.88ZM597.252 33.6H599.148V42H597.252V33.6ZM604.566 33.6C605.222 33.6 605.818 33.704 606.354 33.912C606.898 34.112 607.366 34.4 607.758 34.776C608.15 35.144 608.454 35.584 608.67 36.096C608.886 36.608 608.994 37.176 608.994 37.8C608.994 38.416 608.886 38.98 608.67 39.492C608.454 40.004 608.146 40.448 607.746 40.824C607.346 41.2 606.87 41.492 606.318 41.7C605.774 41.9 605.17 42 604.506 42H601.014V33.6H604.566ZM604.614 40.452C604.974 40.452 605.302 40.388 605.598 40.26C605.894 40.132 606.15 39.952 606.366 39.72C606.59 39.48 606.762 39.2 606.882 38.88C607.002 38.56 607.062 38.204 607.062 37.812C607.062 37.42 606.998 37.064 606.87 36.744C606.742 36.416 606.566 36.132 606.342 35.892C606.118 35.644 605.85 35.456 605.538 35.328C605.234 35.2 604.898 35.136 604.53 35.136H602.91V40.452H604.614ZM592.124 48.6H594.068L597.644 57H595.628L593.036 50.496L590.432 57H588.464L592.124 48.6ZM590.504 53.844H595.46V55.32H590.504V53.844ZM602.093 48.6C603.157 48.6 603.981 48.856 604.565 49.368C605.157 49.872 605.453 50.584 605.453 51.504C605.453 52.472 605.157 53.228 604.565 53.772C603.981 54.308 603.157 54.576 602.093 54.576H599.597L600.425 53.748V57H598.529V48.6H602.093ZM601.997 53.04C602.525 53.04 602.933 52.92 603.221 52.68C603.509 52.432 603.653 52.06 603.653 51.564C603.653 51.084 603.509 50.724 603.221 50.484C602.933 50.244 602.525 50.124 601.997 50.124H599.597L600.425 49.296V53.88L599.597 53.04H601.997ZM606.662 48.6H608.558V57H606.662V48.6Z" fill="white"/>
<path d="M299.146 107.146C298.951 107.342 298.951 107.658 299.146 107.854L302.328 111.036C302.524 111.231 302.84 111.231 303.036 111.036C303.231 110.84 303.231 110.524 303.036 110.328L300.207 107.5L303.036 104.672C303.231 104.476 303.231 104.16 303.036 103.964C302.84 103.769 302.524 103.769 302.328 103.964L299.146 107.146ZM448 107H299.5V108H448V107Z" fill="white"/>
<path d="M305.763 117.03C305.323 117.03 304.99 117.103 304.763 117.25C304.537 117.397 304.423 117.62 304.423 117.92C304.423 118.22 304.53 118.463 304.743 118.65C304.963 118.83 305.26 118.92 305.633 118.92C305.94 118.92 306.217 118.87 306.463 118.77C306.71 118.67 306.913 118.527 307.073 118.34C307.24 118.153 307.353 117.927 307.413 117.66L307.613 118.29C307.427 118.71 307.15 119.023 306.783 119.23C306.417 119.43 305.983 119.53 305.483 119.53C305.123 119.53 304.807 119.46 304.533 119.32C304.267 119.18 304.06 118.99 303.913 118.75C303.767 118.51 303.693 118.24 303.693 117.94C303.693 117.487 303.867 117.127 304.213 116.86C304.56 116.593 305.043 116.457 305.663 116.45H307.533V117.03H305.763ZM307.393 116.1C307.393 115.7 307.273 115.39 307.033 115.17C306.8 114.95 306.45 114.84 305.983 114.84C305.69 114.84 305.407 114.893 305.133 115C304.86 115.107 304.587 115.257 304.313 115.45L303.983 114.94C304.21 114.787 304.43 114.657 304.643 114.55C304.857 114.443 305.083 114.363 305.323 114.31C305.563 114.25 305.833 114.22 306.133 114.22C306.787 114.22 307.287 114.383 307.633 114.71C307.98 115.03 308.157 115.47 308.163 116.03L308.173 119.5H307.413L307.393 116.1ZM310.515 117.3C310.515 117.773 310.645 118.147 310.905 118.42C311.165 118.687 311.522 118.82 311.975 118.82C312.522 118.807 312.945 118.617 313.245 118.25C313.552 117.883 313.705 117.407 313.705 116.82H313.965C313.965 117.433 313.872 117.94 313.685 118.34C313.505 118.733 313.245 119.027 312.905 119.22C312.572 119.413 312.172 119.513 311.705 119.52C311.298 119.52 310.948 119.44 310.655 119.28C310.362 119.113 310.135 118.877 309.975 118.57C309.815 118.263 309.735 117.9 309.735 117.48V114.24H310.515V117.3ZM313.705 114.24H314.485V119.5H313.705V114.24ZM317.349 117.92C317.349 118.253 317.409 118.493 317.529 118.64C317.649 118.78 317.823 118.85 318.049 118.85C318.183 118.843 318.319 118.82 318.459 118.78C318.599 118.733 318.743 118.663 318.889 118.57L319.109 119.14C318.929 119.26 318.736 119.357 318.529 119.43C318.329 119.497 318.126 119.53 317.919 119.53C317.659 119.53 317.429 119.48 317.229 119.38C317.029 119.273 316.869 119.11 316.749 118.89C316.636 118.67 316.579 118.387 316.579 118.04V113.04H317.349V117.92ZM315.819 114.4H319.019V114.98H315.819V114.4ZM324.376 116.45C324.376 115.97 324.243 115.597 323.976 115.33C323.716 115.057 323.353 114.92 322.886 114.92C322.326 114.927 321.89 115.117 321.576 115.49C321.263 115.857 321.106 116.333 321.106 116.92H320.836C320.836 116.307 320.93 115.803 321.116 115.41C321.303 115.01 321.57 114.713 321.916 114.52C322.27 114.32 322.683 114.22 323.156 114.22C323.576 114.22 323.936 114.303 324.236 114.47C324.536 114.637 324.763 114.873 324.916 115.18C325.076 115.48 325.156 115.843 325.156 116.27V119.5H324.376V116.45ZM320.326 112.08H321.106V119.5H320.326V112.08ZM329.037 114.22C329.557 114.22 330.017 114.333 330.417 114.56C330.824 114.78 331.141 115.09 331.367 115.49C331.594 115.89 331.707 116.35 331.707 116.87C331.707 117.39 331.594 117.85 331.367 118.25C331.141 118.65 330.824 118.963 330.417 119.19C330.017 119.41 329.557 119.52 329.037 119.52C328.517 119.52 328.054 119.41 327.647 119.19C327.247 118.963 326.934 118.65 326.707 118.25C326.481 117.85 326.367 117.39 326.367 116.87C326.367 116.35 326.481 115.89 326.707 115.49C326.934 115.09 327.247 114.78 327.647 114.56C328.054 114.333 328.517 114.22 329.037 114.22ZM329.037 114.87C328.671 114.87 328.344 114.957 328.057 115.13C327.771 115.297 327.547 115.53 327.387 115.83C327.227 116.13 327.147 116.477 327.147 116.87C327.147 117.27 327.227 117.623 327.387 117.93C327.547 118.23 327.771 118.467 328.057 118.64C328.344 118.807 328.671 118.89 329.037 118.89C329.411 118.89 329.737 118.807 330.017 118.64C330.304 118.467 330.527 118.23 330.687 117.93C330.847 117.623 330.927 117.27 330.927 116.87C330.927 116.477 330.847 116.13 330.687 115.83C330.527 115.53 330.304 115.297 330.017 115.13C329.737 114.957 329.411 114.87 329.037 114.87ZM335.749 114.93C335.356 114.923 335.016 115.007 334.729 115.18C334.449 115.347 334.232 115.583 334.079 115.89C333.926 116.19 333.849 116.543 333.849 116.95L333.579 116.92C333.579 116.347 333.666 115.86 333.839 115.46C334.012 115.06 334.262 114.753 334.589 114.54C334.916 114.327 335.302 114.22 335.749 114.22V114.93ZM333.079 114.24H333.859V119.5H333.079V114.24ZM336.8 114.24H337.57V119.5H336.8V114.24ZM337.18 112.23C337.326 112.23 337.446 112.28 337.54 112.38C337.64 112.473 337.69 112.593 337.69 112.74C337.69 112.88 337.64 113 337.54 113.1C337.446 113.2 337.326 113.25 337.18 113.25C337.04 113.25 336.92 113.2 336.82 113.1C336.72 113 336.67 112.88 336.67 112.74C336.67 112.593 336.72 112.473 336.82 112.38C336.92 112.28 337.04 112.23 337.18 112.23ZM339.126 114.24L343.276 114.25V114.8L339.976 118.88L343.356 118.89V119.51L339.036 119.5V118.95L342.326 114.87L339.126 114.86V114.24ZM346.213 117.03C345.773 117.03 345.439 117.103 345.213 117.25C344.986 117.397 344.873 117.62 344.873 117.92C344.873 118.22 344.979 118.463 345.193 118.65C345.413 118.83 345.709 118.92 346.083 118.92C346.389 118.92 346.666 118.87 346.913 118.77C347.159 118.67 347.363 118.527 347.523 118.34C347.689 118.153 347.803 117.927 347.863 117.66L348.063 118.29C347.876 118.71 347.599 119.023 347.233 119.23C346.866 119.43 346.433 119.53 345.933 119.53C345.573 119.53 345.256 119.46 344.983 119.32C344.716 119.18 344.509 118.99 344.363 118.75C344.216 118.51 344.143 118.24 344.143 117.94C344.143 117.487 344.316 117.127 344.663 116.86C345.009 116.593 345.493 116.457 346.113 116.45H347.983V117.03H346.213ZM347.843 116.1C347.843 115.7 347.723 115.39 347.483 115.17C347.249 114.95 346.899 114.84 346.433 114.84C346.139 114.84 345.856 114.893 345.583 115C345.309 115.107 345.036 115.257 344.763 115.45L344.433 114.94C344.659 114.787 344.879 114.657 345.093 114.55C345.306 114.443 345.533 114.363 345.773 114.31C346.013 114.25 346.283 114.22 346.583 114.22C347.236 114.22 347.736 114.383 348.083 114.71C348.429 115.03 348.606 115.47 348.613 116.03L348.623 119.5H347.863L347.843 116.1ZM351.324 117.92C351.324 118.253 351.384 118.493 351.504 118.64C351.624 118.78 351.797 118.85 352.024 118.85C352.157 118.843 352.294 118.82 352.434 118.78C352.574 118.733 352.717 118.663 352.864 118.57L353.084 119.14C352.904 119.26 352.711 119.357 352.504 119.43C352.304 119.497 352.101 119.53 351.894 119.53C351.634 119.53 351.404 119.48 351.204 119.38C351.004 119.273 350.844 119.11 350.724 118.89C350.611 118.67 350.554 118.387 350.554 118.04V113.04H351.324V117.92ZM349.794 114.4H352.994V114.98H349.794V114.4ZM354.251 114.24H355.021V119.5H354.251V114.24ZM354.631 112.23C354.777 112.23 354.897 112.28 354.991 112.38C355.091 112.473 355.141 112.593 355.141 112.74C355.141 112.88 355.091 113 354.991 113.1C354.897 113.2 354.777 113.25 354.631 113.25C354.491 113.25 354.371 113.2 354.271 113.1C354.171 113 354.121 112.88 354.121 112.74C354.121 112.593 354.171 112.473 354.271 112.38C354.371 112.28 354.491 112.23 354.631 112.23ZM359.057 114.22C359.577 114.22 360.037 114.333 360.437 114.56C360.843 114.78 361.16 115.09 361.387 115.49C361.613 115.89 361.727 116.35 361.727 116.87C361.727 117.39 361.613 117.85 361.387 118.25C361.16 118.65 360.843 118.963 360.437 119.19C360.037 119.41 359.577 119.52 359.057 119.52C358.537 119.52 358.073 119.41 357.667 119.19C357.267 118.963 356.953 118.65 356.727 118.25C356.5 117.85 356.387 117.39 356.387 116.87C356.387 116.35 356.5 115.89 356.727 115.49C356.953 115.09 357.267 114.78 357.667 114.56C358.073 114.333 358.537 114.22 359.057 114.22ZM359.057 114.87C358.69 114.87 358.363 114.957 358.077 115.13C357.79 115.297 357.567 115.53 357.407 115.83C357.247 116.13 357.167 116.477 357.167 116.87C357.167 117.27 357.247 117.623 357.407 117.93C357.567 118.23 357.79 118.467 358.077 118.64C358.363 118.807 358.69 118.89 359.057 118.89C359.43 118.89 359.757 118.807 360.037 118.64C360.323 118.467 360.547 118.23 360.707 117.93C360.867 117.623 360.947 117.27 360.947 116.87C360.947 116.477 360.867 116.13 360.707 115.83C360.547 115.53 360.323 115.297 360.037 115.13C359.757 114.957 359.43 114.87 359.057 114.87ZM367.138 116.45C367.138 115.97 367.005 115.597 366.738 115.33C366.478 115.057 366.115 114.92 365.648 114.92C365.088 114.927 364.652 115.117 364.338 115.49C364.025 115.857 363.868 116.333 363.868 116.92H363.598C363.598 116.307 363.692 115.803 363.878 115.41C364.065 115.01 364.332 114.713 364.678 114.52C365.032 114.32 365.445 114.22 365.918 114.22C366.338 114.22 366.698 114.303 366.998 114.47C367.298 114.637 367.525 114.873 367.678 115.18C367.838 115.48 367.918 115.843 367.918 116.27V119.5H367.138V116.45ZM363.098 114.24H363.878V119.5H363.098V114.24ZM375.763 115.5C375.569 115.307 375.339 115.157 375.073 115.05C374.813 114.937 374.523 114.88 374.203 114.88C373.843 114.88 373.519 114.963 373.233 115.13C372.953 115.297 372.733 115.53 372.573 115.83C372.413 116.13 372.333 116.477 372.333 116.87C372.333 117.263 372.413 117.613 372.573 117.92C372.733 118.22 372.953 118.457 373.233 118.63C373.519 118.797 373.843 118.88 374.203 118.88C374.543 118.88 374.853 118.823 375.133 118.71C375.413 118.59 375.649 118.417 375.843 118.19L376.283 118.63C376.049 118.91 375.753 119.13 375.393 119.29C375.033 119.443 374.626 119.52 374.173 119.52C373.666 119.52 373.216 119.41 372.823 119.19C372.429 118.963 372.119 118.65 371.893 118.25C371.673 117.85 371.563 117.39 371.563 116.87C371.563 116.35 371.673 115.893 371.893 115.5C372.119 115.1 372.429 114.787 372.823 114.56C373.216 114.333 373.666 114.22 374.173 114.22C374.599 114.22 374.983 114.29 375.323 114.43C375.669 114.563 375.963 114.75 376.203 114.99L375.763 115.5ZM379.584 114.22C380.104 114.22 380.564 114.333 380.964 114.56C381.371 114.78 381.687 115.09 381.914 115.49C382.141 115.89 382.254 116.35 382.254 116.87C382.254 117.39 382.141 117.85 381.914 118.25C381.687 118.65 381.371 118.963 380.964 119.19C380.564 119.41 380.104 119.52 379.584 119.52C379.064 119.52 378.601 119.41 378.194 119.19C377.794 118.963 377.481 118.65 377.254 118.25C377.027 117.85 376.914 117.39 376.914 116.87C376.914 116.35 377.027 115.89 377.254 115.49C377.481 115.09 377.794 114.78 378.194 114.56C378.601 114.333 379.064 114.22 379.584 114.22ZM379.584 114.87C379.217 114.87 378.891 114.957 378.604 115.13C378.317 115.297 378.094 115.53 377.934 115.83C377.774 116.13 377.694 116.477 377.694 116.87C377.694 117.27 377.774 117.623 377.934 117.93C378.094 118.23 378.317 118.467 378.604 118.64C378.891 118.807 379.217 118.89 379.584 118.89C379.957 118.89 380.284 118.807 380.564 118.64C380.851 118.467 381.074 118.23 381.234 117.93C381.394 117.623 381.474 117.27 381.474 116.87C381.474 116.477 381.394 116.13 381.234 115.83C381.074 115.53 380.851 115.297 380.564 115.13C380.284 114.957 379.957 114.87 379.584 114.87ZM385.626 114.21C386.112 114.21 386.536 114.32 386.896 114.54C387.256 114.76 387.532 115.07 387.726 115.47C387.926 115.863 388.022 116.33 388.016 116.87C388.022 117.41 387.926 117.88 387.726 118.28C387.532 118.68 387.256 118.99 386.896 119.21C386.542 119.43 386.122 119.54 385.636 119.54C385.136 119.54 384.692 119.427 384.306 119.2C383.926 118.967 383.629 118.65 383.416 118.25C383.202 117.85 383.096 117.39 383.096 116.87C383.096 116.343 383.202 115.883 383.416 115.49C383.629 115.09 383.926 114.777 384.306 114.55C384.686 114.323 385.126 114.21 385.626 114.21ZM385.776 114.85C385.409 114.85 385.082 114.94 384.796 115.12C384.509 115.293 384.282 115.533 384.116 115.84C383.956 116.14 383.876 116.487 383.876 116.88C383.876 117.273 383.956 117.623 384.116 117.93C384.282 118.23 384.509 118.467 384.796 118.64C385.082 118.813 385.409 118.9 385.776 118.9C386.149 118.9 386.479 118.813 386.766 118.64C387.052 118.467 387.276 118.23 387.436 117.93C387.602 117.623 387.686 117.273 387.686 116.88C387.686 116.487 387.602 116.14 387.436 115.84C387.276 115.533 387.052 115.293 386.766 115.12C386.479 114.94 386.149 114.85 385.776 114.85ZM387.686 112.08H388.466V119.5H387.686V112.08ZM394.243 116.56C394.23 116.207 394.146 115.903 393.993 115.65C393.846 115.39 393.643 115.19 393.383 115.05C393.13 114.91 392.83 114.84 392.483 114.84C392.116 114.84 391.793 114.923 391.513 115.09C391.24 115.257 391.023 115.49 390.863 115.79C390.703 116.09 390.623 116.44 390.623 116.84C390.623 117.253 390.703 117.617 390.863 117.93C391.03 118.237 391.26 118.477 391.553 118.65C391.846 118.823 392.18 118.91 392.553 118.91C393.22 118.91 393.763 118.683 394.183 118.23L394.613 118.66C394.36 118.933 394.053 119.147 393.693 119.3C393.333 119.447 392.936 119.52 392.503 119.52C391.983 119.52 391.523 119.41 391.123 119.19C390.73 118.963 390.423 118.65 390.203 118.25C389.983 117.85 389.873 117.39 389.873 116.87C389.873 116.35 389.983 115.893 390.203 115.5C390.423 115.1 390.73 114.79 391.123 114.57C391.523 114.343 391.976 114.227 392.483 114.22C393.05 114.22 393.52 114.343 393.893 114.59C394.266 114.83 394.54 115.17 394.713 115.61C394.893 116.043 394.966 116.553 394.933 117.14H390.483V116.56H394.243ZM401.384 114.93C400.99 114.923 400.65 115.007 400.364 115.18C400.084 115.347 399.867 115.583 399.714 115.89C399.56 116.19 399.484 116.543 399.484 116.95L399.214 116.92C399.214 116.347 399.3 115.86 399.474 115.46C399.647 115.06 399.897 114.753 400.224 114.54C400.55 114.327 400.937 114.22 401.384 114.22V114.93ZM398.714 114.24H399.494V119.5H398.714V114.24ZM406.274 116.56C406.261 116.207 406.178 115.903 406.024 115.65C405.878 115.39 405.674 115.19 405.414 115.05C405.161 114.91 404.861 114.84 404.514 114.84C404.148 114.84 403.824 114.923 403.544 115.09C403.271 115.257 403.054 115.49 402.894 115.79C402.734 116.09 402.654 116.44 402.654 116.84C402.654 117.253 402.734 117.617 402.894 117.93C403.061 118.237 403.291 118.477 403.584 118.65C403.878 118.823 404.211 118.91 404.584 118.91C405.251 118.91 405.794 118.683 406.214 118.23L406.644 118.66C406.391 118.933 406.084 119.147 405.724 119.3C405.364 119.447 404.968 119.52 404.534 119.52C404.014 119.52 403.554 119.41 403.154 119.19C402.761 118.963 402.454 118.65 402.234 118.25C402.014 117.85 401.904 117.39 401.904 116.87C401.904 116.35 402.014 115.893 402.234 115.5C402.454 115.1 402.761 114.79 403.154 114.57C403.554 114.343 404.008 114.227 404.514 114.22C405.081 114.22 405.551 114.343 405.924 114.59C406.298 114.83 406.571 115.17 406.744 115.61C406.924 116.043 406.998 116.553 406.964 117.14H402.514V116.56H406.274ZM411.093 115.24C410.887 115.113 410.657 115.013 410.403 114.94C410.15 114.867 409.903 114.83 409.663 114.83C409.37 114.83 409.123 114.89 408.923 115.01C408.723 115.123 408.623 115.31 408.623 115.57C408.623 115.77 408.693 115.93 408.833 116.05C408.98 116.163 409.163 116.26 409.383 116.34C409.61 116.413 409.847 116.487 410.093 116.56C410.34 116.633 410.577 116.727 410.803 116.84C411.03 116.947 411.213 117.097 411.353 117.29C411.493 117.483 411.563 117.737 411.563 118.05C411.563 118.39 411.47 118.67 411.283 118.89C411.103 119.103 410.867 119.263 410.573 119.37C410.287 119.47 409.973 119.52 409.633 119.52C409.26 119.52 408.893 119.457 408.533 119.33C408.173 119.203 407.867 119.023 407.613 118.79L407.913 118.26C408.14 118.467 408.41 118.63 408.723 118.75C409.043 118.863 409.357 118.92 409.663 118.92C409.87 118.92 410.057 118.893 410.223 118.84C410.397 118.78 410.533 118.693 410.633 118.58C410.74 118.46 410.793 118.31 410.793 118.13C410.8 117.91 410.733 117.74 410.593 117.62C410.46 117.493 410.28 117.39 410.053 117.31C409.833 117.23 409.597 117.153 409.343 117.08C409.097 117.007 408.86 116.917 408.633 116.81C408.413 116.697 408.233 116.55 408.093 116.37C407.953 116.183 407.883 115.933 407.883 115.62C407.883 115.293 407.97 115.027 408.143 114.82C408.317 114.613 408.54 114.46 408.813 114.36C409.093 114.26 409.393 114.21 409.713 114.21C410.027 114.21 410.33 114.253 410.623 114.34C410.917 114.42 411.173 114.533 411.393 114.68L411.093 115.24ZM415.705 114.22C416.205 114.22 416.645 114.333 417.025 114.56C417.405 114.787 417.701 115.1 417.915 115.5C418.128 115.9 418.235 116.36 418.235 116.88C418.235 117.393 418.128 117.85 417.915 118.25C417.701 118.65 417.405 118.963 417.025 119.19C416.651 119.41 416.215 119.52 415.715 119.52C415.235 119.52 414.815 119.413 414.455 119.2C414.101 118.98 413.825 118.673 413.625 118.28C413.431 117.88 413.335 117.413 413.335 116.88C413.335 116.34 413.431 115.87 413.625 115.47C413.825 115.07 414.101 114.763 414.455 114.55C414.815 114.33 415.231 114.22 415.705 114.22ZM415.565 114.85C415.198 114.85 414.871 114.94 414.585 115.12C414.298 115.293 414.075 115.53 413.915 115.83C413.755 116.13 413.675 116.477 413.675 116.87C413.675 117.257 413.755 117.603 413.915 117.91C414.075 118.21 414.298 118.447 414.585 118.62C414.871 118.793 415.198 118.88 415.565 118.88C415.931 118.88 416.255 118.793 416.535 118.62C416.821 118.447 417.045 118.21 417.205 117.91C417.365 117.603 417.445 117.257 417.445 116.87C417.445 116.477 417.365 116.13 417.205 115.83C417.045 115.53 416.821 115.293 416.535 115.12C416.255 114.94 415.931 114.85 415.565 114.85ZM412.895 114.24H413.675V121.44H412.895V114.24ZM421.742 114.22C422.262 114.22 422.722 114.333 423.122 114.56C423.529 114.78 423.846 115.09 424.072 115.49C424.299 115.89 424.412 116.35 424.412 116.87C424.412 117.39 424.299 117.85 424.072 118.25C423.846 118.65 423.529 118.963 423.122 119.19C422.722 119.41 422.262 119.52 421.742 119.52C421.222 119.52 420.759 119.41 420.352 119.19C419.952 118.963 419.639 118.65 419.412 118.25C419.186 117.85 419.072 117.39 419.072 116.87C419.072 116.35 419.186 115.89 419.412 115.49C419.639 115.09 419.952 114.78 420.352 114.56C420.759 114.333 421.222 114.22 421.742 114.22ZM421.742 114.87C421.376 114.87 421.049 114.957 420.762 115.13C420.476 115.297 420.252 115.53 420.092 115.83C419.932 116.13 419.852 116.477 419.852 116.87C419.852 117.27 419.932 117.623 420.092 117.93C420.252 118.23 420.476 118.467 420.762 118.64C421.049 118.807 421.376 118.89 421.742 118.89C422.116 118.89 422.442 118.807 422.722 118.64C423.009 118.467 423.232 118.23 423.392 117.93C423.552 117.623 423.632 117.27 423.632 116.87C423.632 116.477 423.552 116.13 423.392 115.83C423.232 115.53 423.009 115.297 422.722 115.13C422.442 114.957 422.116 114.87 421.742 114.87ZM429.824 116.45C429.824 115.97 429.691 115.597 429.424 115.33C429.164 115.057 428.801 114.92 428.334 114.92C427.774 114.927 427.337 115.117 427.024 115.49C426.711 115.857 426.554 116.333 426.554 116.92H426.284C426.284 116.307 426.377 115.803 426.564 115.41C426.751 115.01 427.017 114.713 427.364 114.52C427.717 114.32 428.131 114.22 428.604 114.22C429.024 114.22 429.384 114.303 429.684 114.47C429.984 114.637 430.211 114.873 430.364 115.18C430.524 115.48 430.604 115.843 430.604 116.27V119.5H429.824V116.45ZM425.784 114.24H426.564V119.5H425.784V114.24ZM435.126 115.24C434.92 115.113 434.69 115.013 434.436 114.94C434.183 114.867 433.936 114.83 433.696 114.83C433.403 114.83 433.156 114.89 432.956 115.01C432.756 115.123 432.656 115.31 432.656 115.57C432.656 115.77 432.726 115.93 432.866 116.05C433.013 116.163 433.196 116.26 433.416 116.34C433.643 116.413 433.88 116.487 434.126 116.56C434.373 116.633 434.61 116.727 434.836 116.84C435.063 116.947 435.246 117.097 435.386 117.29C435.526 117.483 435.596 117.737 435.596 118.05C435.596 118.39 435.503 118.67 435.316 118.89C435.136 119.103 434.9 119.263 434.606 119.37C434.32 119.47 434.006 119.52 433.666 119.52C433.293 119.52 432.926 119.457 432.566 119.33C432.206 119.203 431.9 119.023 431.646 118.79L431.946 118.26C432.173 118.467 432.443 118.63 432.756 118.75C433.076 118.863 433.39 118.92 433.696 118.92C433.903 118.92 434.09 118.893 434.256 118.84C434.43 118.78 434.566 118.693 434.666 118.58C434.773 118.46 434.826 118.31 434.826 118.13C434.833 117.91 434.766 117.74 434.626 117.62C434.493 117.493 434.313 117.39 434.086 117.31C433.866 117.23 433.63 117.153 433.376 117.08C433.13 117.007 432.893 116.917 432.666 116.81C432.446 116.697 432.266 116.55 432.126 116.37C431.986 116.183 431.916 115.933 431.916 115.62C431.916 115.293 432.003 115.027 432.176 114.82C432.35 114.613 432.573 114.46 432.846 114.36C433.126 114.26 433.426 114.21 433.746 114.21C434.06 114.21 434.363 114.253 434.656 114.34C434.95 114.42 435.206 114.533 435.426 114.68L435.126 115.24ZM440.718 116.56C440.704 116.207 440.621 115.903 440.468 115.65C440.321 115.39 440.118 115.19 439.858 115.05C439.604 114.91 439.304 114.84 438.958 114.84C438.591 114.84 438.268 114.923 437.988 115.09C437.714 115.257 437.498 115.49 437.338 115.79C437.178 116.09 437.098 116.44 437.098 116.84C437.098 117.253 437.178 117.617 437.338 117.93C437.504 118.237 437.734 118.477 438.028 118.65C438.321 118.823 438.654 118.91 439.028 118.91C439.694 118.91 440.238 118.683 440.658 118.23L441.088 118.66C440.834 118.933 440.528 119.147 440.168 119.3C439.808 119.447 439.411 119.52 438.978 119.52C438.458 119.52 437.998 119.41 437.598 119.19C437.204 118.963 436.898 118.65 436.678 118.25C436.458 117.85 436.348 117.39 436.348 116.87C436.348 116.35 436.458 115.893 436.678 115.5C436.898 115.1 437.204 114.79 437.598 114.57C437.998 114.343 438.451 114.227 438.958 114.22C439.524 114.22 439.994 114.343 440.368 114.59C440.741 114.83 441.014 115.17 441.188 115.61C441.368 116.043 441.441 116.553 441.408 117.14H436.958V116.56H440.718ZM334.556 124.08C334.19 124.64 333.903 125.293 333.696 126.04C333.496 126.78 333.396 127.57 333.396 128.41C333.396 129.25 333.496 130.043 333.696 130.79C333.903 131.53 334.19 132.18 334.556 132.74H333.836C333.456 132.18 333.163 131.53 332.956 130.79C332.756 130.043 332.656 129.25 332.656 128.41C332.656 127.57 332.756 126.78 332.956 126.04C333.163 125.293 333.456 124.64 333.836 124.08H334.556ZM336.715 129.92C336.715 130.253 336.775 130.493 336.895 130.64C337.015 130.78 337.188 130.85 337.415 130.85C337.548 130.843 337.685 130.82 337.825 130.78C337.965 130.733 338.108 130.663 338.255 130.57L338.475 131.14C338.295 131.26 338.101 131.357 337.895 131.43C337.695 131.497 337.491 131.53 337.285 131.53C337.025 131.53 336.795 131.48 336.595 131.38C336.395 131.273 336.235 131.11 336.115 130.89C336.001 130.67 335.945 130.387 335.945 130.04V125.04H336.715V129.92ZM335.185 126.4H338.385V126.98H335.185V126.4ZM341.703 126.22C342.223 126.22 342.683 126.333 343.083 126.56C343.49 126.78 343.807 127.09 344.033 127.49C344.26 127.89 344.373 128.35 344.373 128.87C344.373 129.39 344.26 129.85 344.033 130.25C343.807 130.65 343.49 130.963 343.083 131.19C342.683 131.41 342.223 131.52 341.703 131.52C341.183 131.52 340.72 131.41 340.313 131.19C339.913 130.963 339.6 130.65 339.373 130.25C339.147 129.85 339.033 129.39 339.033 128.87C339.033 128.35 339.147 127.89 339.373 127.49C339.6 127.09 339.913 126.78 340.313 126.56C340.72 126.333 341.183 126.22 341.703 126.22ZM341.703 126.87C341.337 126.87 341.01 126.957 340.723 127.13C340.437 127.297 340.213 127.53 340.053 127.83C339.893 128.13 339.813 128.477 339.813 128.87C339.813 129.27 339.893 129.623 340.053 129.93C340.213 130.23 340.437 130.467 340.723 130.64C341.01 130.807 341.337 130.89 341.703 130.89C342.077 130.89 342.403 130.807 342.683 130.64C342.97 130.467 343.193 130.23 343.353 129.93C343.513 129.623 343.593 129.27 343.593 128.87C343.593 128.477 343.513 128.13 343.353 127.83C343.193 127.53 342.97 127.297 342.683 127.13C342.403 126.957 342.077 126.87 341.703 126.87ZM351.847 127.5C351.653 127.307 351.423 127.157 351.157 127.05C350.897 126.937 350.607 126.88 350.287 126.88C349.927 126.88 349.603 126.963 349.317 127.13C349.037 127.297 348.817 127.53 348.657 127.83C348.497 128.13 348.417 128.477 348.417 128.87C348.417 129.263 348.497 129.613 348.657 129.92C348.817 130.22 349.037 130.457 349.317 130.63C349.603 130.797 349.927 130.88 350.287 130.88C350.627 130.88 350.937 130.823 351.217 130.71C351.497 130.59 351.733 130.417 351.927 130.19L352.367 130.63C352.133 130.91 351.837 131.13 351.477 131.29C351.117 131.443 350.71 131.52 350.257 131.52C349.75 131.52 349.3 131.41 348.907 131.19C348.513 130.963 348.203 130.65 347.977 130.25C347.757 129.85 347.647 129.39 347.647 128.87C347.647 128.35 347.757 127.893 347.977 127.5C348.203 127.1 348.513 126.787 348.907 126.56C349.3 126.333 349.75 126.22 350.257 126.22C350.683 126.22 351.067 126.29 351.407 126.43C351.753 126.563 352.047 126.75 352.287 126.99L351.847 127.5ZM355.109 129.03C354.669 129.03 354.336 129.103 354.109 129.25C353.882 129.397 353.769 129.62 353.769 129.92C353.769 130.22 353.876 130.463 354.089 130.65C354.309 130.83 354.606 130.92 354.979 130.92C355.286 130.92 355.562 130.87 355.809 130.77C356.056 130.67 356.259 130.527 356.419 130.34C356.586 130.153 356.699 129.927 356.759 129.66L356.959 130.29C356.772 130.71 356.496 131.023 356.129 131.23C355.762 131.43 355.329 131.53 354.829 131.53C354.469 131.53 354.152 131.46 353.879 131.32C353.612 131.18 353.406 130.99 353.259 130.75C353.112 130.51 353.039 130.24 353.039 129.94C353.039 129.487 353.212 129.127 353.559 128.86C353.906 128.593 354.389 128.457 355.009 128.45H356.879V129.03H355.109ZM356.739 128.1C356.739 127.7 356.619 127.39 356.379 127.17C356.146 126.95 355.796 126.84 355.329 126.84C355.036 126.84 354.752 126.893 354.479 127C354.206 127.107 353.932 127.257 353.659 127.45L353.329 126.94C353.556 126.787 353.776 126.657 353.989 126.55C354.202 126.443 354.429 126.363 354.669 126.31C354.909 126.25 355.179 126.22 355.479 126.22C356.132 126.22 356.632 126.383 356.979 126.71C357.326 127.03 357.502 127.47 357.509 128.03L357.519 131.5H356.759L356.739 128.1ZM359.311 124.08H360.091V131.5H359.311V124.08ZM362.084 124.08H362.864V131.5H362.084V124.08ZM367.667 126.22C368.167 126.22 368.607 126.333 368.987 126.56C369.367 126.787 369.664 127.1 369.877 127.5C370.091 127.9 370.197 128.36 370.197 128.88C370.197 129.393 370.091 129.85 369.877 130.25C369.664 130.65 369.367 130.963 368.987 131.19C368.614 131.41 368.177 131.52 367.677 131.52C367.197 131.52 366.777 131.413 366.417 131.2C366.064 130.98 365.787 130.673 365.587 130.28C365.394 129.88 365.297 129.413 365.297 128.88C365.297 128.34 365.394 127.87 365.587 127.47C365.787 127.07 366.064 126.763 366.417 126.55C366.777 126.33 367.194 126.22 367.667 126.22ZM367.527 126.85C367.161 126.85 366.834 126.94 366.547 127.12C366.261 127.293 366.037 127.53 365.877 127.83C365.717 128.13 365.637 128.477 365.637 128.87C365.637 129.257 365.717 129.603 365.877 129.91C366.037 130.21 366.261 130.447 366.547 130.62C366.834 130.793 367.161 130.88 367.527 130.88C367.894 130.88 368.217 130.793 368.497 130.62C368.784 130.447 369.007 130.21 369.167 129.91C369.327 129.603 369.407 129.257 369.407 128.87C369.407 128.477 369.327 128.13 369.167 127.83C369.007 127.53 368.784 127.293 368.497 127.12C368.217 126.94 367.894 126.85 367.527 126.85ZM364.857 124.08H365.637V131.5H364.857V124.08ZM373.185 129.03C372.745 129.03 372.412 129.103 372.185 129.25C371.959 129.397 371.845 129.62 371.845 129.92C371.845 130.22 371.952 130.463 372.165 130.65C372.385 130.83 372.682 130.92 373.055 130.92C373.362 130.92 373.639 130.87 373.885 130.77C374.132 130.67 374.335 130.527 374.495 130.34C374.662 130.153 374.775 129.927 374.835 129.66L375.035 130.29C374.849 130.71 374.572 131.023 374.205 131.23C373.839 131.43 373.405 131.53 372.905 131.53C372.545 131.53 372.229 131.46 371.955 131.32C371.689 131.18 371.482 130.99 371.335 130.75C371.189 130.51 371.115 130.24 371.115 129.94C371.115 129.487 371.289 129.127 371.635 128.86C371.982 128.593 372.465 128.457 373.085 128.45H374.955V129.03H373.185ZM374.815 128.1C374.815 127.7 374.695 127.39 374.455 127.17C374.222 126.95 373.872 126.84 373.405 126.84C373.112 126.84 372.829 126.893 372.555 127C372.282 127.107 372.009 127.257 371.735 127.45L371.405 126.94C371.632 126.787 371.852 126.657 372.065 126.55C372.279 126.443 372.505 126.363 372.745 126.31C372.985 126.25 373.255 126.22 373.555 126.22C374.209 126.22 374.709 126.383 375.055 126.71C375.402 127.03 375.579 127.47 375.585 128.03L375.595 131.5H374.835L374.815 128.1ZM381.007 127.5C380.813 127.307 380.583 127.157 380.317 127.05C380.057 126.937 379.767 126.88 379.447 126.88C379.087 126.88 378.763 126.963 378.477 127.13C378.197 127.297 377.977 127.53 377.817 127.83C377.657 128.13 377.577 128.477 377.577 128.87C377.577 129.263 377.657 129.613 377.817 129.92C377.977 130.22 378.197 130.457 378.477 130.63C378.763 130.797 379.087 130.88 379.447 130.88C379.787 130.88 380.097 130.823 380.377 130.71C380.657 130.59 380.893 130.417 381.087 130.19L381.527 130.63C381.293 130.91 380.997 131.13 380.637 131.29C380.277 131.443 379.87 131.52 379.417 131.52C378.91 131.52 378.46 131.41 378.067 131.19C377.673 130.963 377.363 130.65 377.137 130.25C376.917 129.85 376.807 129.39 376.807 128.87C376.807 128.35 376.917 127.893 377.137 127.5C377.363 127.1 377.673 126.787 378.067 126.56C378.46 126.333 378.91 126.22 379.417 126.22C379.843 126.22 380.227 126.29 380.567 126.43C380.913 126.563 381.207 126.75 381.447 126.99L381.007 127.5ZM382.992 124.08H383.772V131.5H382.992V124.08ZM386.482 126.24H387.402L383.692 130.07V129.11L386.482 126.24ZM385.332 128.14L387.612 131.5H386.682L384.752 128.61L385.332 128.14ZM391.856 128.65C391.856 129.35 392.046 129.897 392.426 130.29C392.806 130.677 393.326 130.87 393.986 130.87C394.646 130.87 395.163 130.677 395.536 130.29C395.916 129.903 396.106 129.357 396.106 128.65V124.5H396.896V128.65C396.896 129.257 396.78 129.78 396.546 130.22C396.32 130.653 395.986 130.987 395.546 131.22C395.113 131.447 394.593 131.56 393.986 131.56C393.38 131.56 392.856 131.447 392.416 131.22C391.976 130.987 391.64 130.653 391.406 130.22C391.173 129.78 391.056 129.257 391.056 128.65V124.5H391.856V128.65ZM401.523 124.5C402.403 124.5 403.083 124.707 403.563 125.12C404.043 125.527 404.283 126.1 404.283 126.84C404.283 127.607 404.043 128.203 403.563 128.63C403.083 129.05 402.403 129.26 401.523 129.26H399.663V131.5H398.863V124.5H401.523ZM401.523 128.57C402.156 128.57 402.646 128.427 402.993 128.14C403.346 127.847 403.523 127.42 403.523 126.86C403.523 126.313 403.346 125.9 402.993 125.62C402.646 125.34 402.156 125.2 401.523 125.2H399.663V128.57H401.523ZM401.763 128.93H402.573L404.353 131.5H403.443L401.763 128.93ZM406.089 124.5H406.889V130.81H409.959V131.5H406.089V124.5ZM410.445 124.08H411.165C411.545 124.64 411.835 125.293 412.035 126.04C412.242 126.78 412.345 127.57 412.345 128.41C412.345 129.25 412.242 130.043 412.035 130.79C411.835 131.53 411.545 132.18 411.165 132.74H410.445C410.812 132.18 411.095 131.53 411.295 130.79C411.502 130.043 411.605 129.25 411.605 128.41C411.605 127.57 411.502 126.78 411.295 126.04C411.095 125.293 410.812 124.64 410.445 124.08Z" fill="white"/>
<defs>
<clipPath id="clip0_184_3253">
<rect width="451" height="100" fill="white" transform="translate(148 65)"/>
</clipPath>
</defs>
</svg>
