<svg width="660" height="247" viewBox="0 0 660 247" fill="none" xmlns="http://www.w3.org/2000/svg">
<rect width="660" height="245.75" transform="translate(0 0.375)" />
<rect x="20.75" y="77.625" width="618.5" height="147.5"  stroke="#1E1D1D" stroke-width="1.5"/>
<path d="M27.624 212.019H29.568L33.144 220.419H31.128L28.536 213.915L25.932 220.419H23.964L27.624 212.019ZM26.004 217.263H30.96V218.739H26.004V217.263ZM37.5935 212.019C38.6575 212.019 39.4815 212.275 40.0655 212.787C40.6575 213.291 40.9535 214.003 40.9535 214.923C40.9535 215.891 40.6575 216.647 40.0655 217.191C39.4815 217.727 38.6575 217.995 37.5935 217.995H35.0975L35.9255 217.167V220.419H34.0295V212.019H37.5935ZM37.4975 216.459C38.0255 216.459 38.4335 216.339 38.7215 216.099C39.0095 215.851 39.1535 215.479 39.1535 214.983C39.1535 214.503 39.0095 214.143 38.7215 213.903C38.4335 213.663 38.0255 213.543 37.4975 213.543H35.0975L35.9255 212.715V217.299L35.0975 216.459H37.4975ZM42.1623 212.019H44.0583V220.419H42.1623V212.019ZM55.2424 214.587C54.9624 214.243 54.6264 213.975 54.2344 213.783C53.8424 213.583 53.4504 213.483 53.0584 213.483C52.6984 213.483 52.3624 213.551 52.0504 213.687C51.7464 213.823 51.4744 214.015 51.2344 214.263C51.0024 214.503 50.8224 214.787 50.6944 215.115C50.5664 215.443 50.5024 215.799 50.5024 216.183C50.5024 216.559 50.5664 216.911 50.6944 217.239C50.8224 217.567 51.0024 217.855 51.2344 218.103C51.4744 218.343 51.7464 218.535 52.0504 218.679C52.3624 218.815 52.6984 218.883 53.0584 218.883C53.4424 218.883 53.8264 218.795 54.2104 218.619C54.5944 218.435 54.9384 218.191 55.2424 217.887L56.3584 219.051C56.0624 219.355 55.7264 219.619 55.3504 219.843C54.9824 220.067 54.5944 220.243 54.1864 220.371C53.7784 220.491 53.3704 220.551 52.9624 220.551C52.3304 220.551 51.7464 220.443 51.2104 220.227C50.6824 220.003 50.2184 219.695 49.8184 219.303C49.4264 218.903 49.1184 218.439 48.8944 217.911C48.6704 217.383 48.5584 216.811 48.5584 216.195C48.5584 215.587 48.6704 215.023 48.8944 214.503C49.1184 213.983 49.4344 213.527 49.8424 213.135C50.2504 212.743 50.7224 212.439 51.2584 212.223C51.8024 212.007 52.3944 211.899 53.0344 211.899C53.4424 211.899 53.8464 211.955 54.2464 212.067C54.6544 212.179 55.0344 212.339 55.3864 212.547C55.7464 212.747 56.0664 212.995 56.3464 213.291L55.2424 214.587ZM59.6875 217.623C59.3355 217.623 59.0715 217.683 58.8955 217.803C58.7195 217.923 58.6315 218.115 58.6315 218.379C58.6315 218.635 58.7195 218.839 58.8955 218.991C59.0795 219.135 59.3275 219.207 59.6395 219.207C59.9115 219.207 60.1515 219.163 60.3595 219.075C60.5755 218.979 60.7515 218.855 60.8875 218.703C61.0315 218.543 61.1195 218.359 61.1515 218.151L61.4275 219.183C61.2435 219.615 60.9555 219.943 60.5635 220.167C60.1715 220.391 59.6915 220.503 59.1235 220.503C58.6675 220.503 58.2715 220.415 57.9355 220.239C57.6075 220.063 57.3515 219.823 57.1675 219.519C56.9915 219.215 56.9035 218.871 56.9035 218.487C56.9035 217.887 57.1155 217.415 57.5395 217.071C57.9635 216.727 58.5715 216.551 59.3635 216.543H61.3315V217.623H59.6875ZM61.1395 216.423C61.1395 216.071 61.0235 215.795 60.7915 215.595C60.5675 215.395 60.2355 215.295 59.7955 215.295C59.5075 215.295 59.1995 215.347 58.8715 215.451C58.5435 215.547 58.2115 215.687 57.8755 215.871L57.2995 214.671C57.6195 214.503 57.9315 214.363 58.2355 214.251C58.5395 214.139 58.8515 214.055 59.1715 213.999C59.4915 213.935 59.8395 213.903 60.2155 213.903C61.0875 213.903 61.7595 214.107 62.2315 214.515C62.7035 214.923 62.9435 215.487 62.9515 216.207L62.9635 220.419H61.1515L61.1395 216.423ZM64.616 211.515H66.464V220.419H64.616V211.515ZM68.3777 211.515H70.2257V220.419H68.3777V211.515Z" fill="#1E1D1D"/>
<g clip-path="url(#clip0_184_2790)">
<line x1="148.5" y1="581" x2="148.5" y2="66" stroke="#1E1D1D" stroke-linejoin="bevel" stroke-dasharray="8 8"/>
<line x1="298.5" y1="581" x2="298.5" y2="66" stroke="#1E1D1D" stroke-linejoin="bevel" stroke-dasharray="8 8"/>
<line x1="448.5" y1="581" x2="448.5" y2="66" stroke="#1E1D1D" stroke-linejoin="bevel" stroke-dasharray="8 8"/>
<line x1="598.5" y1="581" x2="598.5" y2="66" stroke="#1E1D1D" stroke-linejoin="bevel" stroke-dasharray="8 8"/>
</g>
<rect x="116.5" y="20.875" width="66" height="49" />
<rect x="116.5" y="20.875" width="66" height="49" stroke="#1E1D1D"/>
<path d="M138.588 45.919C138.588 46.535 138.76 47.023 139.104 47.383C139.448 47.735 139.9 47.911 140.46 47.911C141.004 47.911 141.44 47.735 141.768 47.383C142.104 47.023 142.272 46.535 142.272 45.919V40.975H144.168V45.919C144.168 46.647 144.016 47.283 143.712 47.827C143.416 48.363 142.988 48.779 142.428 49.075C141.876 49.363 141.216 49.507 140.448 49.507C139.68 49.507 139.012 49.363 138.444 49.075C137.884 48.779 137.452 48.363 137.148 47.827C136.844 47.283 136.692 46.647 136.692 45.919V40.975H138.588V45.919ZM149.903 44.779C149.551 44.587 149.203 44.439 148.859 44.335C148.515 44.223 148.207 44.167 147.935 44.167C147.719 44.167 147.539 44.207 147.395 44.287C147.259 44.367 147.191 44.495 147.191 44.671C147.191 44.839 147.271 44.975 147.431 45.079C147.599 45.175 147.811 45.259 148.067 45.331C148.331 45.403 148.607 45.487 148.895 45.583C149.183 45.671 149.455 45.787 149.711 45.931C149.975 46.075 150.187 46.271 150.347 46.519C150.507 46.759 150.587 47.071 150.587 47.455C150.587 47.887 150.471 48.255 150.239 48.559C150.007 48.855 149.691 49.079 149.291 49.231C148.891 49.375 148.447 49.447 147.959 49.447C147.439 49.447 146.935 49.371 146.447 49.219C145.959 49.067 145.531 48.843 145.163 48.547L145.763 47.347C146.099 47.603 146.467 47.803 146.867 47.947C147.275 48.083 147.655 48.151 148.007 48.151C148.167 48.151 148.307 48.131 148.427 48.091C148.547 48.051 148.643 47.991 148.715 47.911C148.787 47.831 148.823 47.731 148.823 47.611C148.823 47.435 148.743 47.295 148.583 47.191C148.423 47.079 148.215 46.987 147.959 46.915C147.703 46.835 147.431 46.755 147.143 46.675C146.855 46.587 146.583 46.471 146.327 46.327C146.079 46.183 145.875 45.995 145.715 45.763C145.555 45.523 145.475 45.215 145.475 44.839C145.475 44.391 145.591 44.023 145.823 43.735C146.055 43.439 146.363 43.219 146.747 43.075C147.131 42.931 147.555 42.859 148.019 42.859C148.467 42.859 148.907 42.919 149.339 43.039C149.779 43.159 150.179 43.331 150.539 43.555L149.903 44.779ZM156.036 45.631C156.028 45.335 155.964 45.083 155.844 44.875C155.732 44.659 155.568 44.491 155.352 44.371C155.136 44.251 154.888 44.191 154.608 44.191C154.296 44.191 154.024 44.271 153.792 44.431C153.56 44.591 153.38 44.811 153.252 45.091C153.124 45.371 153.06 45.695 153.06 46.063C153.06 46.479 153.132 46.835 153.276 47.131C153.42 47.427 153.624 47.655 153.888 47.815C154.152 47.975 154.456 48.055 154.8 48.055C155.424 48.055 155.968 47.823 156.432 47.359L157.404 48.319C157.084 48.679 156.688 48.955 156.216 49.147C155.752 49.339 155.228 49.435 154.644 49.435C153.956 49.435 153.36 49.299 152.856 49.027C152.352 48.755 151.96 48.375 151.68 47.887C151.408 47.391 151.272 46.819 151.272 46.171C151.272 45.507 151.412 44.931 151.692 44.443C151.972 43.947 152.36 43.563 152.856 43.291C153.36 43.019 153.94 42.879 154.596 42.871C155.356 42.871 155.976 43.031 156.456 43.351C156.944 43.663 157.296 44.107 157.512 44.683C157.736 45.251 157.82 45.927 157.764 46.711H152.796V45.631H156.036ZM162.968 44.527C162.536 44.487 162.156 44.539 161.828 44.683C161.508 44.827 161.26 45.035 161.084 45.307C160.916 45.579 160.832 45.903 160.832 46.279L160.364 46.195C160.364 45.491 160.468 44.891 160.676 44.395C160.892 43.899 161.196 43.519 161.588 43.255C161.98 42.991 162.44 42.859 162.968 42.859V44.527ZM158.984 42.931H160.832V49.375H158.984V42.931Z" fill="#1E1D1D"/>
<rect x="228.5" y="20.875" width="140" height="49" />
<rect x="228.5" y="20.875" width="140" height="49" stroke="#1E1D1D"/>
<path d="M248.437 33.975H250.345L252.493 37.803L254.593 33.975H256.501L252.613 41.139H252.361L248.437 33.975ZM251.545 38.739H253.441V42.375H251.545V38.739ZM259.554 35.871C260.242 35.871 260.846 36.007 261.366 36.279C261.886 36.551 262.29 36.935 262.578 37.431C262.866 37.919 263.01 38.491 263.01 39.147C263.01 39.803 262.866 40.379 262.578 40.875C262.29 41.371 261.886 41.755 261.366 42.027C260.846 42.299 260.242 42.435 259.554 42.435C258.866 42.435 258.258 42.299 257.73 42.027C257.21 41.755 256.806 41.371 256.518 40.875C256.23 40.379 256.086 39.803 256.086 39.147C256.086 38.491 256.23 37.919 256.518 37.431C256.806 36.935 257.21 36.551 257.73 36.279C258.258 36.007 258.866 35.871 259.554 35.871ZM259.554 37.347C259.234 37.347 258.95 37.423 258.702 37.575C258.462 37.727 258.274 37.943 258.138 38.223C258.002 38.495 257.934 38.811 257.934 39.171C257.934 39.531 258.002 39.851 258.138 40.131C258.274 40.403 258.462 40.619 258.702 40.779C258.95 40.931 259.234 41.007 259.554 41.007C259.874 41.007 260.154 40.931 260.394 40.779C260.634 40.619 260.822 40.403 260.958 40.131C261.094 39.851 261.162 39.531 261.162 39.171C261.162 38.811 261.094 38.495 260.958 38.223C260.822 37.943 260.634 37.727 260.394 37.575C260.154 37.423 259.874 37.347 259.554 37.347ZM265.888 39.471C265.888 39.887 265.996 40.215 266.212 40.455C266.428 40.695 266.724 40.815 267.1 40.815C267.548 40.807 267.896 40.643 268.144 40.323C268.4 40.003 268.528 39.599 268.528 39.111H268.972C268.972 39.863 268.864 40.487 268.648 40.983C268.44 41.471 268.14 41.835 267.748 42.075C267.364 42.315 266.904 42.439 266.368 42.447C265.888 42.447 265.476 42.347 265.132 42.147C264.788 41.939 264.52 41.651 264.328 41.283C264.136 40.915 264.04 40.479 264.04 39.975V35.931H265.888V39.471ZM268.528 35.931H270.364V42.375H268.528V35.931ZM276.138 37.527C275.706 37.487 275.326 37.539 274.998 37.683C274.678 37.827 274.43 38.035 274.254 38.307C274.086 38.579 274.002 38.903 274.002 39.279L273.534 39.195C273.534 38.491 273.638 37.891 273.846 37.395C274.062 36.899 274.366 36.519 274.758 36.255C275.15 35.991 275.61 35.859 276.138 35.859V37.527ZM272.154 35.931H274.002V42.375H272.154V35.931ZM282.66 39.579C282.308 39.579 282.044 39.639 281.868 39.759C281.692 39.879 281.604 40.071 281.604 40.335C281.604 40.591 281.692 40.795 281.868 40.947C282.052 41.091 282.3 41.163 282.612 41.163C282.884 41.163 283.124 41.119 283.332 41.031C283.548 40.935 283.724 40.811 283.86 40.659C284.004 40.499 284.092 40.315 284.124 40.107L284.4 41.139C284.216 41.571 283.928 41.899 283.536 42.123C283.144 42.347 282.664 42.459 282.096 42.459C281.64 42.459 281.244 42.371 280.908 42.195C280.58 42.019 280.324 41.779 280.14 41.475C279.964 41.171 279.876 40.827 279.876 40.443C279.876 39.843 280.088 39.371 280.512 39.027C280.936 38.683 281.544 38.507 282.336 38.499H284.304V39.579H282.66ZM284.112 38.379C284.112 38.027 283.996 37.751 283.764 37.551C283.54 37.351 283.208 37.251 282.768 37.251C282.48 37.251 282.172 37.303 281.844 37.407C281.516 37.503 281.184 37.643 280.848 37.827L280.272 36.627C280.592 36.459 280.904 36.319 281.208 36.207C281.512 36.095 281.824 36.011 282.144 35.955C282.464 35.891 282.812 35.859 283.188 35.859C284.06 35.859 284.732 36.063 285.204 36.471C285.676 36.879 285.916 37.443 285.924 38.163L285.936 42.375H284.124L284.112 38.379ZM291.477 35.871C292.085 35.871 292.613 36.011 293.061 36.291C293.517 36.563 293.873 36.947 294.129 37.443C294.385 37.939 294.513 38.519 294.513 39.183C294.513 39.831 294.389 40.399 294.141 40.887C293.893 41.375 293.545 41.755 293.097 42.027C292.649 42.299 292.121 42.435 291.513 42.435C290.953 42.435 290.473 42.307 290.073 42.051C289.673 41.787 289.365 41.411 289.149 40.923C288.933 40.427 288.825 39.847 288.825 39.183C288.825 38.495 288.929 37.903 289.137 37.407C289.353 36.911 289.657 36.531 290.049 36.267C290.449 36.003 290.925 35.871 291.477 35.871ZM291.045 37.311C290.733 37.311 290.453 37.391 290.205 37.551C289.965 37.703 289.777 37.915 289.641 38.187C289.505 38.459 289.437 38.775 289.437 39.135C289.437 39.495 289.505 39.815 289.641 40.095C289.777 40.367 289.965 40.579 290.205 40.731C290.453 40.883 290.733 40.959 291.045 40.959C291.365 40.959 291.645 40.883 291.885 40.731C292.125 40.579 292.309 40.367 292.437 40.095C292.573 39.815 292.641 39.495 292.641 39.135C292.641 38.783 292.573 38.471 292.437 38.199C292.309 37.919 292.125 37.703 291.885 37.551C291.645 37.391 291.365 37.311 291.045 37.311ZM287.589 35.931H289.437V44.703H287.589V35.931ZM299.68 35.871C300.288 35.871 300.816 36.011 301.264 36.291C301.72 36.563 302.076 36.947 302.332 37.443C302.588 37.939 302.716 38.519 302.716 39.183C302.716 39.831 302.592 40.399 302.344 40.887C302.096 41.375 301.748 41.755 301.3 42.027C300.852 42.299 300.324 42.435 299.716 42.435C299.156 42.435 298.676 42.307 298.276 42.051C297.876 41.787 297.568 41.411 297.352 40.923C297.136 40.427 297.028 39.847 297.028 39.183C297.028 38.495 297.132 37.903 297.34 37.407C297.556 36.911 297.86 36.531 298.252 36.267C298.652 36.003 299.128 35.871 299.68 35.871ZM299.248 37.311C298.936 37.311 298.656 37.391 298.408 37.551C298.168 37.703 297.98 37.915 297.844 38.187C297.708 38.459 297.64 38.775 297.64 39.135C297.64 39.495 297.708 39.815 297.844 40.095C297.98 40.367 298.168 40.579 298.408 40.731C298.656 40.883 298.936 40.959 299.248 40.959C299.568 40.959 299.848 40.883 300.088 40.731C300.328 40.579 300.512 40.367 300.64 40.095C300.776 39.815 300.844 39.495 300.844 39.135C300.844 38.783 300.776 38.471 300.64 38.199C300.512 37.919 300.328 37.703 300.088 37.551C299.848 37.391 299.568 37.311 299.248 37.311ZM295.792 35.931H297.64V44.703H295.792V35.931ZM303.995 33.471H305.843V42.375H303.995V33.471ZM307.697 35.931H309.545V42.375H307.697V35.931ZM308.621 33.087C308.917 33.087 309.157 33.183 309.341 33.375C309.533 33.567 309.629 33.807 309.629 34.095C309.629 34.383 309.533 34.623 309.341 34.815C309.157 35.007 308.917 35.103 308.621 35.103C308.341 35.103 308.105 35.007 307.913 34.815C307.721 34.623 307.625 34.383 307.625 34.095C307.625 33.807 307.721 33.567 307.913 33.375C308.105 33.183 308.341 33.087 308.621 33.087ZM315.626 38.067C315.458 37.851 315.25 37.683 315.002 37.563C314.754 37.443 314.47 37.383 314.15 37.383C313.854 37.383 313.59 37.459 313.358 37.611C313.126 37.755 312.942 37.963 312.806 38.235C312.678 38.499 312.614 38.811 312.614 39.171C312.614 39.523 312.678 39.835 312.806 40.107C312.942 40.379 313.126 40.591 313.358 40.743C313.59 40.887 313.854 40.959 314.15 40.959C314.478 40.959 314.77 40.899 315.026 40.779C315.282 40.651 315.49 40.463 315.65 40.215L316.922 41.055C316.65 41.495 316.266 41.835 315.77 42.075C315.282 42.315 314.714 42.435 314.066 42.435C313.41 42.435 312.834 42.299 312.338 42.027C311.842 41.755 311.454 41.375 311.174 40.887C310.902 40.391 310.766 39.819 310.766 39.171C310.766 38.515 310.902 37.939 311.174 37.443C311.454 36.947 311.842 36.563 312.338 36.291C312.842 36.011 313.418 35.871 314.066 35.871C314.69 35.871 315.242 35.987 315.722 36.219C316.202 36.443 316.586 36.763 316.874 37.179L315.626 38.067ZM320.184 39.579C319.832 39.579 319.568 39.639 319.392 39.759C319.216 39.879 319.128 40.071 319.128 40.335C319.128 40.591 319.216 40.795 319.392 40.947C319.576 41.091 319.824 41.163 320.136 41.163C320.408 41.163 320.648 41.119 320.856 41.031C321.072 40.935 321.248 40.811 321.384 40.659C321.528 40.499 321.616 40.315 321.648 40.107L321.924 41.139C321.74 41.571 321.452 41.899 321.06 42.123C320.668 42.347 320.188 42.459 319.62 42.459C319.164 42.459 318.768 42.371 318.432 42.195C318.104 42.019 317.848 41.779 317.664 41.475C317.488 41.171 317.4 40.827 317.4 40.443C317.4 39.843 317.612 39.371 318.036 39.027C318.46 38.683 319.068 38.507 319.86 38.499H321.828V39.579H320.184ZM321.636 38.379C321.636 38.027 321.52 37.751 321.288 37.551C321.064 37.351 320.732 37.251 320.292 37.251C320.004 37.251 319.696 37.303 319.368 37.407C319.04 37.503 318.708 37.643 318.372 37.827L317.796 36.627C318.116 36.459 318.428 36.319 318.732 36.207C319.036 36.095 319.348 36.011 319.668 35.955C319.988 35.891 320.336 35.859 320.712 35.859C321.584 35.859 322.256 36.063 322.728 36.471C323.2 36.879 323.44 37.443 323.448 38.163L323.46 42.375H321.648L321.636 38.379ZM327.176 40.179C327.176 40.467 327.232 40.671 327.344 40.791C327.456 40.903 327.608 40.955 327.8 40.947C327.92 40.947 328.052 40.927 328.196 40.887C328.34 40.847 328.496 40.787 328.664 40.707L329.048 42.003C328.808 42.147 328.544 42.259 328.256 42.339C327.968 42.419 327.672 42.459 327.368 42.459C326.984 42.459 326.636 42.387 326.324 42.243C326.02 42.099 325.78 41.879 325.604 41.583C325.428 41.287 325.34 40.919 325.34 40.479V34.431H327.176V40.179ZM324.44 36.207H328.928V37.443H324.44V36.207ZM330.161 35.931H332.009V42.375H330.161V35.931ZM331.085 33.087C331.381 33.087 331.621 33.183 331.805 33.375C331.997 33.567 332.093 33.807 332.093 34.095C332.093 34.383 331.997 34.623 331.805 34.815C331.621 35.007 331.381 35.103 331.085 35.103C330.805 35.103 330.569 35.007 330.377 34.815C330.185 34.623 330.089 34.383 330.089 34.095C330.089 33.807 330.185 33.567 330.377 33.375C330.569 33.183 330.805 33.087 331.085 33.087ZM336.699 35.871C337.387 35.871 337.991 36.007 338.511 36.279C339.031 36.551 339.435 36.935 339.723 37.431C340.011 37.919 340.155 38.491 340.155 39.147C340.155 39.803 340.011 40.379 339.723 40.875C339.435 41.371 339.031 41.755 338.511 42.027C337.991 42.299 337.387 42.435 336.699 42.435C336.011 42.435 335.403 42.299 334.875 42.027C334.355 41.755 333.951 41.371 333.663 40.875C333.375 40.379 333.231 39.803 333.231 39.147C333.231 38.491 333.375 37.919 333.663 37.431C333.951 36.935 334.355 36.551 334.875 36.279C335.403 36.007 336.011 35.871 336.699 35.871ZM336.699 37.347C336.379 37.347 336.095 37.423 335.847 37.575C335.607 37.727 335.419 37.943 335.283 38.223C335.147 38.495 335.079 38.811 335.079 39.171C335.079 39.531 335.147 39.851 335.283 40.131C335.419 40.403 335.607 40.619 335.847 40.779C336.095 40.931 336.379 41.007 336.699 41.007C337.019 41.007 337.299 40.931 337.539 40.779C337.779 40.619 337.967 40.403 338.103 40.131C338.239 39.851 338.307 39.531 338.307 39.171C338.307 38.811 338.239 38.495 338.103 38.223C337.967 37.943 337.779 37.727 337.539 37.575C337.299 37.423 337.019 37.347 336.699 37.347ZM345.972 38.847C345.972 38.423 345.856 38.091 345.624 37.851C345.4 37.611 345.092 37.491 344.7 37.491C344.244 37.499 343.884 37.663 343.62 37.983C343.356 38.303 343.224 38.707 343.224 39.195H342.756C342.756 38.443 342.864 37.823 343.08 37.335C343.304 36.839 343.616 36.471 344.016 36.231C344.424 35.983 344.904 35.859 345.456 35.859C345.936 35.859 346.352 35.963 346.704 36.171C347.064 36.371 347.34 36.655 347.532 37.023C347.724 37.391 347.82 37.827 347.82 38.331V42.375H345.972V38.847ZM341.376 35.931H343.224V42.375H341.376V35.931ZM280.31 48.471C279.87 49.167 279.518 49.963 279.254 50.859C278.998 51.747 278.87 52.683 278.87 53.667C278.87 54.651 278.998 55.591 279.254 56.487C279.518 57.375 279.87 58.167 280.31 58.863H278.654C278.166 58.167 277.79 57.375 277.526 56.487C277.27 55.591 277.142 54.651 277.142 53.667C277.142 52.683 277.27 51.747 277.526 50.859C277.79 49.963 278.166 49.167 278.654 48.471H280.31ZM287.602 51.543C287.322 51.199 286.986 50.931 286.594 50.739C286.202 50.539 285.81 50.439 285.418 50.439C285.058 50.439 284.722 50.507 284.41 50.643C284.106 50.779 283.834 50.971 283.594 51.219C283.362 51.459 283.182 51.743 283.054 52.071C282.926 52.399 282.862 52.755 282.862 53.139C282.862 53.515 282.926 53.867 283.054 54.195C283.182 54.523 283.362 54.811 283.594 55.059C283.834 55.299 284.106 55.491 284.41 55.635C284.722 55.771 285.058 55.839 285.418 55.839C285.802 55.839 286.186 55.751 286.57 55.575C286.954 55.391 287.298 55.147 287.602 54.843L288.718 56.007C288.422 56.311 288.086 56.575 287.71 56.799C287.342 57.023 286.954 57.199 286.546 57.327C286.138 57.447 285.73 57.507 285.322 57.507C284.69 57.507 284.106 57.399 283.57 57.183C283.042 56.959 282.578 56.651 282.178 56.259C281.786 55.859 281.478 55.395 281.254 54.867C281.03 54.339 280.918 53.767 280.918 53.151C280.918 52.543 281.03 51.979 281.254 51.459C281.478 50.939 281.794 50.483 282.202 50.091C282.61 49.699 283.082 49.395 283.618 49.179C284.162 48.963 284.754 48.855 285.394 48.855C285.802 48.855 286.206 48.911 286.606 49.023C287.014 49.135 287.394 49.295 287.746 49.503C288.106 49.703 288.426 49.951 288.706 50.247L287.602 51.543ZM289.874 48.471H291.722V57.375H289.874V48.471ZM293.576 50.931H295.424V57.375H293.576V50.931ZM294.5 48.087C294.796 48.087 295.036 48.183 295.22 48.375C295.412 48.567 295.508 48.807 295.508 49.095C295.508 49.383 295.412 49.623 295.22 49.815C295.036 50.007 294.796 50.103 294.5 50.103C294.22 50.103 293.984 50.007 293.792 49.815C293.6 49.623 293.504 49.383 293.504 49.095C293.504 48.807 293.6 48.567 293.792 48.375C293.984 48.183 294.22 48.087 294.5 48.087ZM301.409 53.631C301.401 53.335 301.337 53.083 301.217 52.875C301.105 52.659 300.941 52.491 300.725 52.371C300.509 52.251 300.261 52.191 299.981 52.191C299.669 52.191 299.397 52.271 299.165 52.431C298.933 52.591 298.753 52.811 298.625 53.091C298.497 53.371 298.433 53.695 298.433 54.063C298.433 54.479 298.505 54.835 298.649 55.131C298.793 55.427 298.997 55.655 299.261 55.815C299.525 55.975 299.829 56.055 300.173 56.055C300.797 56.055 301.341 55.823 301.805 55.359L302.777 56.319C302.457 56.679 302.061 56.955 301.589 57.147C301.125 57.339 300.601 57.435 300.017 57.435C299.329 57.435 298.733 57.299 298.229 57.027C297.725 56.755 297.333 56.375 297.053 55.887C296.781 55.391 296.645 54.819 296.645 54.171C296.645 53.507 296.785 52.931 297.065 52.443C297.345 51.947 297.733 51.563 298.229 51.291C298.733 51.019 299.313 50.879 299.969 50.871C300.729 50.871 301.349 51.031 301.829 51.351C302.317 51.663 302.669 52.107 302.885 52.683C303.109 53.251 303.193 53.927 303.137 54.711H298.169V53.631H301.409ZM308.953 53.847C308.953 53.423 308.837 53.091 308.605 52.851C308.381 52.611 308.073 52.491 307.681 52.491C307.225 52.499 306.865 52.663 306.601 52.983C306.337 53.303 306.205 53.707 306.205 54.195H305.737C305.737 53.443 305.845 52.823 306.061 52.335C306.285 51.839 306.597 51.471 306.997 51.231C307.405 50.983 307.885 50.859 308.437 50.859C308.917 50.859 309.333 50.963 309.685 51.171C310.045 51.371 310.321 51.655 310.513 52.023C310.705 52.391 310.801 52.827 310.801 53.331V57.375H308.953V53.847ZM304.357 50.931H306.205V57.375H304.357V50.931ZM314.52 55.179C314.52 55.467 314.576 55.671 314.688 55.791C314.8 55.903 314.952 55.955 315.144 55.947C315.264 55.947 315.396 55.927 315.54 55.887C315.684 55.847 315.84 55.787 316.008 55.707L316.392 57.003C316.152 57.147 315.888 57.259 315.6 57.339C315.312 57.419 315.016 57.459 314.712 57.459C314.328 57.459 313.98 57.387 313.668 57.243C313.364 57.099 313.124 56.879 312.948 56.583C312.772 56.287 312.684 55.919 312.684 55.479V49.431H314.52V55.179ZM311.784 51.207H316.272V52.443H311.784V51.207ZM316.689 48.471H318.357C318.845 49.167 319.217 49.963 319.473 50.859C319.737 51.747 319.869 52.683 319.869 53.667C319.869 54.651 319.737 55.591 319.473 56.487C319.217 57.375 318.845 58.167 318.357 58.863H316.689C317.129 58.167 317.477 57.375 317.733 56.487C317.997 55.591 318.129 54.651 318.129 53.667C318.129 52.683 317.997 51.747 317.733 50.859C317.477 49.963 317.129 49.167 316.689 48.471Z" fill="#1E1D1D"/>
<rect x="404.5" y="20.875" width="89" height="49" />
<rect x="404.5" y="20.875" width="89" height="49" stroke="#1E1D1D"/>
<path d="M445.144 36.255C444.848 36.071 444.54 35.919 444.22 35.799C443.908 35.671 443.604 35.575 443.308 35.511C443.02 35.439 442.76 35.403 442.528 35.403C442.208 35.403 441.948 35.467 441.748 35.595C441.556 35.715 441.46 35.899 441.46 36.147C441.46 36.379 441.54 36.571 441.7 36.723C441.868 36.867 442.084 36.987 442.348 37.083C442.612 37.171 442.904 37.263 443.224 37.359C443.544 37.447 443.86 37.551 444.172 37.671C444.492 37.791 444.784 37.947 445.048 38.139C445.32 38.323 445.532 38.563 445.684 38.859C445.844 39.147 445.924 39.507 445.924 39.939C445.924 40.483 445.78 40.943 445.492 41.319C445.204 41.695 444.808 41.983 444.304 42.183C443.808 42.383 443.252 42.483 442.636 42.483C442.172 42.483 441.716 42.427 441.268 42.315C440.82 42.203 440.396 42.047 439.996 41.847C439.604 41.639 439.248 41.399 438.928 41.127L439.684 39.639C439.972 39.895 440.288 40.119 440.632 40.311C440.984 40.503 441.336 40.651 441.688 40.755C442.039 40.859 442.364 40.911 442.66 40.911C443.052 40.911 443.356 40.835 443.572 40.683C443.796 40.531 443.908 40.315 443.908 40.035C443.908 39.795 443.828 39.603 443.668 39.459C443.508 39.315 443.296 39.195 443.032 39.099C442.768 38.995 442.476 38.903 442.156 38.823C441.836 38.735 441.516 38.635 441.196 38.523C440.876 38.403 440.584 38.255 440.32 38.079C440.056 37.895 439.84 37.663 439.672 37.383C439.512 37.103 439.432 36.747 439.432 36.315C439.432 35.803 439.568 35.363 439.84 34.995C440.112 34.619 440.492 34.331 440.98 34.131C441.468 33.923 442.036 33.819 442.684 33.819C443.276 33.819 443.852 33.907 444.412 34.083C444.972 34.251 445.46 34.471 445.876 34.743L445.144 36.255ZM447.252 33.975H449.148V42.375H447.252V33.975ZM454.566 33.975C455.222 33.975 455.818 34.079 456.354 34.287C456.898 34.487 457.366 34.775 457.758 35.151C458.15 35.519 458.454 35.959 458.67 36.471C458.886 36.983 458.994 37.551 458.994 38.175C458.994 38.791 458.886 39.355 458.67 39.867C458.454 40.379 458.146 40.823 457.746 41.199C457.346 41.575 456.87 41.867 456.318 42.075C455.774 42.275 455.17 42.375 454.506 42.375H451.014V33.975H454.566ZM454.614 40.827C454.974 40.827 455.302 40.763 455.598 40.635C455.894 40.507 456.15 40.327 456.366 40.095C456.59 39.855 456.762 39.575 456.882 39.255C457.002 38.935 457.062 38.579 457.062 38.187C457.062 37.795 456.998 37.439 456.87 37.119C456.742 36.791 456.566 36.507 456.342 36.267C456.118 36.019 455.85 35.831 455.538 35.703C455.234 35.575 454.898 35.511 454.53 35.511H452.91V40.827H454.614ZM437.653 48.975H439.597L443.173 57.375H441.157L438.565 50.871L435.961 57.375H433.993L437.653 48.975ZM436.033 54.219H440.989V55.695H436.033V54.219ZM445.386 54.471C445.386 54.887 445.494 55.215 445.71 55.455C445.926 55.695 446.222 55.815 446.598 55.815C447.046 55.807 447.394 55.643 447.642 55.323C447.898 55.003 448.026 54.599 448.026 54.111H448.47C448.47 54.863 448.362 55.487 448.146 55.983C447.938 56.471 447.638 56.835 447.246 57.075C446.862 57.315 446.402 57.439 445.866 57.447C445.386 57.447 444.974 57.347 444.63 57.147C444.286 56.939 444.018 56.651 443.826 56.283C443.634 55.915 443.538 55.479 443.538 54.975V50.931H445.386V54.471ZM448.026 50.931H449.862V57.375H448.026V50.931ZM453.776 55.179C453.776 55.467 453.832 55.671 453.944 55.791C454.056 55.903 454.208 55.955 454.4 55.947C454.52 55.947 454.652 55.927 454.796 55.887C454.94 55.847 455.096 55.787 455.264 55.707L455.648 57.003C455.408 57.147 455.144 57.259 454.856 57.339C454.568 57.419 454.272 57.459 453.968 57.459C453.584 57.459 453.236 57.387 452.924 57.243C452.62 57.099 452.38 56.879 452.204 56.583C452.028 56.287 451.94 55.919 451.94 55.479V49.431H453.776V55.179ZM451.04 51.207H455.528V52.443H451.04V51.207ZM461.429 53.847C461.429 53.423 461.313 53.091 461.081 52.851C460.857 52.611 460.549 52.491 460.157 52.491C459.693 52.499 459.329 52.663 459.065 52.983C458.801 53.303 458.669 53.707 458.669 54.195H458.213C458.213 53.443 458.321 52.823 458.537 52.335C458.753 51.839 459.061 51.471 459.461 51.231C459.869 50.983 460.349 50.859 460.901 50.859C461.389 50.859 461.809 50.963 462.161 51.171C462.521 51.371 462.797 51.655 462.989 52.023C463.181 52.391 463.277 52.827 463.277 53.331V57.375H461.429V53.847ZM456.821 48.471H458.669V57.375H456.821V48.471Z" fill="#1E1D1D"/>
<rect x="558.5" y="20.875" width="81" height="49" />
<rect x="558.5" y="20.875" width="81" height="49" stroke="#1E1D1D"/>
<path d="M595.144 36.255C594.848 36.071 594.54 35.919 594.22 35.799C593.908 35.671 593.604 35.575 593.308 35.511C593.02 35.439 592.76 35.403 592.528 35.403C592.208 35.403 591.948 35.467 591.748 35.595C591.556 35.715 591.46 35.899 591.46 36.147C591.46 36.379 591.54 36.571 591.7 36.723C591.868 36.867 592.084 36.987 592.348 37.083C592.612 37.171 592.904 37.263 593.224 37.359C593.544 37.447 593.86 37.551 594.172 37.671C594.492 37.791 594.784 37.947 595.048 38.139C595.32 38.323 595.532 38.563 595.684 38.859C595.844 39.147 595.924 39.507 595.924 39.939C595.924 40.483 595.78 40.943 595.492 41.319C595.204 41.695 594.808 41.983 594.304 42.183C593.808 42.383 593.252 42.483 592.636 42.483C592.172 42.483 591.716 42.427 591.268 42.315C590.82 42.203 590.396 42.047 589.996 41.847C589.604 41.639 589.248 41.399 588.928 41.127L589.684 39.639C589.972 39.895 590.288 40.119 590.632 40.311C590.984 40.503 591.336 40.651 591.688 40.755C592.039 40.859 592.364 40.911 592.66 40.911C593.052 40.911 593.356 40.835 593.572 40.683C593.796 40.531 593.908 40.315 593.908 40.035C593.908 39.795 593.828 39.603 593.668 39.459C593.508 39.315 593.296 39.195 593.032 39.099C592.768 38.995 592.476 38.903 592.156 38.823C591.836 38.735 591.516 38.635 591.196 38.523C590.876 38.403 590.584 38.255 590.32 38.079C590.056 37.895 589.84 37.663 589.672 37.383C589.512 37.103 589.432 36.747 589.432 36.315C589.432 35.803 589.568 35.363 589.84 34.995C590.112 34.619 590.492 34.331 590.98 34.131C591.468 33.923 592.036 33.819 592.684 33.819C593.276 33.819 593.852 33.907 594.412 34.083C594.972 34.251 595.46 34.471 595.876 34.743L595.144 36.255ZM597.252 33.975H599.148V42.375H597.252V33.975ZM604.566 33.975C605.222 33.975 605.818 34.079 606.354 34.287C606.898 34.487 607.366 34.775 607.758 35.151C608.15 35.519 608.454 35.959 608.67 36.471C608.886 36.983 608.994 37.551 608.994 38.175C608.994 38.791 608.886 39.355 608.67 39.867C608.454 40.379 608.146 40.823 607.746 41.199C607.346 41.575 606.87 41.867 606.318 42.075C605.774 42.275 605.17 42.375 604.506 42.375H601.014V33.975H604.566ZM604.614 40.827C604.974 40.827 605.302 40.763 605.598 40.635C605.894 40.507 606.15 40.327 606.366 40.095C606.59 39.855 606.762 39.575 606.882 39.255C607.002 38.935 607.062 38.579 607.062 38.187C607.062 37.795 606.998 37.439 606.87 37.119C606.742 36.791 606.566 36.507 606.342 36.267C606.118 36.019 605.85 35.831 605.538 35.703C605.234 35.575 604.898 35.511 604.53 35.511H602.91V40.827H604.614ZM592.124 48.975H594.068L597.644 57.375H595.628L593.036 50.871L590.432 57.375H588.464L592.124 48.975ZM590.504 54.219H595.46V55.695H590.504V54.219ZM602.093 48.975C603.157 48.975 603.981 49.231 604.565 49.743C605.157 50.247 605.453 50.959 605.453 51.879C605.453 52.847 605.157 53.603 604.565 54.147C603.981 54.683 603.157 54.951 602.093 54.951H599.597L600.425 54.123V57.375H598.529V48.975H602.093ZM601.997 53.415C602.525 53.415 602.933 53.295 603.221 53.055C603.509 52.807 603.653 52.435 603.653 51.939C603.653 51.459 603.509 51.099 603.221 50.859C602.933 50.619 602.525 50.499 601.997 50.499H599.597L600.425 49.671V54.255L599.597 53.415H601.997ZM606.662 48.975H608.558V57.375H606.662V48.975Z" fill="#1E1D1D"/>
<path d="M297.854 113.979C298.049 113.783 298.049 113.467 297.854 113.271L294.672 110.089C294.476 109.894 294.16 109.894 293.964 110.089C293.769 110.285 293.769 110.601 293.964 110.797L296.793 113.625L293.964 116.453C293.769 116.649 293.769 116.965 293.964 117.161C294.16 117.356 294.476 117.356 294.672 117.161L297.854 113.979ZM149 114.125H297.5V113.125H149V114.125Z" fill="#1E1D1D"/>
<path d="M192.193 123.425C192.193 123.898 192.323 124.272 192.583 124.545C192.843 124.812 193.199 124.945 193.653 124.945C194.199 124.932 194.623 124.742 194.923 124.375C195.229 124.008 195.383 123.532 195.383 122.945H195.643C195.643 123.558 195.549 124.065 195.363 124.465C195.183 124.858 194.923 125.152 194.583 125.345C194.249 125.538 193.849 125.638 193.383 125.645C192.976 125.645 192.626 125.565 192.333 125.405C192.039 125.238 191.813 125.002 191.653 124.695C191.493 124.388 191.413 124.025 191.413 123.605V120.365H192.193V123.425ZM195.383 120.365H196.163V125.625H195.383V120.365ZM200.847 121.365C200.641 121.238 200.411 121.138 200.157 121.065C199.904 120.992 199.657 120.955 199.417 120.955C199.124 120.955 198.877 121.015 198.677 121.135C198.477 121.248 198.377 121.435 198.377 121.695C198.377 121.895 198.447 122.055 198.587 122.175C198.734 122.288 198.917 122.385 199.137 122.465C199.364 122.538 199.601 122.612 199.847 122.685C200.094 122.758 200.331 122.852 200.557 122.965C200.784 123.072 200.967 123.222 201.107 123.415C201.247 123.608 201.317 123.862 201.317 124.175C201.317 124.515 201.224 124.795 201.037 125.015C200.857 125.228 200.621 125.388 200.327 125.495C200.041 125.595 199.727 125.645 199.387 125.645C199.014 125.645 198.647 125.582 198.287 125.455C197.927 125.328 197.621 125.148 197.367 124.915L197.667 124.385C197.894 124.592 198.164 124.755 198.477 124.875C198.797 124.988 199.111 125.045 199.417 125.045C199.624 125.045 199.811 125.018 199.977 124.965C200.151 124.905 200.287 124.818 200.387 124.705C200.494 124.585 200.547 124.435 200.547 124.255C200.554 124.035 200.487 123.865 200.347 123.745C200.214 123.618 200.034 123.515 199.807 123.435C199.587 123.355 199.351 123.278 199.097 123.205C198.851 123.132 198.614 123.042 198.387 122.935C198.167 122.822 197.987 122.675 197.847 122.495C197.707 122.308 197.637 122.058 197.637 121.745C197.637 121.418 197.724 121.152 197.897 120.945C198.071 120.738 198.294 120.585 198.567 120.485C198.847 120.385 199.147 120.335 199.467 120.335C199.781 120.335 200.084 120.378 200.377 120.465C200.671 120.545 200.927 120.658 201.147 120.805L200.847 121.365ZM206.438 122.685C206.425 122.332 206.342 122.028 206.188 121.775C206.042 121.515 205.838 121.315 205.578 121.175C205.325 121.035 205.025 120.965 204.678 120.965C204.312 120.965 203.988 121.048 203.708 121.215C203.435 121.382 203.218 121.615 203.058 121.915C202.898 122.215 202.818 122.565 202.818 122.965C202.818 123.378 202.898 123.742 203.058 124.055C203.225 124.362 203.455 124.602 203.748 124.775C204.042 124.948 204.375 125.035 204.748 125.035C205.415 125.035 205.958 124.808 206.378 124.355L206.808 124.785C206.555 125.058 206.248 125.272 205.888 125.425C205.528 125.572 205.132 125.645 204.698 125.645C204.178 125.645 203.718 125.535 203.318 125.315C202.925 125.088 202.618 124.775 202.398 124.375C202.178 123.975 202.068 123.515 202.068 122.995C202.068 122.475 202.178 122.018 202.398 121.625C202.618 121.225 202.925 120.915 203.318 120.695C203.718 120.468 204.172 120.352 204.678 120.345C205.245 120.345 205.715 120.468 206.088 120.715C206.462 120.955 206.735 121.295 206.908 121.735C207.088 122.168 207.162 122.678 207.128 123.265H202.678V122.685H206.438ZM211.147 121.055C210.754 121.048 210.414 121.132 210.127 121.305C209.847 121.472 209.631 121.708 209.477 122.015C209.324 122.315 209.247 122.668 209.247 123.075L208.977 123.045C208.977 122.472 209.064 121.985 209.237 121.585C209.411 121.185 209.661 120.878 209.987 120.665C210.314 120.452 210.701 120.345 211.147 120.345V121.055ZM208.477 120.365H209.257V125.625H208.477V120.365ZM214.63 120.365H215.4V125.625H214.63V120.365ZM215.01 118.355C215.156 118.355 215.276 118.405 215.37 118.505C215.47 118.598 215.52 118.718 215.52 118.865C215.52 119.005 215.47 119.125 215.37 119.225C215.276 119.325 215.156 119.375 215.01 119.375C214.87 119.375 214.75 119.325 214.65 119.225C214.55 119.125 214.5 119.005 214.5 118.865C214.5 118.718 214.55 118.598 214.65 118.505C214.75 118.405 214.87 118.355 215.01 118.355ZM221.336 122.575C221.336 122.095 221.202 121.722 220.936 121.455C220.676 121.182 220.312 121.045 219.846 121.045C219.286 121.052 218.849 121.242 218.536 121.615C218.222 121.982 218.066 122.458 218.066 123.045H217.796C217.796 122.432 217.889 121.928 218.076 121.535C218.262 121.135 218.529 120.838 218.876 120.645C219.229 120.445 219.642 120.345 220.116 120.345C220.536 120.345 220.896 120.428 221.196 120.595C221.496 120.762 221.722 120.998 221.876 121.305C222.036 121.605 222.116 121.968 222.116 122.395V125.625H221.336V122.575ZM217.296 120.365H218.076V125.625H217.296V120.365ZM224.818 124.045C224.818 124.378 224.878 124.618 224.998 124.765C225.118 124.905 225.292 124.975 225.518 124.975C225.652 124.968 225.788 124.945 225.928 124.905C226.068 124.858 226.212 124.788 226.358 124.695L226.578 125.265C226.398 125.385 226.205 125.482 225.998 125.555C225.798 125.622 225.595 125.655 225.388 125.655C225.128 125.655 224.898 125.605 224.698 125.505C224.498 125.398 224.338 125.235 224.218 125.015C224.105 124.795 224.048 124.512 224.048 124.165V119.165H224.818V124.045ZM223.288 120.525H226.488V121.105H223.288V120.525ZM231.507 122.685C231.493 122.332 231.41 122.028 231.257 121.775C231.11 121.515 230.907 121.315 230.647 121.175C230.393 121.035 230.093 120.965 229.747 120.965C229.38 120.965 229.057 121.048 228.777 121.215C228.503 121.382 228.287 121.615 228.127 121.915C227.967 122.215 227.887 122.565 227.887 122.965C227.887 123.378 227.967 123.742 228.127 124.055C228.293 124.362 228.523 124.602 228.817 124.775C229.11 124.948 229.443 125.035 229.817 125.035C230.483 125.035 231.027 124.808 231.447 124.355L231.877 124.785C231.623 125.058 231.317 125.272 230.957 125.425C230.597 125.572 230.2 125.645 229.767 125.645C229.247 125.645 228.787 125.535 228.387 125.315C227.993 125.088 227.687 124.775 227.467 124.375C227.247 123.975 227.137 123.515 227.137 122.995C227.137 122.475 227.247 122.018 227.467 121.625C227.687 121.225 227.993 120.915 228.387 120.695C228.787 120.468 229.24 120.352 229.747 120.345C230.313 120.345 230.783 120.468 231.157 120.715C231.53 120.955 231.803 121.295 231.977 121.735C232.157 122.168 232.23 122.678 232.197 123.265H227.747V122.685H231.507ZM236.216 121.055C235.822 121.048 235.482 121.132 235.196 121.305C234.916 121.472 234.699 121.708 234.546 122.015C234.392 122.315 234.316 122.668 234.316 123.075L234.046 123.045C234.046 122.472 234.132 121.985 234.306 121.585C234.479 121.185 234.729 120.878 235.056 120.665C235.382 120.452 235.769 120.345 236.216 120.345V121.055ZM233.546 120.365H234.326V125.625H233.546V120.365ZM238.632 123.155C238.193 123.155 237.859 123.228 237.633 123.375C237.406 123.522 237.293 123.745 237.293 124.045C237.293 124.345 237.399 124.588 237.613 124.775C237.833 124.955 238.129 125.045 238.503 125.045C238.809 125.045 239.086 124.995 239.333 124.895C239.579 124.795 239.783 124.652 239.943 124.465C240.109 124.278 240.223 124.052 240.283 123.785L240.483 124.415C240.296 124.835 240.019 125.148 239.653 125.355C239.286 125.555 238.853 125.655 238.353 125.655C237.993 125.655 237.676 125.585 237.403 125.445C237.136 125.305 236.929 125.115 236.783 124.875C236.636 124.635 236.563 124.365 236.563 124.065C236.563 123.612 236.736 123.252 237.083 122.985C237.429 122.718 237.913 122.582 238.533 122.575H240.403V123.155H238.632ZM240.263 122.225C240.263 121.825 240.143 121.515 239.903 121.295C239.669 121.075 239.319 120.965 238.853 120.965C238.559 120.965 238.276 121.018 238.003 121.125C237.729 121.232 237.456 121.382 237.183 121.575L236.853 121.065C237.079 120.912 237.299 120.782 237.513 120.675C237.726 120.568 237.953 120.488 238.193 120.435C238.433 120.375 238.703 120.345 239.002 120.345C239.656 120.345 240.156 120.508 240.503 120.835C240.849 121.155 241.026 121.595 241.033 122.155L241.043 125.625H240.283L240.263 122.225ZM246.454 121.625C246.261 121.432 246.031 121.282 245.764 121.175C245.504 121.062 245.214 121.005 244.894 121.005C244.534 121.005 244.211 121.088 243.924 121.255C243.644 121.422 243.424 121.655 243.264 121.955C243.104 122.255 243.024 122.602 243.024 122.995C243.024 123.388 243.104 123.738 243.264 124.045C243.424 124.345 243.644 124.582 243.924 124.755C244.211 124.922 244.534 125.005 244.894 125.005C245.234 125.005 245.544 124.948 245.824 124.835C246.104 124.715 246.341 124.542 246.534 124.315L246.974 124.755C246.741 125.035 246.444 125.255 246.084 125.415C245.724 125.568 245.317 125.645 244.864 125.645C244.357 125.645 243.907 125.535 243.514 125.315C243.121 125.088 242.811 124.775 242.584 124.375C242.364 123.975 242.254 123.515 242.254 122.995C242.254 122.475 242.364 122.018 242.584 121.625C242.811 121.225 243.121 120.912 243.514 120.685C243.907 120.458 244.357 120.345 244.864 120.345C245.291 120.345 245.674 120.415 246.014 120.555C246.361 120.688 246.654 120.875 246.894 121.115L246.454 121.625ZM249.349 124.045C249.349 124.378 249.409 124.618 249.529 124.765C249.649 124.905 249.823 124.975 250.049 124.975C250.183 124.968 250.319 124.945 250.459 124.905C250.599 124.858 250.743 124.788 250.889 124.695L251.109 125.265C250.929 125.385 250.736 125.482 250.529 125.555C250.329 125.622 250.126 125.655 249.919 125.655C249.659 125.655 249.429 125.605 249.229 125.505C249.029 125.398 248.869 125.235 248.749 125.015C248.636 124.795 248.579 124.512 248.579 124.165V119.165H249.349V124.045ZM247.819 120.525H251.019V121.105H247.819V120.525ZM255.056 121.365C254.85 121.238 254.62 121.138 254.366 121.065C254.113 120.992 253.866 120.955 253.626 120.955C253.333 120.955 253.086 121.015 252.886 121.135C252.686 121.248 252.586 121.435 252.586 121.695C252.586 121.895 252.656 122.055 252.796 122.175C252.943 122.288 253.126 122.385 253.346 122.465C253.573 122.538 253.81 122.612 254.056 122.685C254.303 122.758 254.54 122.852 254.766 122.965C254.993 123.072 255.176 123.222 255.316 123.415C255.456 123.608 255.526 123.862 255.526 124.175C255.526 124.515 255.433 124.795 255.246 125.015C255.066 125.228 254.83 125.388 254.536 125.495C254.25 125.595 253.936 125.645 253.596 125.645C253.223 125.645 252.856 125.582 252.496 125.455C252.136 125.328 251.83 125.148 251.576 124.915L251.876 124.385C252.103 124.592 252.373 124.755 252.686 124.875C253.006 124.988 253.32 125.045 253.626 125.045C253.833 125.045 254.02 125.018 254.186 124.965C254.36 124.905 254.496 124.818 254.596 124.705C254.703 124.585 254.756 124.435 254.756 124.255C254.763 124.035 254.696 123.865 254.556 123.745C254.423 123.618 254.243 123.515 254.016 123.435C253.796 123.355 253.56 123.278 253.306 123.205C253.06 123.132 252.823 123.042 252.596 122.935C252.376 122.822 252.196 122.675 252.056 122.495C251.916 122.308 251.846 122.058 251.846 121.745C251.846 121.418 251.933 121.152 252.106 120.945C252.28 120.738 252.503 120.585 252.776 120.485C253.056 120.385 253.356 120.335 253.676 120.335C253.99 120.335 254.293 120.378 254.586 120.465C254.88 120.545 255.136 120.658 255.356 120.805L255.056 121.365ZM183.622 132.365H184.432L185.992 136.885L187.522 132.365H188.342L189.892 136.885L191.432 132.365H192.242L190.292 137.625H189.472L187.932 133.265L186.392 137.625H185.582L183.622 132.365ZM193.165 132.365H193.935V137.625H193.165V132.365ZM193.545 130.355C193.692 130.355 193.812 130.405 193.905 130.505C194.005 130.598 194.055 130.718 194.055 130.865C194.055 131.005 194.005 131.125 193.905 131.225C193.812 131.325 193.692 131.375 193.545 131.375C193.405 131.375 193.285 131.325 193.185 131.225C193.085 131.125 193.035 131.005 193.035 130.865C193.035 130.718 193.085 130.598 193.185 130.505C193.285 130.405 193.405 130.355 193.545 130.355ZM196.791 136.045C196.791 136.378 196.851 136.618 196.971 136.765C197.091 136.905 197.264 136.975 197.491 136.975C197.624 136.968 197.761 136.945 197.901 136.905C198.041 136.858 198.184 136.788 198.331 136.695L198.551 137.265C198.371 137.385 198.178 137.482 197.971 137.555C197.771 137.622 197.568 137.655 197.361 137.655C197.101 137.655 196.871 137.605 196.671 137.505C196.471 137.398 196.311 137.235 196.191 137.015C196.078 136.795 196.021 136.512 196.021 136.165V131.165H196.791V136.045ZM195.261 132.525H198.461V133.105H195.261V132.525ZM203.818 134.575C203.818 134.095 203.684 133.722 203.418 133.455C203.158 133.182 202.794 133.045 202.328 133.045C201.768 133.052 201.331 133.242 201.018 133.615C200.704 133.982 200.548 134.458 200.548 135.045H200.278C200.278 134.432 200.371 133.928 200.558 133.535C200.744 133.135 201.011 132.838 201.358 132.645C201.711 132.445 202.124 132.345 202.598 132.345C203.018 132.345 203.378 132.428 203.678 132.595C203.978 132.762 204.204 132.998 204.358 133.305C204.518 133.605 204.598 133.968 204.598 134.395V137.625H203.818V134.575ZM199.768 130.205H200.548V137.625H199.768V130.205ZM210.39 135.155C209.95 135.155 209.617 135.228 209.39 135.375C209.164 135.522 209.05 135.745 209.05 136.045C209.05 136.345 209.157 136.588 209.37 136.775C209.59 136.955 209.887 137.045 210.26 137.045C210.567 137.045 210.844 136.995 211.09 136.895C211.337 136.795 211.54 136.652 211.7 136.465C211.867 136.278 211.98 136.052 212.04 135.785L212.24 136.415C212.054 136.835 211.777 137.148 211.41 137.355C211.044 137.555 210.61 137.655 210.11 137.655C209.75 137.655 209.434 137.585 209.16 137.445C208.894 137.305 208.687 137.115 208.54 136.875C208.394 136.635 208.32 136.365 208.32 136.065C208.32 135.612 208.494 135.252 208.84 134.985C209.187 134.718 209.67 134.582 210.29 134.575H212.16V135.155H210.39ZM212.02 134.225C212.02 133.825 211.9 133.515 211.66 133.295C211.427 133.075 211.077 132.965 210.61 132.965C210.317 132.965 210.034 133.018 209.76 133.125C209.487 133.232 209.214 133.382 208.94 133.575L208.61 133.065C208.837 132.912 209.057 132.782 209.27 132.675C209.484 132.568 209.71 132.488 209.95 132.435C210.19 132.375 210.46 132.345 210.76 132.345C211.414 132.345 211.914 132.508 212.26 132.835C212.607 133.155 212.784 133.595 212.79 134.155L212.8 137.625H212.04L212.02 134.225ZM217.402 132.345C217.902 132.345 218.342 132.458 218.722 132.685C219.102 132.912 219.398 133.225 219.612 133.625C219.825 134.025 219.932 134.485 219.932 135.005C219.932 135.518 219.825 135.975 219.612 136.375C219.398 136.775 219.102 137.088 218.722 137.315C218.348 137.535 217.912 137.645 217.412 137.645C216.932 137.645 216.512 137.538 216.152 137.325C215.798 137.105 215.522 136.798 215.322 136.405C215.128 136.005 215.032 135.538 215.032 135.005C215.032 134.465 215.128 133.995 215.322 133.595C215.522 133.195 215.798 132.888 216.152 132.675C216.512 132.455 216.928 132.345 217.402 132.345ZM217.262 132.975C216.895 132.975 216.568 133.065 216.282 133.245C215.995 133.418 215.772 133.655 215.612 133.955C215.452 134.255 215.372 134.602 215.372 134.995C215.372 135.382 215.452 135.728 215.612 136.035C215.772 136.335 215.995 136.572 216.282 136.745C216.568 136.918 216.895 137.005 217.262 137.005C217.628 137.005 217.952 136.918 218.232 136.745C218.518 136.572 218.742 136.335 218.902 136.035C219.062 135.728 219.142 135.382 219.142 134.995C219.142 134.602 219.062 134.255 218.902 133.955C218.742 133.655 218.518 133.418 218.232 133.245C217.952 133.065 217.628 132.975 217.262 132.975ZM214.592 132.365H215.372V139.565H214.592V132.365ZM224.16 132.345C224.66 132.345 225.1 132.458 225.48 132.685C225.86 132.912 226.156 133.225 226.37 133.625C226.583 134.025 226.69 134.485 226.69 135.005C226.69 135.518 226.583 135.975 226.37 136.375C226.156 136.775 225.86 137.088 225.48 137.315C225.106 137.535 224.67 137.645 224.17 137.645C223.69 137.645 223.27 137.538 222.91 137.325C222.556 137.105 222.28 136.798 222.08 136.405C221.886 136.005 221.79 135.538 221.79 135.005C221.79 134.465 221.886 133.995 222.08 133.595C222.28 133.195 222.556 132.888 222.91 132.675C223.27 132.455 223.686 132.345 224.16 132.345ZM224.02 132.975C223.653 132.975 223.326 133.065 223.04 133.245C222.753 133.418 222.53 133.655 222.37 133.955C222.21 134.255 222.13 134.602 222.13 134.995C222.13 135.382 222.21 135.728 222.37 136.035C222.53 136.335 222.753 136.572 223.04 136.745C223.326 136.918 223.653 137.005 224.02 137.005C224.386 137.005 224.71 136.918 224.99 136.745C225.276 136.572 225.5 136.335 225.66 136.035C225.82 135.728 225.9 135.382 225.9 134.995C225.9 134.602 225.82 134.255 225.66 133.955C225.5 133.655 225.276 133.418 224.99 133.245C224.71 133.065 224.386 132.975 224.02 132.975ZM221.35 132.365H222.13V139.565H221.35V132.365ZM228.107 130.205H228.887V137.625H228.107V130.205ZM230.831 132.365H231.601V137.625H230.831V132.365ZM231.211 130.355C231.358 130.355 231.478 130.405 231.571 130.505C231.671 130.598 231.721 130.718 231.721 130.865C231.721 131.005 231.671 131.125 231.571 131.225C231.478 131.325 231.358 131.375 231.211 131.375C231.071 131.375 230.951 131.325 230.851 131.225C230.751 131.125 230.701 131.005 230.701 130.865C230.701 130.718 230.751 130.598 230.851 130.505C230.951 130.405 231.071 130.355 231.211 130.355ZM237.167 133.625C236.974 133.432 236.744 133.282 236.477 133.175C236.217 133.062 235.927 133.005 235.607 133.005C235.247 133.005 234.924 133.088 234.637 133.255C234.357 133.422 234.137 133.655 233.977 133.955C233.817 134.255 233.737 134.602 233.737 134.995C233.737 135.388 233.817 135.738 233.977 136.045C234.137 136.345 234.357 136.582 234.637 136.755C234.924 136.922 235.247 137.005 235.607 137.005C235.947 137.005 236.257 136.948 236.537 136.835C236.817 136.715 237.054 136.542 237.247 136.315L237.687 136.755C237.454 137.035 237.157 137.255 236.797 137.415C236.437 137.568 236.03 137.645 235.577 137.645C235.07 137.645 234.62 137.535 234.227 137.315C233.834 137.088 233.524 136.775 233.297 136.375C233.077 135.975 232.967 135.515 232.967 134.995C232.967 134.475 233.077 134.018 233.297 133.625C233.524 133.225 233.834 132.912 234.227 132.685C234.62 132.458 235.07 132.345 235.577 132.345C236.004 132.345 236.387 132.415 236.727 132.555C237.074 132.688 237.367 132.875 237.607 133.115L237.167 133.625ZM240.429 135.155C239.989 135.155 239.656 135.228 239.429 135.375C239.203 135.522 239.089 135.745 239.089 136.045C239.089 136.345 239.196 136.588 239.409 136.775C239.629 136.955 239.926 137.045 240.299 137.045C240.606 137.045 240.883 136.995 241.129 136.895C241.376 136.795 241.579 136.652 241.739 136.465C241.906 136.278 242.019 136.052 242.079 135.785L242.279 136.415C242.093 136.835 241.816 137.148 241.449 137.355C241.083 137.555 240.649 137.655 240.149 137.655C239.789 137.655 239.473 137.585 239.199 137.445C238.933 137.305 238.726 137.115 238.579 136.875C238.433 136.635 238.359 136.365 238.359 136.065C238.359 135.612 238.533 135.252 238.879 134.985C239.226 134.718 239.709 134.582 240.329 134.575H242.199V135.155H240.429ZM242.059 134.225C242.059 133.825 241.939 133.515 241.699 133.295C241.466 133.075 241.116 132.965 240.649 132.965C240.356 132.965 240.073 133.018 239.799 133.125C239.526 133.232 239.253 133.382 238.979 133.575L238.649 133.065C238.876 132.912 239.096 132.782 239.309 132.675C239.523 132.568 239.749 132.488 239.989 132.435C240.229 132.375 240.499 132.345 240.799 132.345C241.453 132.345 241.953 132.508 242.299 132.835C242.646 133.155 242.823 133.595 242.829 134.155L242.839 137.625H242.079L242.059 134.225ZM245.541 136.045C245.541 136.378 245.601 136.618 245.721 136.765C245.841 136.905 246.014 136.975 246.241 136.975C246.374 136.968 246.511 136.945 246.651 136.905C246.791 136.858 246.934 136.788 247.081 136.695L247.301 137.265C247.121 137.385 246.928 137.482 246.721 137.555C246.521 137.622 246.318 137.655 246.111 137.655C245.851 137.655 245.621 137.605 245.421 137.505C245.221 137.398 245.061 137.235 244.941 137.015C244.828 136.795 244.771 136.512 244.771 136.165V131.165H245.541V136.045ZM244.011 132.525H247.211V133.105H244.011V132.525ZM248.468 132.365H249.238V137.625H248.468V132.365ZM248.848 130.355C248.994 130.355 249.114 130.405 249.208 130.505C249.308 130.598 249.358 130.718 249.358 130.865C249.358 131.005 249.308 131.125 249.208 131.225C249.114 131.325 248.994 131.375 248.848 131.375C248.708 131.375 248.588 131.325 248.488 131.225C248.388 131.125 248.338 131.005 248.338 130.865C248.338 130.718 248.388 130.598 248.488 130.505C248.588 130.405 248.708 130.355 248.848 130.355ZM253.274 132.345C253.794 132.345 254.254 132.458 254.654 132.685C255.06 132.905 255.377 133.215 255.604 133.615C255.83 134.015 255.944 134.475 255.944 134.995C255.944 135.515 255.83 135.975 255.604 136.375C255.377 136.775 255.06 137.088 254.654 137.315C254.254 137.535 253.794 137.645 253.274 137.645C252.754 137.645 252.29 137.535 251.884 137.315C251.484 137.088 251.17 136.775 250.944 136.375C250.717 135.975 250.604 135.515 250.604 134.995C250.604 134.475 250.717 134.015 250.944 133.615C251.17 133.215 251.484 132.905 251.884 132.685C252.29 132.458 252.754 132.345 253.274 132.345ZM253.274 132.995C252.907 132.995 252.58 133.082 252.294 133.255C252.007 133.422 251.784 133.655 251.624 133.955C251.464 134.255 251.384 134.602 251.384 134.995C251.384 135.395 251.464 135.748 251.624 136.055C251.784 136.355 252.007 136.592 252.294 136.765C252.58 136.932 252.907 137.015 253.274 137.015C253.647 137.015 253.974 136.932 254.254 136.765C254.54 136.592 254.764 136.355 254.924 136.055C255.084 135.748 255.164 135.395 255.164 134.995C255.164 134.602 255.084 134.255 254.924 133.955C254.764 133.655 254.54 133.422 254.254 133.255C253.974 133.082 253.647 132.995 253.274 132.995ZM261.355 134.575C261.355 134.095 261.222 133.722 260.955 133.455C260.695 133.182 260.332 133.045 259.865 133.045C259.305 133.052 258.869 133.242 258.555 133.615C258.242 133.982 258.085 134.458 258.085 135.045H257.815C257.815 134.432 257.909 133.928 258.095 133.535C258.282 133.135 258.549 132.838 258.895 132.645C259.249 132.445 259.662 132.345 260.135 132.345C260.555 132.345 260.915 132.428 261.215 132.595C261.515 132.762 261.742 132.998 261.895 133.305C262.055 133.605 262.135 133.968 262.135 134.395V137.625H261.355V134.575ZM257.315 132.365H258.095V137.625H257.315V132.365Z" fill="#1E1D1D"/>
<rect width="298.5" height="24" transform="translate(299 113.625)" />
<path d="M597.854 121.979C598.049 121.783 598.049 121.467 597.854 121.271L594.672 118.089C594.476 117.894 594.16 117.894 593.964 118.089C593.769 118.285 593.769 118.601 593.964 118.797L596.793 121.625L593.964 124.453C593.769 124.649 593.769 124.965 593.964 125.161C594.16 125.356 594.476 125.356 594.672 125.161L597.854 121.979ZM299 122.125H597.5V121.125H299V122.125Z" fill="#1E1D1D"/>
<path d="M417.836 128.335C418.322 128.335 418.746 128.445 419.106 128.665C419.466 128.885 419.742 129.195 419.936 129.595C420.136 129.988 420.232 130.455 420.226 130.995C420.232 131.535 420.136 132.005 419.936 132.405C419.742 132.805 419.466 133.115 419.106 133.335C418.752 133.555 418.332 133.665 417.846 133.665C417.346 133.665 416.902 133.552 416.516 133.325C416.136 133.092 415.839 132.775 415.626 132.375C415.412 131.975 415.306 131.515 415.306 130.995C415.306 130.468 415.412 130.008 415.626 129.615C415.839 129.215 416.136 128.902 416.516 128.675C416.896 128.448 417.336 128.335 417.836 128.335ZM417.986 128.975C417.619 128.975 417.292 129.065 417.006 129.245C416.719 129.418 416.492 129.658 416.326 129.965C416.166 130.265 416.086 130.612 416.086 131.005C416.086 131.398 416.166 131.748 416.326 132.055C416.492 132.355 416.719 132.592 417.006 132.765C417.292 132.938 417.619 133.025 417.986 133.025C418.359 133.025 418.689 132.938 418.976 132.765C419.262 132.592 419.486 132.355 419.646 132.055C419.812 131.748 419.896 131.398 419.896 131.005C419.896 130.612 419.812 130.265 419.646 129.965C419.486 129.658 419.262 129.418 418.976 129.245C418.689 129.065 418.359 128.975 417.986 128.975ZM419.896 128.365H420.676V135.565H419.896V128.365ZM423.213 131.425C423.213 131.898 423.343 132.272 423.603 132.545C423.863 132.812 424.22 132.945 424.673 132.945C425.22 132.932 425.643 132.742 425.943 132.375C426.25 132.008 426.403 131.532 426.403 130.945H426.663C426.663 131.558 426.57 132.065 426.383 132.465C426.203 132.858 425.943 133.152 425.603 133.345C425.27 133.538 424.87 133.638 424.403 133.645C423.996 133.645 423.646 133.565 423.353 133.405C423.06 133.238 422.833 133.002 422.673 132.695C422.513 132.388 422.433 132.025 422.433 131.605V128.365H423.213V131.425ZM426.403 128.365H427.183V133.625H426.403V128.365ZM432.928 130.685C432.914 130.332 432.831 130.028 432.678 129.775C432.531 129.515 432.328 129.315 432.068 129.175C431.814 129.035 431.514 128.965 431.168 128.965C430.801 128.965 430.478 129.048 430.198 129.215C429.924 129.382 429.708 129.615 429.548 129.915C429.388 130.215 429.308 130.565 429.308 130.965C429.308 131.378 429.388 131.742 429.548 132.055C429.714 132.362 429.944 132.602 430.238 132.775C430.531 132.948 430.864 133.035 431.238 133.035C431.904 133.035 432.448 132.808 432.868 132.355L433.298 132.785C433.044 133.058 432.738 133.272 432.378 133.425C432.018 133.572 431.621 133.645 431.188 133.645C430.668 133.645 430.208 133.535 429.808 133.315C429.414 133.088 429.108 132.775 428.888 132.375C428.668 131.975 428.558 131.515 428.558 130.995C428.558 130.475 428.668 130.018 428.888 129.625C429.108 129.225 429.414 128.915 429.808 128.695C430.208 128.468 430.661 128.352 431.168 128.345C431.734 128.345 432.204 128.468 432.578 128.715C432.951 128.955 433.224 129.295 433.398 129.735C433.578 130.168 433.651 130.678 433.618 131.265H429.168V130.685H432.928ZM437.637 129.055C437.243 129.048 436.903 129.132 436.617 129.305C436.337 129.472 436.12 129.708 435.967 130.015C435.813 130.315 435.737 130.668 435.737 131.075L435.467 131.045C435.467 130.472 435.553 129.985 435.727 129.585C435.9 129.185 436.15 128.878 436.477 128.665C436.803 128.452 437.19 128.345 437.637 128.345V129.055ZM434.967 128.365H435.747V133.625H434.967V128.365ZM440.651 134.375C440.484 134.775 440.264 135.078 439.991 135.285C439.724 135.492 439.417 135.595 439.071 135.595C438.851 135.595 438.651 135.565 438.471 135.505C438.291 135.445 438.121 135.352 437.961 135.225L438.291 134.645C438.524 134.805 438.771 134.885 439.031 134.885C439.231 134.885 439.414 134.818 439.581 134.685C439.754 134.558 439.891 134.365 439.991 134.105L440.211 133.595L438.031 128.365H438.841L440.601 132.795L442.271 128.365H443.071L440.651 134.375ZM450.492 127.865C450.285 127.725 450.065 127.615 449.832 127.535C449.605 127.448 449.382 127.385 449.162 127.345C448.948 127.305 448.748 127.285 448.562 127.285C448.108 127.285 447.745 127.375 447.472 127.555C447.205 127.735 447.072 127.982 447.072 128.295C447.072 128.568 447.142 128.788 447.282 128.955C447.428 129.122 447.618 129.258 447.852 129.365C448.085 129.472 448.342 129.568 448.622 129.655C448.902 129.735 449.182 129.825 449.462 129.925C449.742 130.018 449.998 130.142 450.232 130.295C450.465 130.442 450.652 130.635 450.792 130.875C450.932 131.108 451.002 131.408 451.002 131.775C451.002 132.162 450.895 132.498 450.682 132.785C450.468 133.065 450.172 133.285 449.792 133.445C449.412 133.598 448.972 133.675 448.472 133.675C448.132 133.675 447.798 133.632 447.472 133.545C447.145 133.452 446.838 133.325 446.552 133.165C446.265 133.005 446.012 132.822 445.792 132.615L446.152 131.965C446.372 132.172 446.612 132.348 446.872 132.495C447.132 132.642 447.398 132.755 447.672 132.835C447.952 132.915 448.222 132.955 448.482 132.955C448.988 132.955 449.388 132.852 449.682 132.645C449.975 132.438 450.122 132.158 450.122 131.805C450.122 131.532 450.052 131.308 449.912 131.135C449.772 130.962 449.585 130.822 449.352 130.715C449.118 130.608 448.862 130.515 448.582 130.435C448.302 130.355 448.018 130.268 447.732 130.175C447.452 130.075 447.195 129.955 446.962 129.815C446.728 129.668 446.542 129.478 446.402 129.245C446.262 129.012 446.192 128.715 446.192 128.355C446.192 127.988 446.292 127.672 446.492 127.405C446.692 127.138 446.975 126.932 447.342 126.785C447.708 126.632 448.132 126.555 448.612 126.555C449.018 126.555 449.415 126.615 449.802 126.735C450.195 126.855 450.538 127.008 450.832 127.195L450.492 127.865ZM452.645 126.625H453.445V133.625H452.645V126.625ZM458.385 126.625C458.898 126.625 459.375 126.715 459.815 126.895C460.255 127.068 460.635 127.315 460.955 127.635C461.282 127.948 461.535 128.318 461.715 128.745C461.902 129.172 461.995 129.632 461.995 130.125C461.995 130.625 461.902 131.085 461.715 131.505C461.535 131.925 461.282 132.295 460.955 132.615C460.628 132.935 460.245 133.185 459.805 133.365C459.365 133.538 458.888 133.625 458.375 133.625H455.565V126.625H458.385ZM458.405 132.935C458.798 132.935 459.162 132.865 459.495 132.725C459.828 132.585 460.122 132.388 460.375 132.135C460.628 131.875 460.825 131.575 460.965 131.235C461.112 130.895 461.185 130.528 461.185 130.135C461.185 129.735 461.112 129.365 460.965 129.025C460.818 128.685 460.618 128.388 460.365 128.135C460.112 127.875 459.815 127.675 459.475 127.535C459.135 127.395 458.768 127.325 458.375 127.325H456.365V132.935H458.405ZM468.007 126.625H468.827L471.957 133.625H471.097L468.397 127.445L465.717 133.625H464.877L468.007 126.625ZM466.257 131.115H470.507V131.805H466.257V131.115ZM475.695 126.625C476.562 126.625 477.232 126.832 477.705 127.245C478.185 127.652 478.425 128.225 478.425 128.965C478.425 129.732 478.185 130.328 477.705 130.755C477.232 131.175 476.562 131.385 475.695 131.385H473.515L473.865 131.035V133.625H473.065V126.625H475.695ZM475.665 130.695C476.298 130.695 476.788 130.552 477.135 130.265C477.482 129.972 477.655 129.545 477.655 128.985C477.655 128.438 477.482 128.025 477.135 127.745C476.788 127.465 476.298 127.325 475.665 127.325H473.515L473.865 126.975V131.045L473.515 130.695H475.665ZM479.754 126.625H480.554V133.625H479.754V126.625Z" fill="#1E1D1D"/>
<path d="M149.146 163.271C148.951 163.467 148.951 163.783 149.146 163.979L152.328 167.161C152.524 167.356 152.84 167.356 153.036 167.161C153.231 166.965 153.231 166.649 153.036 166.453L150.207 163.625L153.036 160.797C153.231 160.601 153.231 160.285 153.036 160.089C152.84 159.894 152.524 159.894 152.328 160.089L149.146 163.271ZM298 163.125L149.5 163.125V164.125L298 164.125V163.125Z" fill="#1E1D1D"/>
<path d="M186.422 170.335C186.908 170.335 187.332 170.445 187.692 170.665C188.052 170.885 188.328 171.195 188.522 171.595C188.722 171.988 188.818 172.455 188.812 172.995C188.818 173.535 188.722 174.005 188.522 174.405C188.328 174.805 188.052 175.115 187.692 175.335C187.338 175.555 186.918 175.665 186.432 175.665C185.932 175.665 185.488 175.552 185.102 175.325C184.722 175.092 184.425 174.775 184.212 174.375C183.998 173.975 183.892 173.515 183.892 172.995C183.892 172.468 183.998 172.008 184.212 171.615C184.425 171.215 184.722 170.902 185.102 170.675C185.482 170.448 185.922 170.335 186.422 170.335ZM186.572 170.975C186.205 170.975 185.878 171.065 185.592 171.245C185.305 171.418 185.078 171.658 184.912 171.965C184.752 172.265 184.672 172.612 184.672 173.005C184.672 173.398 184.752 173.748 184.912 174.055C185.078 174.355 185.305 174.592 185.592 174.765C185.878 174.938 186.205 175.025 186.572 175.025C186.945 175.025 187.275 174.938 187.562 174.765C187.848 174.592 188.072 174.355 188.232 174.055C188.398 173.748 188.482 173.398 188.482 173.005C188.482 172.612 188.398 172.265 188.232 171.965C188.072 171.658 187.848 171.418 187.562 171.245C187.275 171.065 186.945 170.975 186.572 170.975ZM188.482 168.205H189.262V175.625H188.482V168.205ZM191.199 170.365H191.969V175.625H191.199V170.365ZM191.579 168.355C191.726 168.355 191.846 168.405 191.939 168.505C192.039 168.598 192.089 168.718 192.089 168.865C192.089 169.005 192.039 169.125 191.939 169.225C191.846 169.325 191.726 169.375 191.579 169.375C191.439 169.375 191.319 169.325 191.219 169.225C191.119 169.125 191.069 169.005 191.069 168.865C191.069 168.718 191.119 168.598 191.219 168.505C191.319 168.405 191.439 168.355 191.579 168.355ZM196.645 171.365C196.438 171.238 196.208 171.138 195.955 171.065C195.702 170.992 195.455 170.955 195.215 170.955C194.922 170.955 194.675 171.015 194.475 171.135C194.275 171.248 194.175 171.435 194.175 171.695C194.175 171.895 194.245 172.055 194.385 172.175C194.532 172.288 194.715 172.385 194.935 172.465C195.162 172.538 195.398 172.612 195.645 172.685C195.892 172.758 196.128 172.852 196.355 172.965C196.582 173.072 196.765 173.222 196.905 173.415C197.045 173.608 197.115 173.862 197.115 174.175C197.115 174.515 197.022 174.795 196.835 175.015C196.655 175.228 196.418 175.388 196.125 175.495C195.838 175.595 195.525 175.645 195.185 175.645C194.812 175.645 194.445 175.582 194.085 175.455C193.725 175.328 193.418 175.148 193.165 174.915L193.465 174.385C193.692 174.592 193.962 174.755 194.275 174.875C194.595 174.988 194.908 175.045 195.215 175.045C195.422 175.045 195.608 175.018 195.775 174.965C195.948 174.905 196.085 174.818 196.185 174.705C196.292 174.585 196.345 174.435 196.345 174.255C196.352 174.035 196.285 173.865 196.145 173.745C196.012 173.618 195.832 173.515 195.605 173.435C195.385 173.355 195.148 173.278 194.895 173.205C194.648 173.132 194.412 173.042 194.185 172.935C193.965 172.822 193.785 172.675 193.645 172.495C193.505 172.308 193.435 172.058 193.435 171.745C193.435 171.418 193.522 171.152 193.695 170.945C193.868 170.738 194.092 170.585 194.365 170.485C194.645 170.385 194.945 170.335 195.265 170.335C195.578 170.335 195.882 170.378 196.175 170.465C196.468 170.545 196.725 170.658 196.945 170.805L196.645 171.365ZM201.256 170.345C201.756 170.345 202.196 170.458 202.576 170.685C202.956 170.912 203.253 171.225 203.466 171.625C203.68 172.025 203.786 172.485 203.786 173.005C203.786 173.518 203.68 173.975 203.466 174.375C203.253 174.775 202.956 175.088 202.576 175.315C202.203 175.535 201.766 175.645 201.266 175.645C200.786 175.645 200.366 175.538 200.006 175.325C199.653 175.105 199.376 174.798 199.176 174.405C198.983 174.005 198.886 173.538 198.886 173.005C198.886 172.465 198.983 171.995 199.176 171.595C199.376 171.195 199.653 170.888 200.006 170.675C200.366 170.455 200.783 170.345 201.256 170.345ZM201.116 170.975C200.75 170.975 200.423 171.065 200.136 171.245C199.85 171.418 199.626 171.655 199.466 171.955C199.306 172.255 199.226 172.602 199.226 172.995C199.226 173.382 199.306 173.728 199.466 174.035C199.626 174.335 199.85 174.572 200.136 174.745C200.423 174.918 200.75 175.005 201.116 175.005C201.483 175.005 201.806 174.918 202.086 174.745C202.373 174.572 202.596 174.335 202.756 174.035C202.916 173.728 202.996 173.382 202.996 172.995C202.996 172.602 202.916 172.255 202.756 171.955C202.596 171.655 202.373 171.418 202.086 171.245C201.806 171.065 201.483 170.975 201.116 170.975ZM198.446 170.365H199.226V177.565H198.446V170.365ZM205.204 168.205H205.984V175.625H205.204V168.205ZM209.548 173.155C209.108 173.155 208.774 173.228 208.548 173.375C208.321 173.522 208.208 173.745 208.208 174.045C208.208 174.345 208.314 174.588 208.528 174.775C208.748 174.955 209.044 175.045 209.418 175.045C209.724 175.045 210.001 174.995 210.248 174.895C210.494 174.795 210.698 174.652 210.858 174.465C211.024 174.278 211.138 174.052 211.198 173.785L211.398 174.415C211.211 174.835 210.934 175.148 210.568 175.355C210.201 175.555 209.768 175.655 209.268 175.655C208.908 175.655 208.591 175.585 208.318 175.445C208.051 175.305 207.844 175.115 207.698 174.875C207.551 174.635 207.478 174.365 207.478 174.065C207.478 173.612 207.651 173.252 207.998 172.985C208.344 172.718 208.828 172.582 209.448 172.575H211.318V173.155H209.548ZM211.178 172.225C211.178 171.825 211.058 171.515 210.818 171.295C210.584 171.075 210.234 170.965 209.768 170.965C209.474 170.965 209.191 171.018 208.918 171.125C208.644 171.232 208.371 171.382 208.098 171.575L207.768 171.065C207.994 170.912 208.214 170.782 208.428 170.675C208.641 170.568 208.868 170.488 209.108 170.435C209.348 170.375 209.618 170.345 209.918 170.345C210.571 170.345 211.071 170.508 211.418 170.835C211.764 171.155 211.941 171.595 211.948 172.155L211.958 175.625H211.198L211.178 172.225ZM215.164 176.375C214.998 176.775 214.778 177.078 214.504 177.285C214.238 177.492 213.931 177.595 213.584 177.595C213.364 177.595 213.164 177.565 212.984 177.505C212.804 177.445 212.634 177.352 212.474 177.225L212.804 176.645C213.038 176.805 213.284 176.885 213.544 176.885C213.744 176.885 213.928 176.818 214.094 176.685C214.268 176.558 214.404 176.365 214.504 176.105L214.724 175.595L212.544 170.365H213.354L215.114 174.795L216.784 170.365H217.584L215.164 176.375ZM223.605 171.055C223.212 171.048 222.872 171.132 222.585 171.305C222.305 171.472 222.089 171.708 221.935 172.015C221.782 172.315 221.705 172.668 221.705 173.075L221.435 173.045C221.435 172.472 221.522 171.985 221.695 171.585C221.869 171.185 222.119 170.878 222.445 170.665C222.772 170.452 223.159 170.345 223.605 170.345V171.055ZM220.935 170.365H221.715V175.625H220.935V170.365ZM228.496 172.685C228.483 172.332 228.399 172.028 228.246 171.775C228.099 171.515 227.896 171.315 227.636 171.175C227.383 171.035 227.083 170.965 226.736 170.965C226.369 170.965 226.046 171.048 225.766 171.215C225.493 171.382 225.276 171.615 225.116 171.915C224.956 172.215 224.876 172.565 224.876 172.965C224.876 173.378 224.956 173.742 225.116 174.055C225.283 174.362 225.513 174.602 225.806 174.775C226.099 174.948 226.433 175.035 226.806 175.035C227.473 175.035 228.016 174.808 228.436 174.355L228.866 174.785C228.613 175.058 228.306 175.272 227.946 175.425C227.586 175.572 227.189 175.645 226.756 175.645C226.236 175.645 225.776 175.535 225.376 175.315C224.983 175.088 224.676 174.775 224.456 174.375C224.236 173.975 224.126 173.515 224.126 172.995C224.126 172.475 224.236 172.018 224.456 171.625C224.676 171.225 224.983 170.915 225.376 170.695C225.776 170.468 226.229 170.352 226.736 170.345C227.303 170.345 227.773 170.468 228.146 170.715C228.519 170.955 228.793 171.295 228.966 171.735C229.146 172.168 229.219 172.678 229.186 173.265H224.736V172.685H228.496ZM233.315 171.365C233.108 171.238 232.878 171.138 232.625 171.065C232.372 170.992 232.125 170.955 231.885 170.955C231.592 170.955 231.345 171.015 231.145 171.135C230.945 171.248 230.845 171.435 230.845 171.695C230.845 171.895 230.915 172.055 231.055 172.175C231.202 172.288 231.385 172.385 231.605 172.465C231.832 172.538 232.068 172.612 232.315 172.685C232.562 172.758 232.798 172.852 233.025 172.965C233.252 173.072 233.435 173.222 233.575 173.415C233.715 173.608 233.785 173.862 233.785 174.175C233.785 174.515 233.692 174.795 233.505 175.015C233.325 175.228 233.088 175.388 232.795 175.495C232.508 175.595 232.195 175.645 231.855 175.645C231.482 175.645 231.115 175.582 230.755 175.455C230.395 175.328 230.088 175.148 229.835 174.915L230.135 174.385C230.362 174.592 230.632 174.755 230.945 174.875C231.265 174.988 231.578 175.045 231.885 175.045C232.092 175.045 232.278 175.018 232.445 174.965C232.618 174.905 232.755 174.818 232.855 174.705C232.962 174.585 233.015 174.435 233.015 174.255C233.022 174.035 232.955 173.865 232.815 173.745C232.682 173.618 232.502 173.515 232.275 173.435C232.055 173.355 231.818 173.278 231.565 173.205C231.318 173.132 231.082 173.042 230.855 172.935C230.635 172.822 230.455 172.675 230.315 172.495C230.175 172.308 230.105 172.058 230.105 171.745C230.105 171.418 230.192 171.152 230.365 170.945C230.538 170.738 230.762 170.585 231.035 170.485C231.315 170.385 231.615 170.335 231.935 170.335C232.248 170.335 232.552 170.378 232.845 170.465C233.138 170.545 233.395 170.658 233.615 170.805L233.315 171.365ZM237.926 170.345C238.426 170.345 238.866 170.458 239.246 170.685C239.626 170.912 239.923 171.225 240.136 171.625C240.35 172.025 240.456 172.485 240.456 173.005C240.456 173.518 240.35 173.975 240.136 174.375C239.923 174.775 239.626 175.088 239.246 175.315C238.873 175.535 238.436 175.645 237.936 175.645C237.456 175.645 237.036 175.538 236.676 175.325C236.323 175.105 236.046 174.798 235.846 174.405C235.653 174.005 235.556 173.538 235.556 173.005C235.556 172.465 235.653 171.995 235.846 171.595C236.046 171.195 236.323 170.888 236.676 170.675C237.036 170.455 237.453 170.345 237.926 170.345ZM237.786 170.975C237.42 170.975 237.093 171.065 236.806 171.245C236.52 171.418 236.296 171.655 236.136 171.955C235.976 172.255 235.896 172.602 235.896 172.995C235.896 173.382 235.976 173.728 236.136 174.035C236.296 174.335 236.52 174.572 236.806 174.745C237.093 174.918 237.42 175.005 237.786 175.005C238.153 175.005 238.476 174.918 238.756 174.745C239.043 174.572 239.266 174.335 239.426 174.035C239.586 173.728 239.666 173.382 239.666 172.995C239.666 172.602 239.586 172.255 239.426 171.955C239.266 171.655 239.043 171.418 238.756 171.245C238.476 171.065 238.153 170.975 237.786 170.975ZM235.116 170.365H235.896V177.565H235.116V170.365ZM243.964 170.345C244.484 170.345 244.944 170.458 245.344 170.685C245.751 170.905 246.067 171.215 246.294 171.615C246.521 172.015 246.634 172.475 246.634 172.995C246.634 173.515 246.521 173.975 246.294 174.375C246.067 174.775 245.751 175.088 245.344 175.315C244.944 175.535 244.484 175.645 243.964 175.645C243.444 175.645 242.981 175.535 242.574 175.315C242.174 175.088 241.861 174.775 241.634 174.375C241.407 173.975 241.294 173.515 241.294 172.995C241.294 172.475 241.407 172.015 241.634 171.615C241.861 171.215 242.174 170.905 242.574 170.685C242.981 170.458 243.444 170.345 243.964 170.345ZM243.964 170.995C243.597 170.995 243.271 171.082 242.984 171.255C242.697 171.422 242.474 171.655 242.314 171.955C242.154 172.255 242.074 172.602 242.074 172.995C242.074 173.395 242.154 173.748 242.314 174.055C242.474 174.355 242.697 174.592 242.984 174.765C243.271 174.932 243.597 175.015 243.964 175.015C244.337 175.015 244.664 174.932 244.944 174.765C245.231 174.592 245.454 174.355 245.614 174.055C245.774 173.748 245.854 173.395 245.854 172.995C245.854 172.602 245.774 172.255 245.614 171.955C245.454 171.655 245.231 171.422 244.944 171.255C244.664 171.082 244.337 170.995 243.964 170.995ZM252.046 172.575C252.046 172.095 251.912 171.722 251.646 171.455C251.386 171.182 251.022 171.045 250.556 171.045C249.996 171.052 249.559 171.242 249.246 171.615C248.932 171.982 248.776 172.458 248.776 173.045H248.506C248.506 172.432 248.599 171.928 248.786 171.535C248.972 171.135 249.239 170.838 249.586 170.645C249.939 170.445 250.352 170.345 250.826 170.345C251.246 170.345 251.606 170.428 251.906 170.595C252.206 170.762 252.432 170.998 252.586 171.305C252.746 171.605 252.826 171.968 252.826 172.395V175.625H252.046V172.575ZM248.006 170.365H248.786V175.625H248.006V170.365ZM257.348 171.365C257.141 171.238 256.911 171.138 256.658 171.065C256.405 170.992 256.158 170.955 255.918 170.955C255.625 170.955 255.378 171.015 255.178 171.135C254.978 171.248 254.878 171.435 254.878 171.695C254.878 171.895 254.948 172.055 255.088 172.175C255.235 172.288 255.418 172.385 255.638 172.465C255.865 172.538 256.101 172.612 256.348 172.685C256.595 172.758 256.831 172.852 257.058 172.965C257.285 173.072 257.468 173.222 257.608 173.415C257.748 173.608 257.818 173.862 257.818 174.175C257.818 174.515 257.725 174.795 257.538 175.015C257.358 175.228 257.121 175.388 256.828 175.495C256.541 175.595 256.228 175.645 255.888 175.645C255.515 175.645 255.148 175.582 254.788 175.455C254.428 175.328 254.121 175.148 253.868 174.915L254.168 174.385C254.395 174.592 254.665 174.755 254.978 174.875C255.298 174.988 255.611 175.045 255.918 175.045C256.125 175.045 256.311 175.018 256.478 174.965C256.651 174.905 256.788 174.818 256.888 174.705C256.995 174.585 257.048 174.435 257.048 174.255C257.055 174.035 256.988 173.865 256.848 173.745C256.715 173.618 256.535 173.515 256.308 173.435C256.088 173.355 255.851 173.278 255.598 173.205C255.351 173.132 255.115 173.042 254.888 172.935C254.668 172.822 254.488 172.675 254.348 172.495C254.208 172.308 254.138 172.058 254.138 171.745C254.138 171.418 254.225 171.152 254.398 170.945C254.571 170.738 254.795 170.585 255.068 170.485C255.348 170.385 255.648 170.335 255.968 170.335C256.281 170.335 256.585 170.378 256.878 170.465C257.171 170.545 257.428 170.658 257.648 170.805L257.348 171.365ZM262.939 172.685C262.926 172.332 262.843 172.028 262.689 171.775C262.543 171.515 262.339 171.315 262.079 171.175C261.826 171.035 261.526 170.965 261.179 170.965C260.813 170.965 260.489 171.048 260.209 171.215C259.936 171.382 259.719 171.615 259.559 171.915C259.399 172.215 259.319 172.565 259.319 172.965C259.319 173.378 259.399 173.742 259.559 174.055C259.726 174.362 259.956 174.602 260.249 174.775C260.543 174.948 260.876 175.035 261.249 175.035C261.916 175.035 262.459 174.808 262.879 174.355L263.309 174.785C263.056 175.058 262.749 175.272 262.389 175.425C262.029 175.572 261.633 175.645 261.199 175.645C260.679 175.645 260.219 175.535 259.819 175.315C259.426 175.088 259.119 174.775 258.899 174.375C258.679 173.975 258.569 173.515 258.569 172.995C258.569 172.475 258.679 172.018 258.899 171.625C259.119 171.225 259.426 170.915 259.819 170.695C260.219 170.468 260.673 170.352 261.179 170.345C261.746 170.345 262.216 170.468 262.589 170.715C262.963 170.955 263.236 171.295 263.409 171.735C263.589 172.168 263.663 172.678 263.629 173.265H259.179V172.685H262.939ZM210.362 186.045C210.362 186.378 210.422 186.618 210.542 186.765C210.662 186.905 210.835 186.975 211.062 186.975C211.195 186.968 211.332 186.945 211.472 186.905C211.612 186.858 211.755 186.788 211.902 186.695L212.122 187.265C211.942 187.385 211.749 187.482 211.542 187.555C211.342 187.622 211.139 187.655 210.932 187.655C210.672 187.655 210.442 187.605 210.242 187.505C210.042 187.398 209.882 187.235 209.762 187.015C209.649 186.795 209.592 186.512 209.592 186.165V181.165H210.362V186.045ZM208.832 182.525H212.032V183.105H208.832V182.525ZM215.351 182.345C215.871 182.345 216.331 182.458 216.731 182.685C217.137 182.905 217.454 183.215 217.681 183.615C217.907 184.015 218.021 184.475 218.021 184.995C218.021 185.515 217.907 185.975 217.681 186.375C217.454 186.775 217.137 187.088 216.731 187.315C216.331 187.535 215.871 187.645 215.351 187.645C214.831 187.645 214.367 187.535 213.961 187.315C213.561 187.088 213.247 186.775 213.021 186.375C212.794 185.975 212.681 185.515 212.681 184.995C212.681 184.475 212.794 184.015 213.021 183.615C213.247 183.215 213.561 182.905 213.961 182.685C214.367 182.458 214.831 182.345 215.351 182.345ZM215.351 182.995C214.984 182.995 214.657 183.082 214.371 183.255C214.084 183.422 213.861 183.655 213.701 183.955C213.541 184.255 213.461 184.602 213.461 184.995C213.461 185.395 213.541 185.748 213.701 186.055C213.861 186.355 214.084 186.592 214.371 186.765C214.657 186.932 214.984 187.015 215.351 187.015C215.724 187.015 216.051 186.932 216.331 186.765C216.617 186.592 216.841 186.355 217.001 186.055C217.161 185.748 217.241 185.395 217.241 184.995C217.241 184.602 217.161 184.255 217.001 183.955C216.841 183.655 216.617 183.422 216.331 183.255C216.051 183.082 215.724 182.995 215.351 182.995ZM222.424 185.425C222.424 185.898 222.554 186.272 222.814 186.545C223.074 186.812 223.431 186.945 223.884 186.945C224.431 186.932 224.854 186.742 225.154 186.375C225.461 186.008 225.614 185.532 225.614 184.945H225.874C225.874 185.558 225.781 186.065 225.594 186.465C225.414 186.858 225.154 187.152 224.814 187.345C224.481 187.538 224.081 187.638 223.614 187.645C223.207 187.645 222.857 187.565 222.564 187.405C222.271 187.238 222.044 187.002 221.884 186.695C221.724 186.388 221.644 186.025 221.644 185.605V182.365H222.424V185.425ZM225.614 182.365H226.394V187.625H225.614V182.365ZM231.079 183.365C230.872 183.238 230.642 183.138 230.389 183.065C230.135 182.992 229.889 182.955 229.649 182.955C229.355 182.955 229.109 183.015 228.909 183.135C228.709 183.248 228.609 183.435 228.609 183.695C228.609 183.895 228.679 184.055 228.819 184.175C228.965 184.288 229.149 184.385 229.369 184.465C229.595 184.538 229.832 184.612 230.079 184.685C230.325 184.758 230.562 184.852 230.789 184.965C231.015 185.072 231.199 185.222 231.339 185.415C231.479 185.608 231.549 185.862 231.549 186.175C231.549 186.515 231.455 186.795 231.269 187.015C231.089 187.228 230.852 187.388 230.559 187.495C230.272 187.595 229.959 187.645 229.619 187.645C229.245 187.645 228.879 187.582 228.519 187.455C228.159 187.328 227.852 187.148 227.599 186.915L227.899 186.385C228.125 186.592 228.395 186.755 228.709 186.875C229.029 186.988 229.342 187.045 229.649 187.045C229.855 187.045 230.042 187.018 230.209 186.965C230.382 186.905 230.519 186.818 230.619 186.705C230.725 186.585 230.779 186.435 230.779 186.255C230.785 186.035 230.719 185.865 230.579 185.745C230.445 185.618 230.265 185.515 230.039 185.435C229.819 185.355 229.582 185.278 229.329 185.205C229.082 185.132 228.845 185.042 228.619 184.935C228.399 184.822 228.219 184.675 228.079 184.495C227.939 184.308 227.869 184.058 227.869 183.745C227.869 183.418 227.955 183.152 228.129 182.945C228.302 182.738 228.525 182.585 228.799 182.485C229.079 182.385 229.379 182.335 229.699 182.335C230.012 182.335 230.315 182.378 230.609 182.465C230.902 182.545 231.159 182.658 231.379 182.805L231.079 183.365ZM236.67 184.685C236.657 184.332 236.573 184.028 236.42 183.775C236.273 183.515 236.07 183.315 235.81 183.175C235.557 183.035 235.257 182.965 234.91 182.965C234.543 182.965 234.22 183.048 233.94 183.215C233.667 183.382 233.45 183.615 233.29 183.915C233.13 184.215 233.05 184.565 233.05 184.965C233.05 185.378 233.13 185.742 233.29 186.055C233.457 186.362 233.687 186.602 233.98 186.775C234.273 186.948 234.607 187.035 234.98 187.035C235.647 187.035 236.19 186.808 236.61 186.355L237.04 186.785C236.787 187.058 236.48 187.272 236.12 187.425C235.76 187.572 235.363 187.645 234.93 187.645C234.41 187.645 233.95 187.535 233.55 187.315C233.157 187.088 232.85 186.775 232.63 186.375C232.41 185.975 232.3 185.515 232.3 184.995C232.3 184.475 232.41 184.018 232.63 183.625C232.85 183.225 233.157 182.915 233.55 182.695C233.95 182.468 234.403 182.352 234.91 182.345C235.477 182.345 235.947 182.468 236.32 182.715C236.693 182.955 236.967 183.295 237.14 183.735C237.32 184.168 237.393 184.678 237.36 185.265H232.91V184.685H236.67ZM241.379 183.055C240.985 183.048 240.645 183.132 240.359 183.305C240.079 183.472 239.862 183.708 239.709 184.015C239.555 184.315 239.479 184.668 239.479 185.075L239.209 185.045C239.209 184.472 239.295 183.985 239.469 183.585C239.642 183.185 239.892 182.878 240.219 182.665C240.545 182.452 240.932 182.345 241.379 182.345V183.055ZM238.709 182.365H239.489V187.625H238.709V182.365Z" fill="#1E1D1D"/>
<rect width="298.5" height="16" transform="translate(299.5 155.625)" />
<path d="M299.146 155.271C298.951 155.467 298.951 155.783 299.146 155.979L302.328 159.161C302.524 159.356 302.84 159.356 303.036 159.161C303.231 158.965 303.231 158.649 303.036 158.453L300.207 155.625L303.036 152.797C303.231 152.601 303.231 152.285 303.036 152.089C302.84 151.894 302.524 151.894 302.328 152.089L299.146 155.271ZM598 155.125L299.5 155.125V156.125L598 156.125V155.125Z" fill="#1E1D1D"/>
<path d="M420.299 160.625H421.119L424.249 167.625H423.389L420.689 161.445L418.009 167.625H417.169L420.299 160.625ZM418.549 165.115H422.799V165.805H418.549V165.115ZM427.987 160.625C428.854 160.625 429.524 160.832 429.997 161.245C430.477 161.652 430.717 162.225 430.717 162.965C430.717 163.732 430.477 164.328 429.997 164.755C429.524 165.175 428.854 165.385 427.987 165.385H425.807L426.157 165.035V167.625H425.357V160.625H427.987ZM427.957 164.695C428.59 164.695 429.08 164.552 429.427 164.265C429.774 163.972 429.947 163.545 429.947 162.985C429.947 162.438 429.774 162.025 429.427 161.745C429.08 161.465 428.59 161.325 427.957 161.325H425.807L426.157 160.975V165.045L425.807 164.695H427.957ZM432.046 160.625H432.846V167.625H432.046V160.625ZM439.958 163.055C439.565 163.048 439.225 163.132 438.938 163.305C438.658 163.472 438.441 163.708 438.288 164.015C438.135 164.315 438.058 164.668 438.058 165.075L437.788 165.045C437.788 164.472 437.875 163.985 438.048 163.585C438.221 163.185 438.471 162.878 438.798 162.665C439.125 162.452 439.511 162.345 439.958 162.345V163.055ZM437.288 162.365H438.068V167.625H437.288V162.365ZM444.849 164.685C444.835 164.332 444.752 164.028 444.599 163.775C444.452 163.515 444.249 163.315 443.989 163.175C443.735 163.035 443.435 162.965 443.089 162.965C442.722 162.965 442.399 163.048 442.119 163.215C441.845 163.382 441.629 163.615 441.469 163.915C441.309 164.215 441.229 164.565 441.229 164.965C441.229 165.378 441.309 165.742 441.469 166.055C441.635 166.362 441.865 166.602 442.159 166.775C442.452 166.948 442.785 167.035 443.159 167.035C443.825 167.035 444.369 166.808 444.789 166.355L445.219 166.785C444.965 167.058 444.659 167.272 444.299 167.425C443.939 167.572 443.542 167.645 443.109 167.645C442.589 167.645 442.129 167.535 441.729 167.315C441.335 167.088 441.029 166.775 440.809 166.375C440.589 165.975 440.479 165.515 440.479 164.995C440.479 164.475 440.589 164.018 440.809 163.625C441.029 163.225 441.335 162.915 441.729 162.695C442.129 162.468 442.582 162.352 443.089 162.345C443.655 162.345 444.125 162.468 444.499 162.715C444.872 162.955 445.145 163.295 445.319 163.735C445.499 164.168 445.572 164.678 445.539 165.265H441.089V164.685H444.849ZM449.668 163.365C449.461 163.238 449.231 163.138 448.978 163.065C448.724 162.992 448.478 162.955 448.238 162.955C447.944 162.955 447.698 163.015 447.498 163.135C447.298 163.248 447.198 163.435 447.198 163.695C447.198 163.895 447.268 164.055 447.407 164.175C447.554 164.288 447.738 164.385 447.958 164.465C448.184 164.538 448.421 164.612 448.668 164.685C448.914 164.758 449.151 164.852 449.378 164.965C449.604 165.072 449.788 165.222 449.928 165.415C450.068 165.608 450.138 165.862 450.138 166.175C450.138 166.515 450.044 166.795 449.858 167.015C449.678 167.228 449.441 167.388 449.148 167.495C448.861 167.595 448.548 167.645 448.208 167.645C447.834 167.645 447.468 167.582 447.108 167.455C446.748 167.328 446.441 167.148 446.188 166.915L446.488 166.385C446.714 166.592 446.984 166.755 447.298 166.875C447.618 166.988 447.931 167.045 448.238 167.045C448.444 167.045 448.631 167.018 448.798 166.965C448.971 166.905 449.108 166.818 449.208 166.705C449.314 166.585 449.368 166.435 449.368 166.255C449.374 166.035 449.308 165.865 449.168 165.745C449.034 165.618 448.854 165.515 448.628 165.435C448.408 165.355 448.171 165.278 447.918 165.205C447.671 165.132 447.434 165.042 447.208 164.935C446.988 164.822 446.808 164.675 446.668 164.495C446.528 164.308 446.458 164.058 446.458 163.745C446.458 163.418 446.544 163.152 446.718 162.945C446.891 162.738 447.114 162.585 447.388 162.485C447.668 162.385 447.968 162.335 448.288 162.335C448.601 162.335 448.904 162.378 449.198 162.465C449.491 162.545 449.748 162.658 449.968 162.805L449.668 163.365ZM454.279 162.345C454.779 162.345 455.219 162.458 455.599 162.685C455.979 162.912 456.275 163.225 456.489 163.625C456.702 164.025 456.809 164.485 456.809 165.005C456.809 165.518 456.702 165.975 456.489 166.375C456.275 166.775 455.979 167.088 455.599 167.315C455.225 167.535 454.789 167.645 454.289 167.645C453.809 167.645 453.389 167.538 453.029 167.325C452.675 167.105 452.399 166.798 452.199 166.405C452.005 166.005 451.909 165.538 451.909 165.005C451.909 164.465 452.005 163.995 452.199 163.595C452.399 163.195 452.675 162.888 453.029 162.675C453.389 162.455 453.805 162.345 454.279 162.345ZM454.139 162.975C453.772 162.975 453.445 163.065 453.159 163.245C452.872 163.418 452.649 163.655 452.489 163.955C452.329 164.255 452.249 164.602 452.249 164.995C452.249 165.382 452.329 165.728 452.489 166.035C452.649 166.335 452.872 166.572 453.159 166.745C453.445 166.918 453.772 167.005 454.139 167.005C454.505 167.005 454.829 166.918 455.109 166.745C455.395 166.572 455.619 166.335 455.779 166.035C455.939 165.728 456.019 165.382 456.019 164.995C456.019 164.602 455.939 164.255 455.779 163.955C455.619 163.655 455.395 163.418 455.109 163.245C454.829 163.065 454.505 162.975 454.139 162.975ZM451.469 162.365H452.249V169.565H451.469V162.365ZM460.317 162.345C460.837 162.345 461.297 162.458 461.697 162.685C462.103 162.905 462.42 163.215 462.647 163.615C462.873 164.015 462.987 164.475 462.987 164.995C462.987 165.515 462.873 165.975 462.647 166.375C462.42 166.775 462.103 167.088 461.697 167.315C461.297 167.535 460.837 167.645 460.317 167.645C459.797 167.645 459.333 167.535 458.927 167.315C458.527 167.088 458.213 166.775 457.987 166.375C457.76 165.975 457.647 165.515 457.647 164.995C457.647 164.475 457.76 164.015 457.987 163.615C458.213 163.215 458.527 162.905 458.927 162.685C459.333 162.458 459.797 162.345 460.317 162.345ZM460.317 162.995C459.95 162.995 459.623 163.082 459.337 163.255C459.05 163.422 458.827 163.655 458.667 163.955C458.507 164.255 458.427 164.602 458.427 164.995C458.427 165.395 458.507 165.748 458.667 166.055C458.827 166.355 459.05 166.592 459.337 166.765C459.623 166.932 459.95 167.015 460.317 167.015C460.69 167.015 461.017 166.932 461.297 166.765C461.583 166.592 461.807 166.355 461.967 166.055C462.127 165.748 462.207 165.395 462.207 164.995C462.207 164.602 462.127 164.255 461.967 163.955C461.807 163.655 461.583 163.422 461.297 163.255C461.017 163.082 460.69 162.995 460.317 162.995ZM468.398 164.575C468.398 164.095 468.265 163.722 467.998 163.455C467.738 163.182 467.375 163.045 466.908 163.045C466.348 163.052 465.912 163.242 465.598 163.615C465.285 163.982 465.128 164.458 465.128 165.045H464.858C464.858 164.432 464.952 163.928 465.138 163.535C465.325 163.135 465.592 162.838 465.938 162.645C466.292 162.445 466.705 162.345 467.178 162.345C467.598 162.345 467.958 162.428 468.258 162.595C468.558 162.762 468.785 162.998 468.938 163.305C469.098 163.605 469.178 163.968 469.178 164.395V167.625H468.398V164.575ZM464.358 162.365H465.138V167.625H464.358V162.365ZM473.701 163.365C473.494 163.238 473.264 163.138 473.011 163.065C472.757 162.992 472.511 162.955 472.271 162.955C471.977 162.955 471.731 163.015 471.531 163.135C471.331 163.248 471.231 163.435 471.231 163.695C471.231 163.895 471.301 164.055 471.441 164.175C471.587 164.288 471.771 164.385 471.991 164.465C472.217 164.538 472.454 164.612 472.701 164.685C472.947 164.758 473.184 164.852 473.411 164.965C473.637 165.072 473.821 165.222 473.961 165.415C474.101 165.608 474.171 165.862 474.171 166.175C474.171 166.515 474.077 166.795 473.891 167.015C473.711 167.228 473.474 167.388 473.181 167.495C472.894 167.595 472.581 167.645 472.241 167.645C471.867 167.645 471.501 167.582 471.141 167.455C470.781 167.328 470.474 167.148 470.221 166.915L470.521 166.385C470.747 166.592 471.017 166.755 471.331 166.875C471.651 166.988 471.964 167.045 472.271 167.045C472.477 167.045 472.664 167.018 472.831 166.965C473.004 166.905 473.141 166.818 473.241 166.705C473.347 166.585 473.401 166.435 473.401 166.255C473.407 166.035 473.341 165.865 473.201 165.745C473.067 165.618 472.887 165.515 472.661 165.435C472.441 165.355 472.204 165.278 471.951 165.205C471.704 165.132 471.467 165.042 471.241 164.935C471.021 164.822 470.841 164.675 470.701 164.495C470.561 164.308 470.491 164.058 470.491 163.745C470.491 163.418 470.577 163.152 470.751 162.945C470.924 162.738 471.147 162.585 471.421 162.485C471.701 162.385 472.001 162.335 472.321 162.335C472.634 162.335 472.937 162.378 473.231 162.465C473.524 162.545 473.781 162.658 474.001 162.805L473.701 163.365ZM479.292 164.685C479.279 164.332 479.195 164.028 479.042 163.775C478.895 163.515 478.692 163.315 478.432 163.175C478.179 163.035 477.879 162.965 477.532 162.965C477.165 162.965 476.842 163.048 476.562 163.215C476.289 163.382 476.072 163.615 475.912 163.915C475.752 164.215 475.672 164.565 475.672 164.965C475.672 165.378 475.752 165.742 475.912 166.055C476.079 166.362 476.309 166.602 476.602 166.775C476.895 166.948 477.229 167.035 477.602 167.035C478.269 167.035 478.812 166.808 479.232 166.355L479.662 166.785C479.409 167.058 479.102 167.272 478.742 167.425C478.382 167.572 477.985 167.645 477.552 167.645C477.032 167.645 476.572 167.535 476.172 167.315C475.779 167.088 475.472 166.775 475.252 166.375C475.032 165.975 474.922 165.515 474.922 164.995C474.922 164.475 475.032 164.018 475.252 163.625C475.472 163.225 475.779 162.915 476.172 162.695C476.572 162.468 477.025 162.352 477.532 162.345C478.099 162.345 478.569 162.468 478.942 162.715C479.315 162.955 479.589 163.295 479.762 163.735C479.942 164.168 480.015 164.678 479.982 165.265H475.532V164.685H479.292Z" fill="#1E1D1D"/>
<defs>
<clipPath id="clip0_184_2790">
<rect width="451" height="158"  transform="translate(148 66)"/>
</clipPath>
</defs>
</svg>
